SourceSerif-Italic_1.ufo
<glyph name="exclam" format="2">
	<unicode hex="0021"/>
	<advance width="290"/>
	<outline>
		<contour>
			<point x="133" y="197" type="line"/>
			<point x="166" y="197" type="line"/>
			<point x="261" y="512"/>
			<point x="289" y="592"/>
			<point x="289" y="639" type="curve" smooth="yes"/>
			<point x="289" y="669"/>
			<point x="275" y="684"/>
			<point x="245" y="684" type="curve" smooth="yes"/>
			<point x="217" y="684"/>
			<point x="194" y="669"/>
			<point x="182" y="608" type="curve" smooth="yes"/>
			<point x="177" y="580"/>
			<point x="166" y="490"/>
			<point x="152" y="355" type="curve" smooth="yes"/>
		</contour>
		<contour>
			<point x="58" y="46" type="curve" smooth="yes"/>
			<point x="58" y="12"/>
			<point x="83" y="-12"/>
			<point x="114" y="-12" type="curve" smooth="yes"/>
			<point x="151" y="-12"/>
			<point x="184" y="19"/>
			<point x="184" y="56" type="curve" smooth="yes"/>
			<point x="184" y="88"/>
			<point x="162" y="115"/>
			<point x="128" y="115" type="curve" smooth="yes"/>
			<point x="91" y="115"/>
			<point x="58" y="84"/>
		</contour>
	</outline>
</glyph>
<glyph name="numbersign" format="1">
	<unicode hex="0023"/>
	<advance width="524"/>
	<outline>
		<contour>
			<point x="54" y="0" type="line"/>
			<point x="99" y="0" type="line"/>
			<point x="331" y="650" type="line"/>
			<point x="286" y="650" type="line"/>
		</contour>
		<contour>
			<point x="44" y="261" type="line"/>
			<point x="28" y="181" type="line"/>
			<point x="470" y="181" type="line"/>
			<point x="486" y="261" type="line"/>
		</contour>
		<contour>
			<point x="545" y="392" type="line"/>
			<point x="561" y="472" type="line"/>
			<point x="119" y="472" type="line"/>
			<point x="103" y="392" type="line"/>
		</contour>
		<contour>
			<point x="258" y="0" type="line"/>
			<point x="303" y="0" type="line"/>
			<point x="535" y="650" type="line"/>
			<point x="490" y="650" type="line"/>
		</contour>
	</outline>
</glyph>
<glyph name="dollar" format="1">
	<unicode hex="0024"/>
	<advance width="497"/>
	<outline>
		<contour>
			<point x="221" y="-13" type="curve" smooth="yes"/>
			<point x="360" y="-13"/>
			<point x="449" y="71"/>
			<point x="449" y="176" type="curve" smooth="yes"/>
			<point x="449" y="257"/>
			<point x="414" y="294"/>
			<point x="326" y="349" type="curve" smooth="yes"/>
			<point x="286" y="374" type="line" smooth="yes"/>
			<point x="235" y="407"/>
			<point x="196" y="429"/>
			<point x="196" y="501" type="curve" smooth="yes"/>
			<point x="196" y="577"/>
			<point x="253" y="621"/>
			<point x="343" y="621" type="curve" smooth="yes"/>
			<point x="374" y="621"/>
			<point x="417" y="618"/>
			<point x="464" y="592" type="curve"/>
			<point x="423" y="628" type="line"/>
			<point x="423" y="550" type="line" smooth="yes"/>
			<point x="423" y="505"/>
			<point x="446" y="491"/>
			<point x="468" y="491" type="curve" smooth="yes"/>
			<point x="488" y="491"/>
			<point x="506" y="502"/>
			<point x="511" y="531" type="curve"/>
			<point x="506" y="613"/>
			<point x="453" y="660"/>
			<point x="348" y="660" type="curve" smooth="yes"/>
			<point x="205" y="660"/>
			<point x="126" y="573"/>
			<point x="126" y="472" type="curve" smooth="yes"/>
			<point x="126" y="396"/>
			<point x="161" y="350"/>
			<point x="232" y="305" type="curve" smooth="yes"/>
			<point x="273" y="279" type="line" smooth="yes"/>
			<point x="335" y="239"/>
			<point x="379" y="214"/>
			<point x="379" y="148" type="curve" smooth="yes"/>
			<point x="379" y="76"/>
			<point x="324" y="25"/>
			<point x="227" y="25" type="curve" smooth="yes"/>
			<point x="179" y="25"/>
			<point x="145" y="30"/>
			<point x="96" y="57" type="curve"/>
			<point x="143" y="15" type="line"/>
			<point x="137" y="95" type="line" smooth="yes"/>
			<point x="133" y="148"/>
			<point x="115" y="162"/>
			<point x="89" y="162" type="curve" smooth="yes"/>
			<point x="67" y="162"/>
			<point x="55" y="151"/>
			<point x="47" y="128" type="curve"/>
			<point x="54" y="27"/>
			<point x="113" y="-13"/>
		</contour>
		<contour>
			<point x="179" y="-115" type="line"/>
			<point x="217" y="-115" type="line"/>
			<point x="306" y="322" type="line"/>
			<point x="268" y="322" type="line"/>
		</contour>
		<contour>
			<point x="266" y="322" type="line"/>
			<point x="304" y="322" type="line"/>
			<point x="391" y="750" type="line"/>
			<point x="353" y="750" type="line"/>
		</contour>
	</outline>
</glyph>
<glyph name="ampersand" format="1">
	<unicode hex="0026"/>
	<advance width="681"/>
	<outline>
		<contour>
			<point x="301" y="-13" type="curve" smooth="yes"/>
			<point x="402" y="-13"/>
			<point x="515" y="39"/>
			<point x="515" y="162" type="curve" smooth="yes"/>
			<point x="515" y="215"/>
			<point x="489" y="259"/>
			<point x="418" y="270" type="curve"/>
			<point x="412" y="258" type="line"/>
			<point x="556" y="257"/>
			<point x="631" y="305"/>
			<point x="697" y="440" type="curve"/>
			<point x="619" y="469" type="line"/>
			<point x="592" y="351"/>
			<point x="524" y="289"/>
			<point x="422" y="289" type="curve" smooth="yes"/>
			<point x="364" y="289" type="line"/>
			<point x="357" y="252" type="line"/>
			<point x="394" y="252" type="line" smooth="yes"/>
			<point x="450" y="252"/>
			<point x="470" y="216"/>
			<point x="470" y="171" type="curve" smooth="yes"/>
			<point x="470" y="107"/>
			<point x="409" y="53"/>
			<point x="307" y="53" type="curve" smooth="yes"/>
			<point x="217" y="53"/>
			<point x="143" y="116"/>
			<point x="143" y="210" type="curve" smooth="yes"/>
			<point x="143" y="299"/>
			<point x="198" y="383"/>
			<point x="303" y="411" type="curve"/>
			<point x="285" y="441"/>
			<point x="279" y="465"/>
			<point x="279" y="506" type="curve" smooth="yes"/>
			<point x="279" y="575"/>
			<point x="342" y="653"/>
			<point x="434" y="653" type="curve" smooth="yes"/>
			<point x="448" y="653"/>
			<point x="458" y="652"/>
			<point x="471" y="648" type="curve"/>
			<point x="445" y="672" type="line"/>
			<point x="463" y="616" type="line" smooth="yes"/>
			<point x="473" y="586"/>
			<point x="490" y="570"/>
			<point x="513" y="570" type="curve" smooth="yes"/>
			<point x="532" y="570"/>
			<point x="545" y="579"/>
			<point x="551" y="597" type="curve"/>
			<point x="536" y="651"/>
			<point x="482" y="685"/>
			<point x="412" y="685" type="curve" smooth="yes"/>
			<point x="284" y="685"/>
			<point x="224" y="595"/>
			<point x="224" y="514" type="curve" smooth="yes"/>
			<point x="224" y="425"/>
			<point x="284" y="376"/>
			<point x="361" y="353" type="curve"/>
			<point x="384" y="359"/>
			<point x="398" y="370"/>
			<point x="398" y="391" type="curve" smooth="yes"/>
			<point x="398" y="419"/>
			<point x="369" y="434"/>
			<point x="316" y="434" type="curve" smooth="yes"/>
			<point x="200" y="434"/>
			<point x="75" y="331"/>
			<point x="75" y="200" type="curve" smooth="yes"/>
			<point x="75" y="79"/>
			<point x="152" y="-13"/>
		</contour>
	</outline>
</glyph>
<glyph name="quotesingle" format="1">
	<unicode hex="0027"/>
	<advance width="257"/>
	<outline>
		<contour>
			<point x="239" y="736" type="curve" smooth="yes"/>
			<point x="208" y="736"/>
			<point x="189" y="723"/>
			<point x="181" y="680" type="curve" smooth="yes"/>
			<point x="174" y="642"/>
			<point x="173" y="537"/>
			<point x="171" y="504" type="curve" smooth="yes"/>
			<point x="169" y="434" type="line"/>
			<point x="205" y="434" type="line"/>
			<point x="240" y="537"/>
			<point x="281" y="651"/>
			<point x="282" y="690" type="curve" smooth="yes"/>
			<point x="283" y="717"/>
			<point x="266" y="736"/>
		</contour>
	</outline>
</glyph>
<glyph name="asterisk" format="1">
	<unicode hex="002A"/>
	<advance width="440"/>
	<outline>
		<contour>
			<point x="272" y="750" type="curve" smooth="yes"/>
			<point x="248" y="750"/>
			<point x="239" y="733"/>
			<point x="239" y="717" type="curve" smooth="yes"/>
			<point x="239" y="695"/>
			<point x="256" y="649"/>
			<point x="287" y="560" type="curve"/>
			<point x="188" y="588"/>
			<point x="152" y="599"/>
			<point x="129" y="599" type="curve" smooth="yes"/>
			<point x="106" y="599"/>
			<point x="98" y="581"/>
			<point x="98" y="566" type="curve" smooth="yes"/>
			<point x="98" y="525"/>
			<point x="146" y="528"/>
			<point x="282" y="531" type="curve"/>
			<point x="221" y="439"/>
			<point x="193" y="409"/>
			<point x="193" y="382" type="curve" smooth="yes"/>
			<point x="193" y="359"/>
			<point x="207" y="351"/>
			<point x="222" y="351" type="curve" smooth="yes"/>
			<point x="255" y="351"/>
			<point x="271" y="402"/>
			<point x="308" y="519" type="curve"/>
			<point x="382" y="422"/>
			<point x="407" y="382"/>
			<point x="439" y="387" type="curve" smooth="yes"/>
			<point x="454" y="390"/>
			<point x="468" y="405"/>
			<point x="465" y="423" type="curve" smooth="yes"/>
			<point x="460" y="451"/>
			<point x="420" y="471"/>
			<point x="328" y="539" type="curve"/>
			<point x="447" y="583"/>
			<point x="492" y="589"/>
			<point x="492" y="624" type="curve" smooth="yes"/>
			<point x="492" y="648"/>
			<point x="477" y="657"/>
			<point x="462" y="657" type="curve" smooth="yes"/>
			<point x="435" y="657"/>
			<point x="400" y="627"/>
			<point x="314" y="564" type="curve"/>
			<point x="312" y="658"/>
			<point x="310" y="701"/>
			<point x="308" y="717" type="curve" smooth="yes"/>
			<point x="304" y="743"/>
			<point x="291" y="750"/>
		</contour>
	</outline>
</glyph>
<glyph name="plus" format="1">
	<unicode hex="002B"/>
	<advance width="530"/>
	<outline>
		<contour>
			<point x="251" y="77" type="line"/>
			<point x="311" y="77" type="line"/>
			<point x="311" y="578" type="line"/>
			<point x="251" y="578" type="line"/>
		</contour>
		<contour>
			<point x="517" y="302" type="line"/>
			<point x="517" y="358" type="line"/>
			<point x="45" y="358" type="line"/>
			<point x="45" y="302" type="line"/>
		</contour>
	</outline>
</glyph>
<glyph name="comma" format="1">
	<unicode hex="002C"/>
	<advance width="300"/>
	<outline>
		<contour>
			<point x="16" y="-150" type="line"/>
			<point x="112" y="-110"/>
			<point x="191" y="-21"/>
			<point x="191" y="74" type="curve" smooth="yes"/>
			<point x="191" y="91"/>
			<point x="187" y="103"/>
			<point x="180" y="114" type="curve"/>
			<point x="164" y="122"/>
			<point x="144" y="126"/>
			<point x="127" y="126" type="curve" smooth="yes"/>
			<point x="89" y="126"/>
			<point x="74" y="98"/>
			<point x="74" y="69" type="curve" smooth="yes"/>
			<point x="74" y="49"/>
			<point x="81" y="30"/>
			<point x="91" y="18" type="curve" smooth="yes"/>
			<point x="130" y="-29" type="line"/>
			<point x="128" y="0" type="line"/>
			<point x="94" y="-58"/>
			<point x="52" y="-96"/>
			<point x="0" y="-122" type="curve"/>
		</contour>
	</outline>
</glyph>
<glyph name="hyphen" format="1">
	<unicode hex="002D"/>
	<advance width="310"/>
	<outline>
		<contour>
			<point x="56" y="219" type="line"/>
			<point x="286" y="219" type="line"/>
			<point x="286" y="283" type="line"/>
			<point x="56" y="283" type="line"/>
		</contour>
	</outline>
</glyph>
<glyph name="period" format="1">
	<unicode hex="002E"/>
	<advance width="300"/>
	<outline>
		<contour>
			<point x="118" y="-12" type="curve" smooth="yes"/>
			<point x="160" y="-12"/>
			<point x="195" y="21"/>
			<point x="195" y="64" type="curve" smooth="yes"/>
			<point x="195" y="99"/>
			<point x="168" y="127"/>
			<point x="130" y="127" type="curve" smooth="yes"/>
			<point x="88" y="127"/>
			<point x="53" y="95"/>
			<point x="53" y="52" type="curve" smooth="yes"/>
			<point x="53" y="16"/>
			<point x="80" y="-12"/>
		</contour>
	</outline>
</glyph>
<glyph name="one" format="1">
	<unicode hex="0031"/>
	<advance width="510"/>
	<outline>
		<contour>
			<point x="174" y="603" type="line"/>
			<point x="166" y="563" type="line"/>
			<point x="335" y="577" type="line"/>
			<point x="311" y="603" type="line"/>
			<point x="189" y="0" type="line"/>
			<point x="262" y="0" type="line"/>
			<point x="275" y="70"/>
			<point x="289" y="141"/>
			<point x="303" y="211" type="curve" smooth="yes"/>
			<point x="362" y="503" type="line"/>
			<point x="395" y="646" type="line"/>
			<point x="384" y="656" type="line"/>
		</contour>
		<contour>
			<point x="267" y="50" type="line"/>
			<point x="210" y="50" type="line"/>
			<point x="58" y="35" type="line"/>
			<point x="51" y="0" type="line"/>
			<point x="412" y="0" type="line"/>
			<point x="420" y="35" type="line"/>
		</contour>
	</outline>
</glyph>
<glyph name="less" format="2">
	<unicode hex="003C"/>
	<advance width="530"/>
	<outline>
		<contour>
			<point x="86" y="308" type="line"/>
			<point x="448" y="97" type="line"/>
			<point x="476" y="146" type="line"/>
			<point x="141" y="335" type="line"/>
			<point x="141" y="325" type="line"/>
			<point x="476" y="514" type="line"/>
			<point x="448" y="563" type="line"/>
			<point x="86" y="352" type="line"/>
		</contour>
	</outline>
</glyph>
<glyph name="question" format="1">
	<unicode hex="003F"/>
	<advance width="444"/>
	<outline>
		<contour>
			<point x="61" y="45" type="curve" smooth="yes"/>
			<point x="61" y="11"/>
			<point x="86" y="-13"/>
			<point x="121" y="-13" type="curve" smooth="yes"/>
			<point x="154" y="-13"/>
			<point x="187" y="18"/>
			<point x="187" y="55" type="curve" smooth="yes"/>
			<point x="187" y="87"/>
			<point x="165" y="114"/>
			<point x="129" y="114" type="curve" smooth="yes"/>
			<point x="94" y="114"/>
			<point x="61" y="83"/>
		</contour>
		<contour>
			<point x="117" y="183" type="curve"/>
			<point x="152" y="180" type="line"/>
			<point x="162" y="262"/>
			<point x="175" y="289"/>
			<point x="200" y="314" type="curve" smooth="yes"/>
			<point x="214" y="328"/>
			<point x="241" y="342"/>
			<point x="326" y="392" type="curve" smooth="yes"/>
			<point x="441" y="460"/>
			<point x="489" y="492"/>
			<point x="489" y="571" type="curve" smooth="yes"/>
			<point x="489" y="648"/>
			<point x="414" y="685"/>
			<point x="326" y="685" type="curve" smooth="yes"/>
			<point x="231" y="685"/>
			<point x="188" y="644"/>
			<point x="176" y="600" type="curve"/>
			<point x="176" y="580"/>
			<point x="194" y="559"/>
			<point x="221" y="559" type="curve" smooth="yes"/>
			<point x="242" y="559"/>
			<point x="259" y="567"/>
			<point x="267" y="595" type="curve" smooth="yes"/>
			<point x="289" y="671" type="line"/>
			<point x="222" y="651" type="line"/>
			<point x="243" y="653"/>
			<point x="264" y="655"/>
			<point x="294" y="656" type="curve" smooth="yes"/>
			<point x="384" y="658"/>
			<point x="422" y="628"/>
			<point x="422" y="584" type="curve" smooth="yes"/>
			<point x="422" y="545"/>
			<point x="400" y="508"/>
			<point x="307" y="456" type="curve" smooth="yes"/>
			<point x="208" y="400"/>
			<point x="186" y="383"/>
			<point x="165" y="362" type="curve" smooth="yes"/>
			<point x="134" y="331"/>
			<point x="121" y="287"/>
		</contour>
	</outline>
</glyph>
<glyph name="at" format="1">
	<unicode hex="0040"/>
	<advance width="832"/>
	<outline>
		<contour>
			<point x="343" y="43" type="curve" smooth="yes"/>
			<point x="401" y="43"/>
			<point x="462" y="103"/>
			<point x="524" y="173" type="curve"/>
			<point x="520" y="188" type="line"/>
			<point x="445" y="124"/>
			<point x="404" y="113"/>
			<point x="368" y="113" type="curve" smooth="yes"/>
			<point x="334" y="113"/>
			<point x="314" y="144"/>
			<point x="314" y="197" type="curve" smooth="yes"/>
			<point x="314" y="343"/>
			<point x="426" y="416"/>
			<point x="487" y="416" type="curve" smooth="yes"/>
			<point x="516" y="416"/>
			<point x="543" y="404"/>
			<point x="561" y="362" type="curve"/>
			<point x="595" y="414" type="line"/>
			<point x="564" y="460"/>
			<point x="537" y="474"/>
			<point x="501" y="474" type="curve" smooth="yes"/>
			<point x="400" y="474"/>
			<point x="242" y="334"/>
			<point x="242" y="173" type="curve" smooth="yes"/>
			<point x="242" y="81"/>
			<point x="288" y="43"/>
		</contour>
		<contour>
			<point x="46" y="168" type="curve" smooth="yes"/>
			<point x="46" y="-35"/>
			<point x="173" y="-155"/>
			<point x="373" y="-155" type="curve" smooth="yes"/>
			<point x="431" y="-155"/>
			<point x="504" y="-143"/>
			<point x="564" y="-113" type="curve"/>
			<point x="555" y="-84" type="line"/>
			<point x="509" y="-105"/>
			<point x="459" y="-115"/>
			<point x="398" y="-115" type="curve" smooth="yes"/>
			<point x="227" y="-115"/>
			<point x="107" y="-9"/>
			<point x="107" y="183" type="curve" smooth="yes"/>
			<point x="107" y="417"/>
			<point x="296" y="606"/>
			<point x="517" y="606" type="curve" smooth="yes"/>
			<point x="671" y="606"/>
			<point x="762" y="505"/>
			<point x="762" y="357" type="curve" smooth="yes"/>
			<point x="762" y="158"/>
			<point x="662" y="89"/>
			<point x="585" y="89" type="curve" smooth="yes"/>
			<point x="549" y="89"/>
			<point x="530" y="118"/>
			<point x="545" y="167" type="curve" smooth="yes"/>
			<point x="636" y="469" type="line"/>
			<point x="619" y="485" type="line"/>
			<point x="558" y="433" type="line"/>
			<point x="477" y="149" type="line"/>
			<point x="479" y="134" type="line"/>
			<point x="478" y="83"/>
			<point x="511" y="43"/>
			<point x="572" y="43" type="curve" smooth="yes"/>
			<point x="662" y="43"/>
			<point x="819" y="127"/>
			<point x="819" y="355" type="curve" smooth="yes"/>
			<point x="819" y="513"/>
			<point x="730" y="646"/>
			<point x="527" y="646" type="curve" smooth="yes"/>
			<point x="279" y="646"/>
			<point x="46" y="451"/>
		</contour>
	</outline>
</glyph>
<glyph name="A" format="1">
	<unicode hex="0041"/>
	<advance width="676"/>
	<outline>
		<contour>
			<point x="-29" y="0" type="line"/>
			<point x="195" y="0" type="line"/>
			<point x="203" y="40" type="line"/>
			<point x="104" y="55" type="line"/>
			<point x="86" y="55" type="line"/>
			<point x="-21" y="40" type="line"/>
		</contour>
		<contour>
			<point x="33" y="0" type="line"/>
			<point x="88" y="0" type="line"/>
			<point x="403" y="595" type="line"/>
			<point x="389" y="595" type="line"/>
			<point x="469" y="0" type="line"/>
			<point x="469" y="0"/>
			<point x="557" y="0"/>
			<point x="557" y="0" type="curve"/>
			<point x="463" y="670" type="line"/>
			<point x="463" y="670"/>
			<point x="406" y="670"/>
			<point x="406" y="670" type="curve"/>
		</contour>
		<contour>
			<point x="195" y="244" type="line"/>
			<point x="481" y="244" type="line"/>
			<point x="494" y="290" type="line"/>
			<point x="209" y="290" type="line"/>
		</contour>
		<contour>
			<point x="367" y="0" type="line"/>
			<point x="631" y="0" type="line"/>
			<point x="639" y="40" type="line"/>
			<point x="520" y="55" type="line"/>
			<point x="502" y="55" type="line"/>
			<point x="375" y="40" type="line"/>
		</contour>
		<contour>
			<point name="aboveUC" x="432" y="691" type="move"/>
		</contour>
		<contour>
			<point name="belowLC" x="282" y="-22" type="move"/>
		</contour>
		<contour>
			<point name="ogonek" x="526" y="0" type="move"/>
		</contour>
	</outline>
</glyph>
<glyph name="C" format="2">
	<unicode hex="0043"/>
	<advance width="593"/>
	<outline>
		<contour>
			<point x="330" y="-15" type="curve" smooth="yes"/>
			<point x="415" y="-15"/>
			<point x="471" y="7"/>
			<point x="524" y="30" type="curve"/>
			<point x="552" y="175" type="line"/>
			<point x="493" y="175" type="line"/>
			<point x="445" y="30" type="line"/>
			<point x="501" y="71" type="line"/>
			<point x="459" y="50"/>
			<point x="412" y="35"/>
			<point x="363" y="35" type="curve" smooth="yes"/>
			<point x="247" y="35"/>
			<point x="148" y="116"/>
			<point x="148" y="285" type="curve" smooth="yes"/>
			<point x="148" y="475"/>
			<point x="269" y="635"/>
			<point x="430" y="635" type="curve" smooth="yes"/>
			<point x="479" y="635"/>
			<point x="535" y="620"/>
			<point x="570" y="592" type="curve"/>
			<point x="529" y="632" type="line"/>
			<point x="529" y="493" type="line"/>
			<point x="585" y="493" type="line"/>
			<point x="608" y="632" type="line"/>
			<point x="546" y="672"/>
			<point x="493" y="685"/>
			<point x="440" y="685" type="curve" smooth="yes"/>
			<point x="232" y="685"/>
			<point x="58" y="502"/>
			<point x="58" y="281" type="curve" smooth="yes"/>
			<point x="58" y="104"/>
			<point x="163" y="-15"/>
		</contour>
	</outline>
	<anchor name="aboveUC" x="439" y="691"/>
	<anchor name="belowLC" x="319" y="-22"/>
	<anchor name="baseLC" x="342" y="0"/>
</glyph>
<glyph name="F" format="2">
	<unicode hex="0046"/>
	<advance width="550"/>
	<outline>
		<contour>
			<point x="16" y="0" type="line"/>
			<point x="285" y="0" type="line"/>
			<point x="293" y="40" type="line"/>
			<point x="169" y="55" type="line"/>
			<point x="151" y="55" type="line"/>
			<point x="24" y="40" type="line"/>
		</contour>
		<contour>
			<point x="101" y="0" type="line"/>
			<point x="189" y="0" type="line"/>
			<point x="205" y="103"/>
			<point x="223" y="207"/>
			<point x="242" y="310" type="curve" smooth="yes"/>
			<point x="310" y="670" type="line"/>
			<point x="222" y="670" type="line"/>
			<point x="206" y="567"/>
			<point x="188" y="463"/>
			<point x="169" y="360" type="curve" smooth="yes"/>
		</contour>
		<contour>
			<point x="122" y="630" type="line"/>
			<point x="243" y="615" type="line"/>
			<point x="255" y="615" type="line"/>
			<point x="266" y="670" type="line"/>
			<point x="130" y="670" type="line"/>
		</contour>
		<contour>
			<point x="204" y="319" type="line"/>
			<point x="429" y="319" type="line"/>
			<point x="437" y="365" type="line"/>
			<point x="213" y="365" type="line"/>
		</contour>
		<contour>
			<point x="256" y="620" type="line"/>
			<point x="562" y="620" type="line"/>
			<point x="526" y="670" type="line"/>
			<point x="526" y="492" type="line"/>
			<point x="576" y="492" type="line"/>
			<point x="605" y="670" type="line"/>
			<point x="266" y="670" type="line"/>
		</contour>
		<contour>
			<point x="397" y="214" type="line"/>
			<point x="439" y="214" type="line"/>
			<point x="483" y="461" type="line"/>
			<point x="441" y="461" type="line"/>
			<point x="404" y="355" type="line"/>
			<point x="401" y="335" type="line"/>
		</contour>
	</outline>
	<anchor name="aboveUC" x="393" y="691"/>
	<anchor name="belowLC" x="147" y="-22"/>
</glyph>
<glyph name="G" format="2">
	<unicode hex="0047"/>
	<advance width="655"/>
	<outline>
		<contour>
			<point x="58" y="277" type="curve" smooth="yes"/>
			<point x="58" y="104"/>
			<point x="167" y="-15"/>
			<point x="347" y="-15" type="curve" smooth="yes"/>
			<point x="422" y="-15"/>
			<point x="483" y="2"/>
			<point x="545" y="30" type="curve"/>
			<point x="598" y="318" type="line"/>
			<point x="510" y="318" type="line"/>
			<point x="498" y="243"/>
			<point x="486" y="166"/>
			<point x="472" y="90" type="curve" smooth="yes"/>
			<point x="461" y="31" type="line"/>
			<point x="514" y="65" type="line"/>
			<point x="468" y="46"/>
			<point x="422" y="35"/>
			<point x="373" y="35" type="curve" smooth="yes"/>
			<point x="258" y="35"/>
			<point x="148" y="121"/>
			<point x="148" y="283" type="curve" smooth="yes"/>
			<point x="148" y="475"/>
			<point x="264" y="635"/>
			<point x="440" y="635" type="curve" smooth="yes"/>
			<point x="493" y="635"/>
			<point x="553" y="621"/>
			<point x="590" y="592" type="curve"/>
			<point x="549" y="632" type="line"/>
			<point x="549" y="493" type="line"/>
			<point x="605" y="493" type="line"/>
			<point x="628" y="632" type="line"/>
			<point x="564" y="674"/>
			<point x="514" y="685"/>
			<point x="440" y="685" type="curve" smooth="yes"/>
			<point x="236" y="685"/>
			<point x="58" y="513"/>
		</contour>
		<contour>
			<point x="402" y="278" type="line"/>
			<point x="523" y="263" type="line"/>
			<point x="542" y="263" type="line"/>
			<point x="661" y="278" type="line"/>
			<point x="668" y="318" type="line"/>
			<point x="409" y="318" type="line"/>
		</contour>
	</outline>
	<anchor name="aboveUC" x="433" y="691"/>
	<anchor name="belowLC" x="353" y="-22"/>
</glyph>
<glyph name="J" format="1">
	<unicode hex="004A"/>
	<advance width="410"/>
	<outline>
		<contour>
			<point x="-33" y="7" type="curve"/>
			<point x="-28" y="-28"/>
			<point x="12" y="-44"/>
			<point x="58" y="-44" type="curve" smooth="yes"/>
			<point x="128" y="-44"/>
			<point x="217" y="5"/>
			<point x="258" y="101" type="curve" smooth="yes"/>
			<point x="275" y="139"/>
			<point x="288" y="187"/>
			<point x="300" y="261" type="curve" smooth="yes"/>
			<point x="368" y="670" type="line"/>
			<point x="280" y="670" type="line"/>
			<point x="266" y="567"/>
			<point x="250" y="463"/>
			<point x="234" y="360" type="curve" smooth="yes"/>
			<point x="214" y="234"/>
			<point x="208" y="187"/>
			<point x="199" y="140" type="curve" smooth="yes"/>
			<point x="183" y="62"/>
			<point x="145" y="17"/>
			<point x="91" y="-9" type="curve"/>
			<point x="123" y="-2" type="line"/>
			<point x="100" y="22" type="line" smooth="yes"/>
			<point x="77" y="43"/>
			<point x="57" y="52"/>
			<point x="34" y="52" type="curve" smooth="yes"/>
			<point x="2" y="52"/>
			<point x="-25" y="37"/>
		</contour>
		<contour>
			<point x="177" y="630" type="line"/>
			<point x="303" y="615" type="line"/>
			<point x="322" y="615" type="line"/>
			<point x="451" y="630" type="line"/>
			<point x="459" y="670" type="line"/>
			<point x="185" y="670" type="line"/>
		</contour>
		<contour>
			<point name="aboveUC" x="324" y="691" type="move"/>
		</contour>
		<contour>
			<point name="belowLC" x="86" y="-64" type="move"/>
		</contour>
	</outline>
</glyph>
<glyph name="K" format="2">
	<unicode hex="004B"/>
	<advance width="663"/>
	<outline>
		<contour>
			<point x="16" y="0" type="line"/>
			<point x="280" y="0" type="line"/>
			<point x="288" y="40" type="line"/>
			<point x="169" y="55" type="line"/>
			<point x="151" y="55" type="line"/>
			<point x="24" y="40" type="line"/>
		</contour>
		<contour>
			<point x="101" y="0" type="line"/>
			<point x="189" y="0" type="line"/>
			<point x="205" y="103"/>
			<point x="223" y="207"/>
			<point x="242" y="310" type="curve" smooth="yes"/>
			<point x="310" y="670" type="line"/>
			<point x="222" y="670" type="line"/>
			<point x="206" y="567"/>
			<point x="188" y="463"/>
			<point x="169" y="360" type="curve" smooth="yes"/>
		</contour>
		<contour>
			<point x="122" y="630" type="line"/>
			<point x="243" y="615" type="line"/>
			<point x="262" y="615" type="line"/>
			<point x="386" y="630" type="line"/>
			<point x="394" y="670" type="line"/>
			<point x="130" y="670" type="line"/>
		</contour>
		<contour>
			<point x="179" y="226" type="line"/>
			<point x="664" y="670" type="line"/>
			<point x="604" y="670" type="line"/>
			<point x="187" y="285" type="line"/>
		</contour>
		<contour>
			<point x="505" y="0" type="line"/>
			<point x="596" y="0" type="line"/>
			<point x="369" y="423" type="line"/>
			<point x="311" y="365" type="line"/>
		</contour>
		<contour>
			<point x="396" y="0" type="line"/>
			<point x="646" y="0" type="line"/>
			<point x="651" y="40" type="line"/>
			<point x="539" y="55" type="line"/>
			<point x="520" y="55" type="line"/>
			<point x="401" y="40" type="line"/>
		</contour>
		<contour>
			<point x="484" y="630" type="line"/>
			<point x="572" y="615" type="line"/>
			<point x="591" y="615" type="line"/>
			<point x="704" y="630" type="line"/>
			<point x="712" y="670" type="line"/>
			<point x="492" y="670" type="line"/>
		</contour>
	</outline>
	<anchor name="aboveUC" x="433" y="691"/>
	<anchor name="belowLC" x="332" y="-22"/>
</glyph>
<glyph name="L" format="1">
	<unicode hex="004C"/>
	<advance width="568"/>
	<outline>
		<contour>
			<point x="16" y="0" type="line"/>
			<point x="142" y="0" type="line"/>
			<point x="152" y="55" type="line"/>
			<point x="144" y="55" type="line"/>
			<point x="24" y="40" type="line"/>
		</contour>
		<contour>
			<point x="101" y="0" type="line"/>
			<point x="189" y="0" type="line"/>
			<point x="205" y="103"/>
			<point x="223" y="207"/>
			<point x="242" y="310" type="curve" smooth="yes"/>
			<point x="310" y="670" type="line"/>
			<point x="222" y="670" type="line"/>
			<point x="206" y="567"/>
			<point x="188" y="463"/>
			<point x="169" y="360" type="curve" smooth="yes"/>
		</contour>
		<contour>
			<point x="122" y="630" type="line"/>
			<point x="243" y="615" type="line"/>
			<point x="272" y="615" type="line"/>
			<point x="396" y="630" type="line"/>
			<point x="404" y="670" type="line"/>
			<point x="130" y="670" type="line"/>
		</contour>
		<contour>
			<point x="142" y="0" type="line"/>
			<point x="521" y="0" type="line"/>
			<point x="557" y="188" type="line"/>
			<point x="502" y="188" type="line"/>
			<point x="436" y="0" type="line"/>
			<point x="498" y="50" type="line"/>
			<point x="151" y="50" type="line"/>
		</contour>
		<contour>
			<point name="aboveUC" x="259" y="691" type="move"/>
		</contour>
		<contour>
			<point name="belowLC" x="296" y="-22" type="move"/>
		</contour>
	</outline>
</glyph>
<glyph name="O" format="1">
	<unicode hex="004F"/>
	<advance width="660"/>
	<outline>
		<contour>
			<point x="302" y="-15" type="curve" smooth="yes"/>
			<point x="504" y="-15"/>
			<point x="651" y="179"/>
			<point x="651" y="404" type="curve" smooth="yes"/>
			<point x="651" y="572"/>
			<point x="554" y="685"/>
			<point x="415" y="685" type="curve" smooth="yes"/>
			<point x="218" y="685"/>
			<point x="69" y="491"/>
			<point x="69" y="265" type="curve" smooth="yes"/>
			<point x="69" y="89"/>
			<point x="167" y="-15"/>
		</contour>
		<contour>
			<point x="314" y="35" type="curve" smooth="yes"/>
			<point x="210" y="35"/>
			<point x="156" y="126"/>
			<point x="156" y="265" type="curve" smooth="yes"/>
			<point x="156" y="473"/>
			<point x="265" y="635"/>
			<point x="405" y="635" type="curve" smooth="yes"/>
			<point x="511" y="635"/>
			<point x="564" y="547"/>
			<point x="564" y="404" type="curve" smooth="yes"/>
			<point x="564" y="197"/>
			<point x="455" y="35"/>
		</contour>
		<contour>
			<point name="aboveUC" x="417" y="691" type="move"/>
		</contour>
		<contour>
			<point name="belowLC" x="304" y="-22" type="move"/>
		</contour>
		<contour>
			<point name="ogonek" x="392" y="0" type="move"/>
		</contour>
		<contour>
			<point name="hornLC" x="568" y="680" type="move"/>
		</contour>
	</outline>
</glyph>
<glyph name="P" format="1">
	<unicode hex="0050"/>
	<advance width="562"/>
	<outline>
		<contour>
			<point x="16" y="0" type="line"/>
			<point x="285" y="0" type="line"/>
			<point x="293" y="40" type="line"/>
			<point x="169" y="55" type="line"/>
			<point x="151" y="55" type="line"/>
			<point x="24" y="40" type="line"/>
		</contour>
		<contour>
			<point x="101" y="0" type="line"/>
			<point x="189" y="0" type="line"/>
			<point x="205" y="103"/>
			<point x="223" y="207"/>
			<point x="242" y="310" type="curve" smooth="yes"/>
			<point x="310" y="670" type="line"/>
			<point x="222" y="670" type="line"/>
			<point x="206" y="567"/>
			<point x="188" y="463"/>
			<point x="169" y="360" type="curve" smooth="yes"/>
		</contour>
		<contour>
			<point x="122" y="630" type="line"/>
			<point x="243" y="615" type="line"/>
			<point x="258" y="615" type="line"/>
			<point x="269" y="670" type="line"/>
			<point x="130" y="670" type="line"/>
		</contour>
		<contour>
			<point x="188" y="260" type="line"/>
			<point x="303" y="260" type="line" smooth="yes"/>
			<point x="483" y="260"/>
			<point x="584" y="359"/>
			<point x="584" y="495" type="curve" smooth="yes"/>
			<point x="584" y="598"/>
			<point x="509" y="670"/>
			<point x="358" y="670" type="curve" smooth="yes"/>
			<point x="269" y="670" type="line"/>
			<point x="260" y="624" type="line"/>
			<point x="343" y="624" type="line" smooth="yes"/>
			<point x="440" y="624"/>
			<point x="493" y="575"/>
			<point x="493" y="483" type="curve" smooth="yes"/>
			<point x="493" y="379"/>
			<point x="430" y="306"/>
			<point x="301" y="306" type="curve" smooth="yes"/>
			<point x="197" y="306" type="line"/>
		</contour>
		<contour>
			<point name="aboveUC" x="371" y="691" type="move"/>
		</contour>
		<contour>
			<point name="belowLC" x="140" y="-22" type="move"/>
		</contour>
	</outline>
</glyph>
<glyph name="S" format="2">
	<unicode hex="0053"/>
	<advance width="494"/>
	<outline>
		<contour>
			<point x="34" y="30" type="line"/>
			<point x="76" y="2"/>
			<point x="151" y="-15"/>
			<point x="211" y="-15" type="curve" smooth="yes"/>
			<point x="344" y="-15"/>
			<point x="433" y="61"/>
			<point x="433" y="177" type="curve" smooth="yes"/>
			<point x="433" y="237"/>
			<point x="408" y="289"/>
			<point x="295" y="377" type="curve" smooth="yes"/>
			<point x="224" y="432"/>
			<point x="197" y="471"/>
			<point x="197" y="524" type="curve" smooth="yes"/>
			<point x="197" y="599"/>
			<point x="253" y="635"/>
			<point x="352" y="635" type="curve" smooth="yes"/>
			<point x="381" y="635"/>
			<point x="410" y="631"/>
			<point x="460" y="606" type="curve"/>
			<point x="417" y="640" type="line"/>
			<point x="424" y="500" type="line"/>
			<point x="482" y="500" type="line"/>
			<point x="506" y="640" type="line"/>
			<point x="449" y="673"/>
			<point x="394" y="685"/>
			<point x="340" y="685" type="curve" smooth="yes"/>
			<point x="213" y="685"/>
			<point x="123" y="608"/>
			<point x="123" y="503" type="curve" smooth="yes"/>
			<point x="123" y="441"/>
			<point x="149" y="384"/>
			<point x="251" y="306" type="curve" smooth="yes"/>
			<point x="341" y="237"/>
			<point x="355" y="201"/>
			<point x="355" y="156" type="curve" smooth="yes"/>
			<point x="355" y="86"/>
			<point x="308" y="35"/>
			<point x="207" y="35" type="curve" smooth="yes"/>
			<point x="160" y="35"/>
			<point x="113" y="45"/>
			<point x="75" y="67" type="curve"/>
			<point x="123" y="32" type="line"/>
			<point x="110" y="172" type="line"/>
			<point x="53" y="172" type="line"/>
		</contour>
	</outline>
	<anchor name="aboveUC" x="354" y="691"/>
	<anchor name="belowLC" x="210" y="-22"/>
	<anchor name="baseLC" x="205" y="0"/>
</glyph>
<glyph name="T" format="1">
	<unicode hex="0054"/>
	<advance width="568"/>
	<outline>
		<contour>
			<point x="76" y="492" type="line"/>
			<point x="126" y="492" type="line"/>
			<point x="191" y="670" type="line"/>
			<point x="137" y="620" type="line"/>
			<point x="590" y="620" type="line"/>
			<point x="554" y="670" type="line"/>
			<point x="554" y="492" type="line"/>
			<point x="604" y="492" type="line"/>
			<point x="633" y="670" type="line"/>
			<point x="112" y="670" type="line"/>
		</contour>
		<contour>
			<point x="115" y="0" type="line"/>
			<point x="399" y="0" type="line"/>
			<point x="407" y="40" type="line"/>
			<point x="278" y="55" type="line"/>
			<point x="260" y="55" type="line"/>
			<point x="123" y="40" type="line"/>
		</contour>
		<contour>
			<point x="210" y="0" type="line"/>
			<point x="298" y="0" type="line"/>
			<point x="314" y="103"/>
			<point x="332" y="207"/>
			<point x="351" y="310" type="curve" smooth="yes"/>
			<point x="419" y="670" type="line"/>
			<point x="331" y="670" type="line"/>
			<point x="315" y="567"/>
			<point x="297" y="463"/>
			<point x="278" y="360" type="curve" smooth="yes"/>
		</contour>
		<contour>
			<point name="aboveUC" x="381" y="691" type="move"/>
		</contour>
		<contour>
			<point name="belowLC" x="253" y="-22" type="move"/>
		</contour>
		<contour>
			<point name="baseLC" x="257" y="0" type="move"/>
		</contour>
	</outline>
</glyph>
<glyph name="W" format="1">
	<unicode hex="0057"/>
	<advance width="872"/>
	<outline>
		<contour>
			<point x="62" y="630" type="line"/>
			<point x="183" y="615" type="line"/>
			<point x="202" y="615" type="line"/>
			<point x="322" y="630" type="line"/>
			<point x="330" y="670" type="line"/>
			<point x="70" y="670" type="line"/>
		</contour>
		<contour>
			<point x="197" y="-10" type="line"/>
			<point x="197" y="-10"/>
			<point x="236" y="-10"/>
			<point x="236" y="-10" type="curve"/>
			<point x="526" y="587" type="line"/>
			<point x="491" y="564" type="line"/>
			<point x="566" y="-10" type="line"/>
			<point x="604" y="-10" type="line"/>
			<point x="915" y="670" type="line"/>
			<point x="863" y="670" type="line"/>
			<point x="603" y="96" type="line"/>
			<point x="619" y="106" type="line"/>
			<point x="557" y="670" type="line"/>
			<point x="515" y="670" type="line"/>
			<point x="239" y="96" type="line"/>
			<point x="258" y="106" type="line"/>
			<point x="225" y="670" type="line"/>
			<point x="136" y="670" type="line"/>
		</contour>
		<contour>
			<point x="393" y="630" type="line"/>
			<point x="513" y="615" type="line"/>
			<point x="532" y="615" type="line"/>
			<point x="656" y="630" type="line"/>
			<point x="664" y="670" type="line"/>
			<point x="401" y="670" type="line"/>
		</contour>
		<contour>
			<point x="750" y="630" type="line"/>
			<point x="851" y="615" type="line"/>
			<point x="870" y="615" type="line"/>
			<point x="974" y="630" type="line"/>
			<point x="982" y="670" type="line"/>
			<point x="758" y="670" type="line"/>
		</contour>
		<contour>
			<point name="aboveUC" x="520" y="691" type="move"/>
		</contour>
		<contour>
			<point name="belowLC" x="409" y="-2" type="move"/>
		</contour>
	</outline>
</glyph>
<glyph name="X" format="1">
	<unicode hex="0058"/>
	<advance width="700"/>
	<outline>
		<contour>
			<point x="-7" y="0" type="line"/>
			<point x="246" y="0" type="line"/>
			<point x="254" y="40" type="line"/>
			<point x="146" y="55" type="line"/>
			<point x="128" y="55" type="line"/>
			<point x="1" y="40" type="line"/>
		</contour>
		<contour>
			<point x="56" y="0" type="line"/>
			<point x="56" y="0"/>
			<point x="115" y="0"/>
			<point x="115" y="0" type="curve"/>
			<point x="378" y="324" type="line"/>
			<point x="352" y="350" type="line"/>
		</contour>
		<contour>
			<point x="141" y="630" type="line"/>
			<point x="262" y="615" type="line"/>
			<point x="281" y="615" type="line"/>
			<point x="405" y="630" type="line"/>
			<point x="413" y="670" type="line"/>
			<point x="149" y="670" type="line"/>
		</contour>
		<contour>
			<point x="470" y="0" type="line"/>
			<point x="561" y="0" type="line"/>
			<point x="295" y="670" type="line"/>
			<point x="205" y="670" type="line"/>
		</contour>
		<contour>
			<point x="364" y="0" type="line"/>
			<point x="633" y="0" type="line"/>
			<point x="641" y="40" type="line"/>
			<point x="522" y="55" type="line"/>
			<point x="504" y="55" type="line"/>
			<point x="372" y="40" type="line"/>
		</contour>
		<contour>
			<point x="354" y="346" type="line"/>
			<point x="380" y="320" type="line"/>
			<point x="675" y="670" type="line"/>
			<point x="675" y="670"/>
			<point x="617" y="670"/>
			<point x="617" y="670" type="curve"/>
		</contour>
		<contour>
			<point x="476" y="630" type="line"/>
			<point x="587" y="615" type="line"/>
			<point x="606" y="615" type="line"/>
			<point x="720" y="630" type="line"/>
			<point x="728" y="670" type="line"/>
			<point x="484" y="670" type="line"/>
		</contour>
		<contour>
			<point name="aboveUC" x="447" y="691" type="move"/>
		</contour>
		<contour>
			<point name="belowLC" x="309" y="-22" type="move"/>
		</contour>
	</outline>
</glyph>
<glyph name="Z" format="1">
	<unicode hex="005A"/>
	<advance width="551"/>
	<outline>
		<contour>
			<point x="5" y="0" type="line"/>
			<point x="77" y="0" type="line"/>
			<point x="586" y="635" type="line"/>
			<point x="593" y="670" type="line"/>
			<point x="520" y="670" type="line"/>
			<point x="12" y="35" type="line"/>
		</contour>
		<contour>
			<point x="93" y="492" type="line"/>
			<point x="151" y="492" type="line"/>
			<point x="214" y="670" type="line"/>
			<point x="152" y="620" type="line"/>
			<point x="547" y="620" type="line"/>
			<point x="557" y="670" type="line"/>
			<point x="127" y="670" type="line"/>
		</contour>
		<contour>
			<point x="52" y="0" type="line"/>
			<point x="488" y="0" type="line"/>
			<point x="523" y="178" type="line"/>
			<point x="464" y="178" type="line"/>
			<point x="402" y="0" type="line"/>
			<point x="463" y="50" type="line"/>
			<point x="463" y="50"/>
			<point x="61" y="50"/>
			<point x="61" y="50" type="curve"/>
		</contour>
		<contour>
			<point name="aboveUC" x="357" y="691" type="move"/>
		</contour>
		<contour>
			<point name="belowLC" x="263" y="-22" type="move"/>
		</contour>
	</outline>
</glyph>
<glyph name="asciicircum" format="1">
	<unicode hex="005E"/>
	<advance width="530"/>
	<outline>
		<contour>
			<point x="141" y="243" type="line"/>
			<point x="184" y="210" type="line"/>
			<point x="334" y="448" type="line"/>
			<point x="301" y="448" type="line"/>
			<point x="451" y="210" type="line"/>
			<point x="494" y="243" type="line"/>
			<point x="349" y="480" type="line"/>
			<point x="286" y="480" type="line"/>
		</contour>
	</outline>
</glyph>
<glyph name="a" format="2">
	<unicode hex="0061"/>
	<advance width="521"/>
	<outline>
		<contour>
			<point x="140" y="-13" type="curve" smooth="yes"/>
			<point x="211" y="-13"/>
			<point x="300" y="67"/>
			<point x="370" y="171" type="curve"/>
			<point x="361" y="193" type="line"/>
			<point x="273" y="88"/>
			<point x="223" y="55"/>
			<point x="181" y="55" type="curve" smooth="yes"/>
			<point x="145" y="55"/>
			<point x="121" y="84"/>
			<point x="121" y="145" type="curve" smooth="yes"/>
			<point x="121" y="234"/>
			<point x="159" y="312"/>
			<point x="207" y="362" type="curve" smooth="yes"/>
			<point x="244" y="400"/>
			<point x="286" y="421"/>
			<point x="318" y="421" type="curve" smooth="yes"/>
			<point x="353" y="421"/>
			<point x="387" y="400"/>
			<point x="412" y="379" type="curve"/>
			<point x="448" y="404" type="line"/>
			<point x="422" y="450"/>
			<point x="396" y="487"/>
			<point x="353" y="487" type="curve" smooth="yes"/>
			<point x="225" y="487"/>
			<point x="45" y="278"/>
			<point x="45" y="104" type="curve" smooth="yes"/>
			<point x="45" y="22"/>
			<point x="92" y="-13"/>
		</contour>
		<contour>
			<point x="362" y="-13" type="curve" smooth="yes"/>
			<point x="429" y="-13"/>
			<point x="491" y="51"/>
			<point x="531" y="109" type="curve"/>
			<point x="507" y="128" type="line"/>
			<point x="472" y="85"/>
			<point x="433" y="55"/>
			<point x="408" y="55" type="curve" smooth="yes"/>
			<point x="395" y="55"/>
			<point x="384" y="63"/>
			<point x="384" y="77" type="curve" smooth="yes"/>
			<point x="384" y="89"/>
			<point x="387" y="110"/>
			<point x="393" y="135" type="curve" smooth="yes"/>
			<point x="473" y="488" type="line"/>
			<point x="455" y="497" type="line"/>
			<point x="389" y="442" type="line"/>
			<point x="321" y="127" type="line" smooth="yes"/>
			<point x="314" y="94"/>
			<point x="311" y="73"/>
			<point x="311" y="44" type="curve" smooth="yes"/>
			<point x="311" y="5"/>
			<point x="335" y="-13"/>
		</contour>
	</outline>
	<anchor name="aboveLC" x="352" y="506"/>
	<anchor name="belowLC" x="217" y="-22"/>
	<anchor name="ogonek" x="400" y="0"/>
</glyph>
<glyph name="b" format="1">
	<unicode hex="0062"/>
	<advance width="488"/>
	<outline>
		<contour>
			<point x="163" y="-13" type="curve" smooth="yes"/>
			<point x="325" y="-13"/>
			<point x="490" y="196"/>
			<point x="490" y="364" type="curve" smooth="yes"/>
			<point x="490" y="454"/>
			<point x="448" y="487"/>
			<point x="399" y="487" type="curve" smooth="yes"/>
			<point x="326" y="487"/>
			<point x="222" y="412"/>
			<point x="159" y="293" type="curve"/>
			<point x="171" y="288" type="line"/>
			<point x="244" y="373"/>
			<point x="307" y="421"/>
			<point x="355" y="421" type="curve" smooth="yes"/>
			<point x="392" y="421"/>
			<point x="416" y="389"/>
			<point x="416" y="324" type="curve" smooth="yes"/>
			<point x="416" y="242"/>
			<point x="380" y="156"/>
			<point x="326" y="104" type="curve" smooth="yes"/>
			<point x="289" y="69"/>
			<point x="248" y="50"/>
			<point x="207" y="50" type="curve" smooth="yes"/>
			<point x="175" y="50"/>
			<point x="157" y="70"/>
			<point x="157" y="104" type="curve" smooth="yes"/>
			<point x="157" y="142"/>
			<point x="161" y="167"/>
			<point x="177" y="243" type="curve" smooth="yes"/>
			<point x="195" y="328" type="line"/>
			<point x="198" y="343" type="line"/>
			<point x="278" y="733" type="line"/>
			<point x="267" y="741" type="line"/>
			<point x="95" y="691" type="line"/>
			<point x="90" y="662" type="line"/>
			<point x="207" y="654" type="line"/>
			<point x="193" y="671" type="line"/>
			<point x="104" y="226" type="line" smooth="yes"/>
			<point x="91" y="159"/>
			<point x="81" y="111"/>
			<point x="81" y="69" type="curve" smooth="yes"/>
			<point x="81" y="18"/>
			<point x="119" y="-13"/>
		</contour>
		<contour>
			<point name="aboveLC" x="226" y="739" type="move"/>
		</contour>
		<contour>
			<point name="belowLC" x="178" y="-22" type="move"/>
		</contour>
	</outline>
</glyph>
<glyph name="c" format="2">
	<unicode hex="0063"/>
	<advance width="405"/>
	<outline>
		<contour>
			<point x="203" y="-13" type="curve" smooth="yes"/>
			<point x="271" y="-13"/>
			<point x="343" y="40"/>
			<point x="383" y="110" type="curve"/>
			<point x="360" y="128" type="line"/>
			<point x="333" y="94"/>
			<point x="292" y="55"/>
			<point x="238" y="55" type="curve" smooth="yes"/>
			<point x="172" y="55"/>
			<point x="127" y="97"/>
			<point x="127" y="184" type="curve" smooth="yes"/>
			<point x="127" y="321"/>
			<point x="217" y="441"/>
			<point x="314" y="456" type="curve"/>
			<point x="272" y="467" type="line"/>
			<point x="317" y="416" type="line" smooth="yes"/>
			<point x="335" y="396"/>
			<point x="354" y="380"/>
			<point x="376" y="380" type="curve" smooth="yes"/>
			<point x="394" y="380"/>
			<point x="413" y="390"/>
			<point x="417" y="414" type="curve"/>
			<point x="406" y="457"/>
			<point x="371" y="487"/>
			<point x="310" y="487" type="curve" smooth="yes"/>
			<point x="185" y="487"/>
			<point x="54" y="343"/>
			<point x="54" y="174" type="curve" smooth="yes"/>
			<point x="54" y="49"/>
			<point x="116" y="-13"/>
		</contour>
	</outline>
	<anchor name="aboveLC" x="313" y="505"/>
	<anchor name="belowLC" x="177" y="-22"/>
	<anchor name="baseLC" x="183" y="0"/>
</glyph>
<glyph name="h" format="1">
	<unicode hex="0068"/>
	<advance width="551"/>
	<outline>
		<contour>
			<point x="81" y="-8" type="line"/>
			<point x="146" y="0" type="line"/>
			<point x="157" y="70"/>
			<point x="170" y="140"/>
			<point x="184" y="210" type="curve" smooth="yes"/>
			<point x="213" y="347" type="line"/>
			<point x="216" y="364" type="line"/>
			<point x="291" y="733" type="line"/>
			<point x="281" y="741" type="line"/>
			<point x="109" y="691" type="line"/>
			<point x="105" y="662" type="line"/>
			<point x="222" y="654" type="line"/>
			<point x="205" y="685" type="line"/>
			<point x="195" y="616"/>
			<point x="182" y="547"/>
			<point x="168" y="478" type="curve" smooth="yes"/>
			<point x="71" y="0" type="line"/>
		</contour>
		<contour>
			<point x="385" y="-13" type="curve" smooth="yes"/>
			<point x="453" y="-13"/>
			<point x="518" y="50"/>
			<point x="557" y="109" type="curve"/>
			<point x="533" y="128" type="line"/>
			<point x="497" y="83"/>
			<point x="459" y="55"/>
			<point x="434" y="55" type="curve" smooth="yes"/>
			<point x="422" y="55"/>
			<point x="414" y="62"/>
			<point x="414" y="76" type="curve" smooth="yes"/>
			<point x="414" y="86"/>
			<point x="420" y="107"/>
			<point x="427" y="135" type="curve" smooth="yes"/>
			<point x="472" y="320" type="line" smooth="yes"/>
			<point x="480" y="353"/>
			<point x="489" y="386"/>
			<point x="489" y="418" type="curve" smooth="yes"/>
			<point x="489" y="464"/>
			<point x="467" y="487"/>
			<point x="425" y="487" type="curve" smooth="yes"/>
			<point x="359" y="487"/>
			<point x="268" y="427"/>
			<point x="201" y="359" type="curve"/>
			<point x="196" y="322" type="line"/>
			<point x="276" y="388"/>
			<point x="337" y="421"/>
			<point x="375" y="421" type="curve" smooth="yes"/>
			<point x="397" y="421"/>
			<point x="410" y="410"/>
			<point x="410" y="374" type="curve" smooth="yes"/>
			<point x="410" y="354"/>
			<point x="402" y="321"/>
			<point x="394" y="287" type="curve" smooth="yes"/>
			<point x="351" y="110" type="line" smooth="yes"/>
			<point x="341" y="69"/>
			<point x="335" y="52"/>
			<point x="335" y="29" type="curve" smooth="yes"/>
			<point x="335" y="4"/>
			<point x="354" y="-13"/>
		</contour>
		<contour>
			<point name="aboveLC" x="258" y="739" type="move"/>
		</contour>
		<contour>
			<point name="belowLC" x="224" y="-12" type="move"/>
		</contour>
	</outline>
</glyph>
<glyph name="i" format="1">
	<unicode hex="0069"/>
	<advance width="305"/>
	<outline>
		<contour>
			<point x="91" y="38" type="curve" smooth="yes"/>
			<point x="91" y="4"/>
			<point x="117" y="-13"/>
			<point x="144" y="-13" type="curve" smooth="yes"/>
			<point x="215" y="-13"/>
			<point x="266" y="49"/>
			<point x="311" y="109" type="curve"/>
			<point x="287" y="128" type="line"/>
			<point x="246" y="80"/>
			<point x="214" y="55"/>
			<point x="190" y="55" type="curve" smooth="yes"/>
			<point x="179" y="55"/>
			<point x="168" y="63"/>
			<point x="168" y="77" type="curve" smooth="yes"/>
			<point x="168" y="89"/>
			<point x="172" y="110"/>
			<point x="177" y="135" type="curve" smooth="yes"/>
			<point x="248" y="477" type="line"/>
			<point x="235" y="487" type="line"/>
			<point x="66" y="436" type="line"/>
			<point x="62" y="407" type="line"/>
			<point x="182" y="400" type="line"/>
			<point x="165" y="414" type="line"/>
			<point x="101" y="110" type="line" smooth="yes"/>
			<point x="92" y="69"/>
			<point x="91" y="52"/>
		</contour>
		<contour>
			<point x="247" y="624" type="curve" smooth="yes"/>
			<point x="277" y="624"/>
			<point x="305" y="655"/>
			<point x="305" y="686" type="curve" smooth="yes"/>
			<point x="305" y="722"/>
			<point x="283" y="744"/>
			<point x="251" y="744" type="curve" smooth="yes"/>
			<point x="221" y="744"/>
			<point x="193" y="715"/>
			<point x="193" y="682" type="curve" smooth="yes"/>
			<point x="193" y="646"/>
			<point x="215" y="624"/>
		</contour>
		<contour>
			<point name="aboveLC" x="250" y="736" type="move"/>
		</contour>
		<contour>
			<point name="belowLC" x="138" y="-22" type="move"/>
		</contour>
		<contour>
			<point name="ogonek" x="181" y="0" type="move"/>
		</contour>
	</outline>
</glyph>
<glyph name="k" format="1">
	<unicode hex="006B"/>
	<advance width="489"/>
	<outline>
		<contour>
			<point x="68" y="0" type="line"/>
			<point x="77" y="-8" type="line"/>
			<point x="142" y="0" type="line"/>
			<point x="154" y="70"/>
			<point x="166" y="140"/>
			<point x="180" y="210" type="curve" smooth="yes"/>
			<point x="283" y="733" type="line"/>
			<point x="277" y="741" type="line"/>
			<point x="105" y="691" type="line"/>
			<point x="101" y="662" type="line"/>
			<point x="218" y="654" type="line"/>
			<point x="201" y="685" type="line"/>
			<point x="191" y="616"/>
			<point x="178" y="547"/>
			<point x="164" y="478" type="curve" smooth="yes"/>
		</contour>
		<contour>
			<point x="479" y="0" type="curve"/>
			<point x="484" y="30" type="line"/>
			<point x="432" y="34" type="line" smooth="yes"/>
			<point x="401" y="36"/>
			<point x="386" y="44"/>
			<point x="364" y="92" type="curve" smooth="yes"/>
			<point x="335" y="155" type="line" smooth="yes"/>
			<point x="312" y="205"/>
			<point x="281" y="238"/>
			<point x="223" y="250" type="curve" smooth="yes"/>
			<point x="194" y="256" type="line"/>
			<point x="191" y="249" type="line"/>
			<point x="445" y="390" type="line" smooth="yes"/>
			<point x="481" y="410"/>
			<point x="495" y="424"/>
			<point x="495" y="442" type="curve" smooth="yes"/>
			<point x="495" y="462"/>
			<point x="480" y="481"/>
			<point x="459" y="482" type="curve"/>
			<point x="170" y="257" type="line"/>
			<point x="173" y="235" type="line"/>
			<point x="193" y="229" type="line" smooth="yes"/>
			<point x="228" y="219"/>
			<point x="244" y="200"/>
			<point x="268" y="144" type="curve" smooth="yes"/>
			<point x="300" y="67" type="line" smooth="yes"/>
			<point x="329" y="-3"/>
			<point x="362" y="-13"/>
			<point x="408" y="-13" type="curve" smooth="yes"/>
			<point x="430" y="-13"/>
			<point x="449" y="-10"/>
		</contour>
		<contour>
			<point name="aboveLC" x="228" y="739" type="move"/>
		</contour>
		<contour>
			<point name="belowLC" x="237" y="-22" type="move"/>
		</contour>
	</outline>
</glyph>
<glyph name="l" format="1">
	<unicode hex="006C"/>
	<advance width="286"/>
	<outline>
		<contour>
			<point x="138" y="-13" type="curve" smooth="yes"/>
			<point x="208" y="-13"/>
			<point x="258" y="50"/>
			<point x="301" y="109" type="curve"/>
			<point x="278" y="128" type="line"/>
			<point x="238" y="82"/>
			<point x="204" y="55"/>
			<point x="183" y="55" type="curve" smooth="yes"/>
			<point x="170" y="55"/>
			<point x="158" y="63"/>
			<point x="158" y="79" type="curve" smooth="yes"/>
			<point x="158" y="89"/>
			<point x="161" y="110"/>
			<point x="167" y="137" type="curve" smooth="yes"/>
			<point x="287" y="733" type="line"/>
			<point x="276" y="741" type="line"/>
			<point x="105" y="691" type="line"/>
			<point x="101" y="662" type="line"/>
			<point x="218" y="654" type="line"/>
			<point x="200" y="685" type="line"/>
			<point x="191" y="616"/>
			<point x="178" y="547"/>
			<point x="164" y="478" type="curve" smooth="yes"/>
			<point x="91" y="110" type="line" smooth="yes"/>
			<point x="85" y="76"/>
			<point x="82" y="58"/>
			<point x="82" y="45" type="curve" smooth="yes"/>
			<point x="82" y="6"/>
			<point x="107" y="-13"/>
		</contour>
		<contour>
			<point name="aboveLC" x="246" y="739" type="move"/>
		</contour>
		<contour>
			<point name="belowLC" x="138" y="-22" type="move"/>
		</contour>
	</outline>
</glyph>
<glyph name="m" format="2">
	<unicode hex="006D"/>
	<advance width="817"/>
	<outline>
		<contour>
			<point x="651" y="-13" type="curve" smooth="yes"/>
			<point x="722" y="-13"/>
			<point x="779" y="48"/>
			<point x="823" y="109" type="curve"/>
			<point x="799" y="128" type="line"/>
			<point x="759" y="80"/>
			<point x="727" y="55"/>
			<point x="700" y="55" type="curve" smooth="yes"/>
			<point x="689" y="55"/>
			<point x="680" y="62"/>
			<point x="680" y="76" type="curve" smooth="yes"/>
			<point x="680" y="86"/>
			<point x="686" y="107"/>
			<point x="693" y="135" type="curve" smooth="yes"/>
			<point x="738" y="320" type="line" smooth="yes"/>
			<point x="746" y="353"/>
			<point x="755" y="386"/>
			<point x="755" y="418" type="curve" smooth="yes"/>
			<point x="755" y="464"/>
			<point x="733" y="487"/>
			<point x="692" y="487" type="curve" smooth="yes"/>
			<point x="628" y="487"/>
			<point x="544" y="427"/>
			<point x="478" y="360" type="curve"/>
			<point x="473" y="322" type="line"/>
			<point x="550" y="387"/>
			<point x="605" y="421"/>
			<point x="641" y="421" type="curve" smooth="yes"/>
			<point x="664" y="421"/>
			<point x="676" y="410"/>
			<point x="676" y="374" type="curve" smooth="yes"/>
			<point x="676" y="354"/>
			<point x="668" y="321"/>
			<point x="660" y="287" type="curve" smooth="yes"/>
			<point x="617" y="110" type="line" smooth="yes"/>
			<point x="607" y="69"/>
			<point x="601" y="52"/>
			<point x="601" y="29" type="curve" smooth="yes"/>
			<point x="601" y="4"/>
			<point x="620" y="-13"/>
		</contour>
		<contour>
			<point x="152" y="0" type="line"/>
			<point x="165" y="71"/>
			<point x="177" y="140"/>
			<point x="192" y="210" type="curve" smooth="yes"/>
			<point x="223" y="352" type="line"/>
			<point x="248" y="477" type="line"/>
			<point x="235" y="487" type="line"/>
			<point x="66" y="436" type="line"/>
			<point x="62" y="407" type="line"/>
			<point x="182" y="400" type="line"/>
			<point x="165" y="414" type="line"/>
			<point x="77" y="0" type="line"/>
			<point x="87" y="-8" type="line"/>
		</contour>
		<contour>
			<point x="417" y="0" type="line"/>
			<point x="430" y="71"/>
			<point x="443" y="140"/>
			<point x="458" y="210" type="curve" smooth="yes"/>
			<point x="490" y="358" type="line" smooth="yes"/>
			<point x="495" y="378"/>
			<point x="499" y="399"/>
			<point x="499" y="418" type="curve" smooth="yes"/>
			<point x="499" y="464"/>
			<point x="477" y="487"/>
			<point x="436" y="487" type="curve" smooth="yes"/>
			<point x="369" y="487"/>
			<point x="279" y="427"/>
			<point x="212" y="359" type="curve"/>
			<point x="207" y="322" type="line"/>
			<point x="287" y="388"/>
			<point x="347" y="421"/>
			<point x="385" y="421" type="curve" smooth="yes"/>
			<point x="407" y="421"/>
			<point x="420" y="410"/>
			<point x="420" y="377" type="curve" smooth="yes"/>
			<point x="420" y="361"/>
			<point x="416" y="343"/>
			<point x="413" y="327" type="curve" smooth="yes"/>
			<point x="343" y="0" type="line"/>
			<point x="353" y="-8" type="line"/>
		</contour>
	</outline>
	<anchor name="aboveLC" x="459" y="506"/>
	<anchor name="belowLC" x="382" y="-22"/>
</glyph>
<glyph name="n" format="2">
	<unicode hex="006E"/>
	<advance width="562"/>
	<outline>
		<contour>
			<point x="346" y="29" type="curve" smooth="yes"/>
			<point x="346" y="4"/>
			<point x="365" y="-13"/>
			<point x="396" y="-13" type="curve" smooth="yes"/>
			<point x="464" y="-13"/>
			<point x="529" y="50"/>
			<point x="568" y="109" type="curve"/>
			<point x="544" y="128" type="line"/>
			<point x="508" y="83"/>
			<point x="470" y="55"/>
			<point x="445" y="55" type="curve" smooth="yes"/>
			<point x="433" y="55"/>
			<point x="425" y="62"/>
			<point x="425" y="76" type="curve" smooth="yes"/>
			<point x="425" y="86"/>
			<point x="431" y="107"/>
			<point x="438" y="135" type="curve" smooth="yes"/>
			<point x="483" y="320" type="line" smooth="yes"/>
			<point x="491" y="353"/>
			<point x="500" y="386"/>
			<point x="500" y="418" type="curve" smooth="yes"/>
			<point x="500" y="464"/>
			<point x="478" y="487"/>
			<point x="436" y="487" type="curve" smooth="yes"/>
			<point x="370" y="487"/>
			<point x="279" y="427"/>
			<point x="212" y="359" type="curve"/>
			<point x="207" y="322" type="line"/>
			<point x="287" y="388"/>
			<point x="348" y="421"/>
			<point x="386" y="421" type="curve" smooth="yes"/>
			<point x="408" y="421"/>
			<point x="421" y="410"/>
			<point x="421" y="374" type="curve" smooth="yes"/>
			<point x="421" y="354"/>
			<point x="413" y="321"/>
			<point x="405" y="287" type="curve" smooth="yes"/>
			<point x="362" y="110" type="line" smooth="yes"/>
			<point x="352" y="69"/>
			<point x="346" y="52"/>
		</contour>
		<contour>
			<point x="152" y="0" type="line"/>
			<point x="165" y="71"/>
			<point x="177" y="140"/>
			<point x="192" y="210" type="curve" smooth="yes"/>
			<point x="223" y="352" type="line"/>
			<point x="248" y="477" type="line"/>
			<point x="235" y="487" type="line"/>
			<point x="66" y="436" type="line"/>
			<point x="62" y="407" type="line"/>
			<point x="182" y="400" type="line"/>
			<point x="165" y="414" type="line"/>
			<point x="77" y="0" type="line"/>
			<point x="87" y="-8" type="line"/>
		</contour>
	</outline>
	<anchor name="aboveLC" x="338" y="506"/>
	<anchor name="belowLC" x="244" y="-12"/>
</glyph>
<glyph name="o" format="1">
	<unicode hex="006F"/>
	<advance width="487"/>
	<outline>
		<contour>
			<point x="220" y="-13" type="curve" smooth="yes"/>
			<point x="360" y="-13"/>
			<point x="476" y="138"/>
			<point x="476" y="312" type="curve" smooth="yes"/>
			<point x="476" y="425"/>
			<point x="408" y="487"/>
			<point x="314" y="487" type="curve" smooth="yes"/>
			<point x="173" y="487"/>
			<point x="54" y="343"/>
			<point x="54" y="163" type="curve" smooth="yes"/>
			<point x="54" y="49"/>
			<point x="128" y="-13"/>
		</contour>
		<contour>
			<point x="231" y="27" type="curve" smooth="yes"/>
			<point x="175" y="27"/>
			<point x="134" y="70"/>
			<point x="134" y="176" type="curve" smooth="yes"/>
			<point x="134" y="325"/>
			<point x="208" y="447"/>
			<point x="303" y="447" type="curve" smooth="yes"/>
			<point x="358" y="447"/>
			<point x="396" y="405"/>
			<point x="396" y="296" type="curve" smooth="yes"/>
			<point x="396" y="162"/>
			<point x="330" y="27"/>
		</contour>
		<contour>
			<point name="aboveLC" x="295" y="506" type="move"/>
		</contour>
		<contour>
			<point name="belowLC" x="202" y="-22" type="move"/>
		</contour>
		<contour>
			<point name="hornLC" x="416" y="480" type="move"/>
		</contour>
		<contour>
			<point name="ogonek" x="276" y="0" type="move"/>
		</contour>
	</outline>
</glyph>
<glyph name="s" format="1">
	<unicode hex="0073"/>
	<advance width="358"/>
	<outline>
		<contour>
			<point x="135" y="-4" type="line"/>
			<point x="119" y="65" type="line" smooth="yes"/>
			<point x="113" y="92"/>
			<point x="100" y="108"/>
			<point x="72" y="108" type="curve" smooth="yes"/>
			<point x="56" y="108"/>
			<point x="41" y="97"/>
			<point x="36" y="81" type="curve"/>
			<point x="43" y="21"/>
			<point x="82" y="-13"/>
			<point x="160" y="-13" type="curve" smooth="yes"/>
			<point x="259" y="-13"/>
			<point x="327" y="46"/>
			<point x="327" y="135" type="curve" smooth="yes"/>
			<point x="327" y="187"/>
			<point x="308" y="216"/>
			<point x="245" y="262" type="curve" smooth="yes"/>
			<point x="188" y="304"/>
			<point x="168" y="321"/>
			<point x="168" y="365" type="curve" smooth="yes"/>
			<point x="168" y="411"/>
			<point x="198" y="452"/>
			<point x="268" y="452" type="curve" smooth="yes"/>
			<point x="284" y="452"/>
			<point x="294" y="450"/>
			<point x="304" y="447" type="curve"/>
			<point x="274" y="474" type="line"/>
			<point x="292" y="418" type="line" smooth="yes"/>
			<point x="302" y="388"/>
			<point x="319" y="372"/>
			<point x="342" y="372" type="curve" smooth="yes"/>
			<point x="360" y="372"/>
			<point x="374" y="380"/>
			<point x="380" y="399" type="curve"/>
			<point x="365" y="464"/>
			<point x="320" y="487"/>
			<point x="254" y="487" type="curve" smooth="yes"/>
			<point x="166" y="487"/>
			<point x="103" y="425"/>
			<point x="103" y="340" type="curve" smooth="yes"/>
			<point x="103" y="284"/>
			<point x="142" y="248"/>
			<point x="196" y="209" type="curve" smooth="yes"/>
			<point x="250" y="170"/>
			<point x="260" y="146"/>
			<point x="260" y="114" type="curve" smooth="yes"/>
			<point x="260" y="59"/>
			<point x="216" y="22"/>
			<point x="145" y="22" type="curve" smooth="yes"/>
			<point x="128" y="22"/>
			<point x="120" y="24"/>
			<point x="99" y="31" type="curve"/>
		</contour>
		<contour>
			<point name="aboveLC" x="250" y="506" type="move"/>
		</contour>
		<contour>
			<point name="belowLC" x="118" y="-22" type="move"/>
		</contour>
		<contour>
			<point name="baseLC" x="121" y="0" type="move"/>
		</contour>
	</outline>
</glyph>
<glyph name="t" format="2">
	<unicode hex="0074"/>
	<advance width="329"/>
	<outline>
		<contour>
			<point x="65" y="425" type="line"/>
			<point x="204" y="425" type="line"/>
			<point x="368" y="420" type="line"/>
			<point x="375" y="474" type="line"/>
			<point x="208" y="474" type="line"/>
			<point x="208" y="477" type="line"/>
			<point x="72" y="465" type="line"/>
		</contour>
		<contour>
			<point x="100" y="110" type="line" smooth="yes"/>
			<point x="92" y="69"/>
			<point x="91" y="52"/>
			<point x="91" y="38" type="curve" smooth="yes"/>
			<point x="91" y="4"/>
			<point x="117" y="-13"/>
			<point x="145" y="-13" type="curve" smooth="yes"/>
			<point x="213" y="-13"/>
			<point x="273" y="49"/>
			<point x="315" y="109" type="curve"/>
			<point x="291" y="128" type="line"/>
			<point x="250" y="80"/>
			<point x="219" y="55"/>
			<point x="192" y="55" type="curve" smooth="yes"/>
			<point x="180" y="55"/>
			<point x="168" y="63"/>
			<point x="168" y="79" type="curve" smooth="yes"/>
			<point x="168" y="89"/>
			<point x="171" y="110"/>
			<point x="177" y="137" type="curve" smooth="yes"/>
			<point x="277" y="609" type="line"/>
			<point x="227" y="609" type="line"/>
			<point x="174" y="454" type="line"/>
		</contour>
	</outline>
	<anchor name="aboveLC" x="251" y="628"/>
	<anchor name="belowLC" x="134" y="-22"/>
	<anchor name="baseLC" x="142" y="0"/>
</glyph>
<glyph name="w" format="2">
	<unicode hex="0077"/>
	<advance width="727"/>
	<outline>
		<contour>
			<point x="175" y="-2" type="curve"/>
			<point x="182" y="-7" type="line"/>
			<point x="210" y="-4" type="line"/>
			<point x="314" y="113"/>
			<point x="411" y="298"/>
			<point x="457" y="390" type="curve"/>
			<point x="417" y="351" type="line"/>
			<point x="418" y="337"/>
			<point x="432" y="44"/>
			<point x="434" y="-2" type="curve"/>
			<point x="441" y="-7" type="line"/>
			<point x="469" y="-4" type="line"/>
			<point x="572" y="103"/>
			<point x="656" y="219"/>
			<point x="703" y="310" type="curve" smooth="yes"/>
			<point x="749" y="397"/>
			<point x="754" y="424"/>
			<point x="754" y="444" type="curve" smooth="yes"/>
			<point x="754" y="460"/>
			<point x="752" y="468"/>
			<point x="749" y="474" type="curve"/>
			<point x="743" y="481"/>
			<point x="732" y="486"/>
			<point x="716" y="487" type="curve" smooth="yes"/>
			<point x="685" y="487"/>
			<point x="657" y="466"/>
			<point x="657" y="416" type="curve" smooth="yes"/>
			<point x="657" y="407"/>
			<point x="658" y="388"/>
			<point x="661" y="376" type="curve" smooth="yes"/>
			<point x="677" y="305" type="line"/>
			<point x="680" y="365" type="line"/>
			<point x="674" y="353"/>
			<point x="670" y="344"/>
			<point x="663" y="331" type="curve" smooth="yes"/>
			<point x="610" y="234"/>
			<point x="562" y="164"/>
			<point x="489" y="73" type="curve"/>
			<point x="500" y="68" type="line"/>
			<point x="500" y="84"/>
			<point x="486" y="454"/>
			<point x="485" y="475" type="curve"/>
			<point x="446" y="475" type="line"/>
			<point x="379" y="317"/>
			<point x="304" y="184"/>
			<point x="224" y="72" type="curve"/>
			<point x="240" y="68" type="line"/>
			<point x="241" y="186"/>
			<point x="237" y="331"/>
			<point x="222" y="420" type="curve" smooth="yes"/>
			<point x="214" y="468"/>
			<point x="197" y="487"/>
			<point x="155" y="487" type="curve" smooth="yes"/>
			<point x="110" y="487"/>
			<point x="67" y="446"/>
			<point x="33" y="368" type="curve"/>
			<point x="56" y="352" type="line"/>
			<point x="88" y="401"/>
			<point x="105" y="419"/>
			<point x="124" y="419" type="curve" smooth="yes"/>
			<point x="139" y="419"/>
			<point x="148" y="414"/>
			<point x="153" y="374" type="curve" smooth="yes"/>
			<point x="166" y="274"/>
			<point x="174" y="160"/>
		</contour>
	</outline>
	<anchor name="aboveLC" x="465" y="506"/>
	<anchor name="belowLC" x="325" y="-22"/>
</glyph>
<glyph name="y" format="1">
	<unicode hex="0079"/>
	<advance width="474"/>
	<outline>
		<contour>
			<point x="-138" y="-181" type="curve"/>
			<point x="-135" y="-221"/>
			<point x="-100" y="-251"/>
			<point x="-41" y="-251" type="curve" smooth="yes"/>
			<point x="15" y="-251"/>
			<point x="74" y="-211"/>
			<point x="141" y="-140" type="curve" smooth="yes"/>
			<point x="192" y="-86"/>
			<point x="231" y="-42"/>
			<point x="271" y="13" type="curve" smooth="yes"/>
			<point x="320" y="80"/>
			<point x="361" y="160"/>
			<point x="398" y="227" type="curve" smooth="yes"/>
			<point x="436" y="295"/>
			<point x="457" y="336"/>
			<point x="478" y="379" type="curve" smooth="yes"/>
			<point x="498" y="419"/>
			<point x="503" y="434"/>
			<point x="503" y="459" type="curve" smooth="yes"/>
			<point x="503" y="479"/>
			<point x="489" y="493"/>
			<point x="463" y="493" type="curve" smooth="yes"/>
			<point x="434" y="493"/>
			<point x="416" y="482"/>
			<point x="394" y="388" type="curve" smooth="yes"/>
			<point x="362" y="249"/>
			<point x="323" y="162"/>
			<point x="244" y="27" type="curve"/>
			<point x="186" y="-41"/>
			<point x="161" y="-72"/>
			<point x="116" y="-113" type="curve" smooth="yes"/>
			<point x="72" y="-154"/>
			<point x="25" y="-189"/>
			<point x="-27" y="-214" type="curve"/>
			<point x="25" y="-230" type="line"/>
			<point x="-17" y="-185" type="line" smooth="yes"/>
			<point x="-41" y="-160"/>
			<point x="-60" y="-144"/>
			<point x="-91" y="-144" type="curve" smooth="yes"/>
			<point x="-112" y="-144"/>
			<point x="-134" y="-158"/>
		</contour>
		<contour>
			<point x="253" y="28" type="line"/>
			<point x="249" y="125"/>
			<point x="243" y="231"/>
			<point x="230" y="353" type="curve" smooth="yes"/>
			<point x="218" y="466"/>
			<point x="197" y="487"/>
			<point x="159" y="487" type="curve" smooth="yes"/>
			<point x="117" y="487"/>
			<point x="72" y="453"/>
			<point x="33" y="368" type="curve"/>
			<point x="56" y="352" type="line"/>
			<point x="92" y="407"/>
			<point x="106" y="419"/>
			<point x="123" y="419" type="curve" smooth="yes"/>
			<point x="142" y="419"/>
			<point x="147" y="404"/>
			<point x="163" y="275" type="curve" smooth="yes"/>
			<point x="180" y="144"/>
			<point x="190" y="78"/>
			<point x="198" y="-37" type="curve"/>
		</contour>
		<contour>
			<point name="aboveLC" x="328" y="496" type="move"/>
		</contour>
		<contour>
			<point name="belowLC" x="2" y="-255" type="move"/>
		</contour>
	</outline>
</glyph>
<glyph name="z" format="1">
	<unicode hex="007A"/>
	<advance width="457"/>
	<outline>
		<contour>
			<point x="281" y="-23" type="curve" smooth="yes"/>
			<point x="357" y="-23"/>
			<point x="440" y="48"/>
			<point x="440" y="120" type="curve" smooth="yes"/>
			<point x="440" y="144"/>
			<point x="428" y="171"/>
			<point x="407" y="179" type="curve"/>
			<point x="379" y="176"/>
			<point x="358" y="157"/>
			<point x="358" y="126" type="curve" smooth="yes"/>
			<point x="358" y="104"/>
			<point x="370" y="87"/>
			<point x="384" y="70" type="curve" smooth="yes"/>
			<point x="398" y="53" type="line"/>
			<point x="413" y="86" type="line"/>
			<point x="383" y="61"/>
			<point x="353" y="45"/>
			<point x="313" y="45" type="curve" smooth="yes"/>
			<point x="270" y="45"/>
			<point x="219" y="64"/>
			<point x="174" y="97" type="curve" smooth="yes"/>
			<point x="125" y="133" type="line"/>
			<point x="99" y="94" type="line"/>
			<point x="136" y="49" type="line" smooth="yes"/>
			<point x="173" y="4"/>
			<point x="232" y="-23"/>
		</contour>
		<contour>
			<point x="72" y="0" type="line"/>
			<point x="115" y="88" type="line"/>
			<point x="206" y="177"/>
			<point x="305" y="257"/>
			<point x="399" y="354" type="curve" smooth="yes"/>
			<point x="450" y="407"/>
			<point x="483" y="452"/>
			<point x="493" y="476" type="curve"/>
			<point x="481" y="486" type="line"/>
			<point x="426" y="474" type="line"/>
			<point x="383" y="390" type="line"/>
			<point x="289" y="288"/>
			<point x="184" y="200"/>
			<point x="89" y="107" type="curve" smooth="yes"/>
			<point x="47" y="66"/>
			<point x="27" y="35"/>
			<point x="7" y="0" type="curve"/>
			<point x="15" y="-6" type="line"/>
		</contour>
		<contour>
			<point x="68" y="284" type="line"/>
			<point x="109" y="278" type="line"/>
			<point x="164" y="457" type="line"/>
			<point x="110" y="424" type="line"/>
			<point x="221" y="399"/>
			<point x="285" y="382"/>
			<point x="377" y="351" type="curve"/>
			<point x="413" y="399" type="line"/>
			<point x="323" y="438"/>
			<point x="249" y="463"/>
			<point x="160" y="487" type="curve"/>
			<point x="91" y="432" type="line"/>
		</contour>
		<contour>
			<point name="aboveLC" x="303" y="506" type="move"/>
		</contour>
		<contour>
			<point name="belowLC" x="169" y="-22" type="move"/>
		</contour>
	</outline>
</glyph>
<glyph name="braceleft" format="2">
	<unicode hex="007B"/>
	<advance width="380"/>
	<outline>
		<contour>
			<point x="68" y="258" type="line"/>
			<point x="138" y="249"/>
			<point x="168" y="224"/>
			<point x="168" y="184" type="curve" smooth="yes"/>
			<point x="168" y="119"/>
			<point x="102" y="20"/>
			<point x="102" y="-68" type="curve" smooth="yes"/>
			<point x="102" y="-128"/>
			<point x="146" y="-159"/>
			<point x="227" y="-159" type="curve" smooth="yes"/>
			<point x="279" y="-159" type="line"/>
			<point x="287" y="-120" type="line"/>
			<point x="254" y="-117" type="line" smooth="yes"/>
			<point x="196" y="-112"/>
			<point x="170" y="-98"/>
			<point x="170" y="-60" type="curve" smooth="yes"/>
			<point x="170" y="0"/>
			<point x="217" y="138"/>
			<point x="217" y="193" type="curve" smooth="yes"/>
			<point x="217" y="247"/>
			<point x="184" y="281"/>
			<point x="107" y="283" type="curve"/>
			<point x="105" y="273" type="line"/>
			<point x="196" y="275"/>
			<point x="263" y="327"/>
			<point x="263" y="411" type="curve" smooth="yes"/>
			<point x="263" y="442"/>
			<point x="260" y="507"/>
			<point x="260" y="547" type="curve" smooth="yes"/>
			<point x="260" y="638"/>
			<point x="284" y="670"/>
			<point x="394" y="675" type="curve" smooth="yes"/>
			<point x="417" y="676" type="line"/>
			<point x="424" y="715" type="line"/>
			<point x="385" y="715" type="line" smooth="yes"/>
			<point x="248" y="715"/>
			<point x="193" y="659"/>
			<point x="193" y="552" type="curve" smooth="yes"/>
			<point x="193" y="503"/>
			<point x="208" y="453"/>
			<point x="208" y="420" type="curve" smooth="yes"/>
			<point x="208" y="352"/>
			<point x="172" y="310"/>
			<point x="76" y="298" type="curve"/>
		</contour>
	</outline>
</glyph>
<glyph name="asciitilde" format="1">
	<unicode hex="007E"/>
	<advance width="530"/>
	<outline>
		<contour>
			<point x="300" y="366" type="curve" smooth="yes"/>
			<point x="261" y="401"/>
			<point x="227" y="421"/>
			<point x="185" y="421" type="curve" smooth="yes"/>
			<point x="111" y="421"/>
			<point x="72" y="372"/>
			<point x="66" y="282" type="curve"/>
			<point x="115" y="274" type="line"/>
			<point x="124" y="344"/>
			<point x="151" y="365"/>
			<point x="179" y="365" type="curve" smooth="yes"/>
			<point x="206" y="365"/>
			<point x="231" y="354"/>
			<point x="263" y="324" type="curve" smooth="yes"/>
			<point x="302" y="289"/>
			<point x="336" y="269"/>
			<point x="378" y="269" type="curve" smooth="yes"/>
			<point x="452" y="269"/>
			<point x="491" y="318"/>
			<point x="497" y="408" type="curve"/>
			<point x="448" y="416" type="line"/>
			<point x="439" y="346"/>
			<point x="412" y="325"/>
			<point x="384" y="325" type="curve" smooth="yes"/>
			<point x="357" y="325"/>
			<point x="332" y="336"/>
		</contour>
	</outline>
</glyph>
<glyph name="cent" format="1">
	<unicode hex="00A2"/>
	<advance width="472"/>
	<outline>
		<contour>
			<point x="80" y="244" type="curve" smooth="yes"/>
			<point x="80" y="119"/>
			<point x="142" y="57"/>
			<point x="229" y="57" type="curve" smooth="yes"/>
			<point x="297" y="57"/>
			<point x="369" y="110"/>
			<point x="409" y="180" type="curve"/>
			<point x="386" y="198" type="line"/>
			<point x="359" y="164"/>
			<point x="318" y="125"/>
			<point x="256" y="125" type="curve" smooth="yes"/>
			<point x="198" y="125"/>
			<point x="153" y="167"/>
			<point x="153" y="254" type="curve" smooth="yes"/>
			<point x="153" y="391"/>
			<point x="234" y="512"/>
			<point x="316" y="512" type="curve" smooth="yes"/>
			<point x="357" y="512"/>
			<point x="385" y="501"/>
			<point x="420" y="483" type="curve"/>
			<point x="379" y="516" type="line"/>
			<point x="385" y="440" type="line" smooth="yes"/>
			<point x="388" y="399"/>
			<point x="402" y="379"/>
			<point x="432" y="379" type="curve" smooth="yes"/>
			<point x="451" y="379"/>
			<point x="471" y="392"/>
			<point x="471" y="428" type="curve" smooth="yes"/>
			<point x="471" y="511"/>
			<point x="403" y="557"/>
			<point x="326" y="557" type="curve" smooth="yes"/>
			<point x="208" y="557"/>
			<point x="80" y="413"/>
		</contour>
		<contour>
			<point x="228" y="-45" type="line"/>
			<point x="372" y="660" type="line"/>
			<point x="336" y="660" type="line"/>
			<point x="192" y="-45" type="line"/>
		</contour>
	</outline>
</glyph>
<glyph name="sterling" format="1">
	<unicode hex="00A3"/>
	<advance width="497"/>
	<outline>
		<contour>
			<point x="-2" y="0" type="line"/>
			<point x="407" y="0" type="line"/>
			<point x="423" y="80" type="line"/>
			<point x="70" y="80" type="line"/>
			<point x="70" y="64" type="line"/>
			<point x="169" y="126"/>
			<point x="237" y="216"/>
			<point x="237" y="309" type="curve" smooth="yes"/>
			<point x="237" y="361"/>
			<point x="211" y="392"/>
			<point x="211" y="474" type="curve" smooth="yes"/>
			<point x="211" y="546"/>
			<point x="259" y="615"/>
			<point x="346" y="615" type="curve" smooth="yes"/>
			<point x="378" y="615"/>
			<point x="412" y="611"/>
			<point x="452" y="593" type="curve"/>
			<point x="392" y="624" type="line"/>
			<point x="399" y="536" type="line" smooth="yes"/>
			<point x="403" y="486"/>
			<point x="418" y="470"/>
			<point x="449" y="470" type="curve" smooth="yes"/>
			<point x="466" y="470"/>
			<point x="481" y="479"/>
			<point x="493" y="500" type="curve"/>
			<point x="493" y="607"/>
			<point x="434" y="660"/>
			<point x="330" y="660" type="curve" smooth="yes"/>
			<point x="210" y="660"/>
			<point x="126" y="575"/>
			<point x="126" y="478" type="curve" smooth="yes"/>
			<point x="126" y="406"/>
			<point x="174" y="362"/>
			<point x="174" y="307" type="curve" smooth="yes"/>
			<point x="174" y="205"/>
			<point x="108" y="120"/>
			<point x="10" y="57" type="curve"/>
		</contour>
		<contour>
			<point x="62" y="285" type="line"/>
			<point x="368" y="285" type="line"/>
			<point x="378" y="335" type="line"/>
			<point x="72" y="335" type="line"/>
		</contour>
	</outline>
</glyph>
<glyph name="currency" format="1">
	<unicode hex="00A4"/>
	<advance width="500"/>
	<outline>
		<contour>
			<point x="400" y="428" type="line"/>
			<point x="447" y="456" type="line" smooth="yes"/>
			<point x="492" y="483"/>
			<point x="504" y="497"/>
			<point x="504" y="514" type="curve" smooth="yes"/>
			<point x="504" y="534"/>
			<point x="488" y="550"/>
			<point x="468" y="550" type="curve" smooth="yes"/>
			<point x="451" y="550"/>
			<point x="437" y="538"/>
			<point x="410" y="493" type="curve" smooth="yes"/>
			<point x="382" y="446" type="line"/>
		</contour>
		<contour>
			<point x="174" y="329" type="curve" smooth="yes"/>
			<point x="174" y="395"/>
			<point x="223" y="441"/>
			<point x="283" y="441" type="curve" smooth="yes"/>
			<point x="342" y="441"/>
			<point x="391" y="395"/>
			<point x="391" y="329" type="curve" smooth="yes"/>
			<point x="391" y="263"/>
			<point x="342" y="217"/>
			<point x="283" y="217" type="curve" smooth="yes"/>
			<point x="223" y="217"/>
			<point x="174" y="263"/>
		</contour>
		<contour>
			<point x="118" y="329" type="curve" smooth="yes"/>
			<point x="118" y="232"/>
			<point x="194" y="167"/>
			<point x="283" y="167" type="curve" smooth="yes"/>
			<point x="371" y="167"/>
			<point x="447" y="232"/>
			<point x="447" y="329" type="curve" smooth="yes"/>
			<point x="447" y="426"/>
			<point x="371" y="491"/>
			<point x="283" y="491" type="curve" smooth="yes"/>
			<point x="194" y="491"/>
			<point x="118" y="426"/>
		</contour>
		<contour>
			<point x="184" y="446" type="line"/>
			<point x="156" y="493" type="line" smooth="yes"/>
			<point x="129" y="538"/>
			<point x="115" y="550"/>
			<point x="98" y="550" type="curve" smooth="yes"/>
			<point x="78" y="550"/>
			<point x="62" y="534"/>
			<point x="62" y="514" type="curve" smooth="yes"/>
			<point x="62" y="497"/>
			<point x="74" y="483"/>
			<point x="119" y="456" type="curve" smooth="yes"/>
			<point x="166" y="428" type="line"/>
		</contour>
		<contour>
			<point x="166" y="230" type="line"/>
			<point x="119" y="202" type="line" smooth="yes"/>
			<point x="74" y="175"/>
			<point x="62" y="161"/>
			<point x="62" y="144" type="curve" smooth="yes"/>
			<point x="62" y="124"/>
			<point x="78" y="108"/>
			<point x="98" y="108" type="curve" smooth="yes"/>
			<point x="115" y="108"/>
			<point x="129" y="120"/>
			<point x="156" y="165" type="curve" smooth="yes"/>
			<point x="184" y="212" type="line"/>
		</contour>
		<contour>
			<point x="382" y="212" type="line"/>
			<point x="410" y="165" type="line" smooth="yes"/>
			<point x="437" y="120"/>
			<point x="451" y="108"/>
			<point x="468" y="108" type="curve" smooth="yes"/>
			<point x="488" y="108"/>
			<point x="504" y="124"/>
			<point x="504" y="144" type="curve" smooth="yes"/>
			<point x="504" y="161"/>
			<point x="492" y="175"/>
			<point x="447" y="202" type="curve" smooth="yes"/>
			<point x="400" y="230" type="line"/>
		</contour>
	</outline>
</glyph>
<glyph name="yen" format="1">
	<unicode hex="00A5"/>
	<advance width="497"/>
	<outline>
		<contour>
			<point x="52" y="153" type="line"/>
			<point x="449" y="153" type="line"/>
			<point x="459" y="203" type="line"/>
			<point x="62" y="203" type="line"/>
		</contour>
		<contour>
			<point x="74" y="270" type="line"/>
			<point x="471" y="270" type="line"/>
			<point x="481" y="320" type="line"/>
			<point x="84" y="320" type="line"/>
		</contour>
		<contour>
			<point x="216" y="53" type="line"/>
			<point x="81" y="39" type="line"/>
			<point x="73" y="0" type="line"/>
			<point x="356" y="0" type="line"/>
			<point x="364" y="39" type="line"/>
			<point x="235" y="53" type="line"/>
		</contour>
		<contour>
			<point x="182" y="594" type="line"/>
			<point x="191" y="594" type="line"/>
			<point x="307" y="609" type="line"/>
			<point x="315" y="647" type="line"/>
			<point x="80" y="647" type="line"/>
			<point x="72" y="609" type="line"/>
		</contour>
		<contour>
			<point x="494" y="594" type="line"/>
			<point x="498" y="594" type="line"/>
			<point x="586" y="609" type="line"/>
			<point x="594" y="647" type="line"/>
			<point x="406" y="647" type="line"/>
			<point x="398" y="609" type="line"/>
		</contour>
		<contour>
			<point x="180" y="0" type="line"/>
			<point x="257" y="0" type="line"/>
			<point x="270" y="71"/>
			<point x="280" y="128"/>
			<point x="317" y="311" type="curve"/>
			<point x="243" y="311" type="line"/>
		</contour>
		<contour>
			<point x="288" y="239" type="line"/>
			<point x="547" y="647" type="line"/>
			<point x="495" y="647" type="line"/>
			<point x="293" y="322" type="line"/>
			<point x="299" y="322" type="line"/>
			<point x="212" y="647" type="line"/>
			<point x="130" y="647" type="line"/>
			<point x="251" y="239" type="line"/>
		</contour>
	</outline>
</glyph>
<glyph name="brokenbar" format="2">
	<unicode hex="00A6"/>
	<advance width="250"/>
	<outline>
		<contour>
			<point x="113" y="-250" type="line"/>
			<point x="169" y="-250" type="line"/>
			<point x="169" y="200" type="line"/>
			<point x="113" y="200" type="line"/>
		</contour>
		<contour>
			<point x="169" y="320" type="line"/>
			<point x="169" y="750" type="line"/>
			<point x="113" y="750" type="line"/>
			<point x="113" y="320" type="line"/>
		</contour>
	</outline>
</glyph>
<glyph name="section" format="1">
	<unicode hex="00A7"/>
	<advance width="488"/>
	<outline>
		<contour>
			<point x="379" y="686" type="curve" smooth="yes"/>
			<point x="256" y="686"/>
			<point x="192" y="620"/>
			<point x="192" y="537" type="curve" smooth="yes"/>
			<point x="192" y="468"/>
			<point x="241" y="435"/>
			<point x="291" y="397" type="curve" smooth="yes"/>
			<point x="350" y="352"/>
			<point x="381" y="320"/>
			<point x="381" y="278" type="curve" smooth="yes"/>
			<point x="381" y="230"/>
			<point x="356" y="188"/>
			<point x="267" y="165" type="curve"/>
			<point x="282" y="137" type="line"/>
			<point x="394" y="157"/>
			<point x="448" y="222"/>
			<point x="448" y="290" type="curve" smooth="yes"/>
			<point x="448" y="358"/>
			<point x="403" y="394"/>
			<point x="337" y="445" type="curve" smooth="yes"/>
			<point x="284" y="486"/>
			<point x="256" y="516"/>
			<point x="256" y="557" type="curve" smooth="yes"/>
			<point x="256" y="606"/>
			<point x="286" y="651"/>
			<point x="394" y="651" type="curve" smooth="yes"/>
			<point x="405" y="651"/>
			<point x="417" y="652"/>
			<point x="428" y="651" type="curve"/>
			<point x="387" y="672" type="line"/>
			<point x="414" y="615" type="line" smooth="yes"/>
			<point x="425" y="591"/>
			<point x="442" y="581"/>
			<point x="465" y="581" type="curve" smooth="yes"/>
			<point x="495" y="581"/>
			<point x="506" y="602"/>
			<point x="505" y="621" type="curve"/>
			<point x="496" y="660"/>
			<point x="451" y="686"/>
		</contour>
		<contour>
			<point x="164" y="-107" type="curve" smooth="yes"/>
			<point x="283" y="-107"/>
			<point x="348" y="-35"/>
			<point x="348" y="52" type="curve" smooth="yes"/>
			<point x="348" y="112"/>
			<point x="314" y="148"/>
			<point x="246" y="193" type="curve" smooth="yes"/>
			<point x="187" y="232"/>
			<point x="155" y="271"/>
			<point x="155" y="313" type="curve" smooth="yes"/>
			<point x="155" y="366"/>
			<point x="191" y="401"/>
			<point x="284" y="431" type="curve"/>
			<point x="268" y="458" type="line"/>
			<point x="157" y="434"/>
			<point x="91" y="376"/>
			<point x="91" y="293" type="curve" smooth="yes"/>
			<point x="91" y="225"/>
			<point x="140" y="181"/>
			<point x="196" y="144" type="curve" smooth="yes"/>
			<point x="261" y="101"/>
			<point x="282" y="74"/>
			<point x="282" y="30" type="curve" smooth="yes"/>
			<point x="282" y="-29"/>
			<point x="241" y="-72"/>
			<point x="161" y="-72" type="curve" smooth="yes"/>
			<point x="126" y="-72"/>
			<point x="104" y="-61"/>
			<point x="81" y="-53" type="curve"/>
			<point x="131" y="-82" type="line"/>
			<point x="112" y="-21" type="line" smooth="yes"/>
			<point x="104" y="5"/>
			<point x="82" y="19"/>
			<point x="57" y="19" type="curve" smooth="yes"/>
			<point x="36" y="19"/>
			<point x="22" y="10"/>
			<point x="13" y="-12" type="curve"/>
			<point x="25" y="-69"/>
			<point x="69" y="-107"/>
		</contour>
	</outline>
</glyph>
<glyph name="copyright" format="1">
	<unicode hex="00A9"/>
	<advance width="756"/>
	<outline>
		<contour>
			<point x="386" y="-15" type="curve" smooth="yes"/>
			<point x="583" y="-15"/>
			<point x="765" y="130"/>
			<point x="765" y="375" type="curve" smooth="yes"/>
			<point x="765" y="570"/>
			<point x="631" y="685"/>
			<point x="444" y="685" type="curve" smooth="yes"/>
			<point x="247" y="685"/>
			<point x="65" y="539"/>
			<point x="65" y="294" type="curve" smooth="yes"/>
			<point x="65" y="99"/>
			<point x="199" y="-15"/>
		</contour>
		<contour>
			<point x="382" y="24" type="curve" smooth="yes"/>
			<point x="227" y="24"/>
			<point x="115" y="125"/>
			<point x="115" y="299" type="curve" smooth="yes"/>
			<point x="115" y="515"/>
			<point x="273" y="646"/>
			<point x="448" y="646" type="curve" smooth="yes"/>
			<point x="603" y="646"/>
			<point x="715" y="544"/>
			<point x="715" y="371" type="curve" smooth="yes"/>
			<point x="715" y="153"/>
			<point x="558" y="24"/>
		</contour>
		<contour>
			<point x="410" y="135" type="curve" smooth="yes"/>
			<point x="451" y="135"/>
			<point x="483" y="147"/>
			<point x="514" y="161" type="curve"/>
			<point x="530" y="254" type="line"/>
			<point x="486" y="254" type="line"/>
			<point x="458" y="161" type="line"/>
			<point x="501" y="193" type="line"/>
			<point x="476" y="180"/>
			<point x="449" y="172"/>
			<point x="421" y="172" type="curve" smooth="yes"/>
			<point x="358" y="172"/>
			<point x="300" y="219"/>
			<point x="300" y="320" type="curve" smooth="yes"/>
			<point x="300" y="422"/>
			<point x="357" y="504"/>
			<point x="454" y="504" type="curve" smooth="yes"/>
			<point x="488" y="504"/>
			<point x="520" y="495"/>
			<point x="540" y="479" type="curve"/>
			<point x="507" y="510" type="line"/>
			<point x="507" y="420" type="line"/>
			<point x="549" y="420" type="line"/>
			<point x="562" y="510" type="line"/>
			<point x="526" y="534"/>
			<point x="496" y="541"/>
			<point x="459" y="541" type="curve" smooth="yes"/>
			<point x="333" y="541"/>
			<point x="240" y="443"/>
			<point x="240" y="314" type="curve" smooth="yes"/>
			<point x="240" y="206"/>
			<point x="311" y="135"/>
		</contour>
	</outline>
</glyph>
<glyph name="plusminus" format="1">
	<unicode hex="00B1"/>
	<advance width="530"/>
	<outline>
		<contour>
			<point x="251" y="97" type="line"/>
			<point x="311" y="97" type="line"/>
			<point x="311" y="558" type="line"/>
			<point x="251" y="558" type="line"/>
		</contour>
		<contour>
			<point x="517" y="302" type="line"/>
			<point x="517" y="358" type="line"/>
			<point x="45" y="358" type="line"/>
			<point x="45" y="302" type="line"/>
		</contour>
		<contour>
			<point x="517" y="0" type="line"/>
			<point x="517" y="56" type="line"/>
			<point x="45" y="56" type="line"/>
			<point x="45" y="0" type="line"/>
		</contour>
	</outline>
</glyph>
<glyph name="mu.math" format="1">
	<unicode hex="00B5"/>
	<advance width="549"/>
	<outline>
		<contour>
			<point x="10" y="-160" type="line"/>
			<point x="18" y="-176"/>
			<point x="32" y="-192"/>
			<point x="51" y="-191" type="curve" smooth="yes"/>
			<point x="80" y="-190"/>
			<point x="98" y="-178"/>
			<point x="106" y="-103" type="curve" smooth="yes"/>
			<point x="127" y="84" type="line"/>
			<point x="144" y="104" type="line"/>
			<point x="162" y="191"/>
			<point x="184" y="280"/>
			<point x="235" y="477" type="curve"/>
			<point x="227" y="487" type="line"/>
			<point x="146" y="469" type="line"/>
			<point x="86" y="101" type="line"/>
		</contour>
		<contour>
			<point x="223" y="-13" type="curve" smooth="yes"/>
			<point x="291" y="-13"/>
			<point x="356" y="39"/>
			<point x="415" y="165" type="curve"/>
			<point x="401" y="184" type="line"/>
			<point x="344" y="85"/>
			<point x="302" y="62"/>
			<point x="248" y="62" type="curve" smooth="yes"/>
			<point x="207" y="62"/>
			<point x="160" y="82"/>
			<point x="149" y="150" type="curve"/>
			<point x="119" y="95" type="line"/>
			<point x="126" y="23"/>
			<point x="176" y="-13"/>
		</contour>
		<contour>
			<point x="433" y="-13" type="curve" smooth="yes"/>
			<point x="472" y="-13"/>
			<point x="505" y="10"/>
			<point x="526" y="39" type="curve"/>
			<point x="523" y="64" type="line"/>
			<point x="509" y="59"/>
			<point x="492" y="55"/>
			<point x="479" y="55" type="curve" smooth="yes"/>
			<point x="446" y="55"/>
			<point x="439" y="72"/>
			<point x="450" y="135" type="curve" smooth="yes"/>
			<point x="462" y="205"/>
			<point x="481" y="278"/>
			<point x="538" y="477" type="curve"/>
			<point x="530" y="487" type="line"/>
			<point x="449" y="469" type="line"/>
			<point x="383" y="114"/>
			<point x="378" y="71"/>
			<point x="378" y="44" type="curve" smooth="yes"/>
			<point x="379" y="9"/>
			<point x="394" y="-13"/>
		</contour>
	</outline>
</glyph>
<glyph name="one.sups" format="2">
	<unicode hex="00B9"/>
	<advance width="346"/>
	<outline>
		<contour>
			<point x="345" y="426" type="line"/>
			<point x="350" y="452" type="line"/>
			<point x="254" y="463" type="line"/>
			<point x="213" y="463" type="line"/>
			<point x="117" y="452" type="line"/>
			<point x="111" y="426" type="line"/>
		</contour>
		<contour>
			<point x="257" y="426" type="line"/>
			<point x="322" y="737" type="line"/>
			<point x="343" y="826" type="line"/>
			<point x="336" y="832" type="line"/>
			<point x="189" y="797" type="line"/>
			<point x="183" y="771" type="line"/>
			<point x="280" y="777" type="line"/>
			<point x="265" y="794" type="line"/>
			<point x="191" y="426" type="line"/>
		</contour>
	</outline>
</glyph>
<glyph name="AE" format="2">
	<unicode hex="00C6"/>
	<advance width="880"/>
	<outline>
		<contour>
			<point x="-38" y="0" type="line"/>
			<point x="186" y="0" type="line"/>
			<point x="194" y="40" type="line"/>
			<point x="95" y="55" type="line"/>
			<point x="77" y="55" type="line"/>
			<point x="-30" y="40" type="line"/>
		</contour>
		<contour>
			<point x="22" y="0" type="line"/>
			<point x="79" y="0" type="line"/>
			<point x="540" y="670" type="line"/>
			<point x="489" y="670" type="line"/>
		</contour>
		<contour>
			<point x="220" y="244" type="line"/>
			<point x="481" y="244" type="line"/>
			<point x="490" y="290" type="line"/>
			<point x="251" y="290" type="line"/>
		</contour>
		<contour>
			<point x="309" y="0" type="line"/>
			<point x="435" y="0" type="line"/>
			<point x="445" y="55" type="line"/>
			<point x="439" y="55" type="line"/>
			<point x="317" y="40" type="line"/>
		</contour>
		<contour>
			<point x="365" y="630" type="line"/>
			<point x="486" y="615" type="line"/>
			<point x="548" y="615" type="line"/>
			<point x="559" y="670" type="line"/>
			<point x="373" y="670" type="line"/>
		</contour>
		<contour>
			<point x="394" y="0" type="line"/>
			<point x="482" y="0" type="line"/>
			<point x="498" y="103"/>
			<point x="516" y="207"/>
			<point x="535" y="310" type="curve" smooth="yes"/>
			<point x="603" y="670" type="line"/>
			<point x="515" y="670" type="line"/>
			<point x="499" y="567"/>
			<point x="481" y="463"/>
			<point x="462" y="360" type="curve" smooth="yes"/>
		</contour>
		<contour>
			<point x="435" y="0" type="line"/>
			<point x="808" y="0" type="line"/>
			<point x="847" y="178" type="line"/>
			<point x="797" y="178" type="line"/>
			<point x="734" y="0" type="line"/>
			<point x="789" y="50" type="line"/>
			<point x="445" y="50" type="line"/>
		</contour>
		<contour>
			<point x="497" y="319" type="line"/>
			<point x="722" y="319" type="line"/>
			<point x="730" y="365" type="line"/>
			<point x="506" y="365" type="line"/>
		</contour>
		<contour>
			<point x="549" y="620" type="line"/>
			<point x="843" y="620" type="line"/>
			<point x="811" y="670" type="line"/>
			<point x="811" y="492" type="line"/>
			<point x="861" y="492" type="line"/>
			<point x="885" y="670" type="line"/>
			<point x="559" y="670" type="line"/>
		</contour>
		<contour>
			<point x="690" y="224" type="line"/>
			<point x="732" y="224" type="line"/>
			<point x="777" y="461" type="line"/>
			<point x="735" y="461" type="line"/>
			<point x="697" y="355" type="line"/>
			<point x="694" y="335" type="line"/>
		</contour>
	</outline>
	<anchor name="aboveUC" x="658" y="691"/>
</glyph>
<glyph name="multiply" format="1">
	<unicode hex="00D7"/>
	<advance width="530"/>
	<outline>
		<contour>
			<point x="463" y="108" type="line"/>
			<point x="503" y="148" type="line"/>
			<point x="99" y="552" type="line"/>
			<point x="59" y="512" type="line"/>
		</contour>
		<contour>
			<point x="503" y="512" type="line"/>
			<point x="463" y="552" type="line"/>
			<point x="59" y="148" type="line"/>
			<point x="99" y="108" type="line"/>
		</contour>
	</outline>
</glyph>
<glyph name="Oslash" format="1">
	<unicode hex="00D8"/>
	<advance width="660"/>
	<outline>
		<contour>
			<point x="691" y="657" type="line"/>
			<point x="654" y="690" type="line"/>
			<point x="7" y="13" type="line"/>
			<point x="44" y="-20" type="line"/>
		</contour>
		<contour>
			<point x="302" y="-15" type="curve" smooth="yes"/>
			<point x="504" y="-15"/>
			<point x="651" y="179"/>
			<point x="651" y="404" type="curve" smooth="yes"/>
			<point x="651" y="572"/>
			<point x="554" y="685"/>
			<point x="415" y="685" type="curve" smooth="yes"/>
			<point x="218" y="685"/>
			<point x="69" y="491"/>
			<point x="69" y="265" type="curve" smooth="yes"/>
			<point x="69" y="89"/>
			<point x="167" y="-15"/>
		</contour>
		<contour>
			<point x="314" y="35" type="curve" smooth="yes"/>
			<point x="207" y="35"/>
			<point x="152" y="106"/>
			<point x="152" y="265" type="curve" smooth="yes"/>
			<point x="152" y="473"/>
			<point x="263" y="635"/>
			<point x="405" y="635" type="curve" smooth="yes"/>
			<point x="514" y="635"/>
			<point x="568" y="567"/>
			<point x="568" y="404" type="curve" smooth="yes"/>
			<point x="568" y="197"/>
			<point x="457" y="35"/>
		</contour>
		<contour>
			<point name="aboveUC" x="417" y="691" type="move"/>
		</contour>
	</outline>
</glyph>
<glyph name="Thorn" format="2">
	<unicode hex="00DE"/>
	<advance width="561"/>
	<outline>
		<contour>
			<point x="171" y="155" type="line"/>
			<point x="273" y="155" type="line" smooth="yes"/>
			<point x="456" y="155"/>
			<point x="563" y="241"/>
			<point x="563" y="365" type="curve" smooth="yes"/>
			<point x="563" y="469"/>
			<point x="485" y="535"/>
			<point x="328" y="535" type="curve" smooth="yes"/>
			<point x="246" y="535" type="line"/>
			<point x="237" y="489" type="line"/>
			<point x="321" y="489" type="line" smooth="yes"/>
			<point x="426" y="489"/>
			<point x="473" y="447"/>
			<point x="473" y="363" type="curve" smooth="yes"/>
			<point x="473" y="268"/>
			<point x="410" y="201"/>
			<point x="281" y="201" type="curve" smooth="yes"/>
			<point x="180" y="201" type="line"/>
		</contour>
		<contour>
			<point x="16" y="0" type="line"/>
			<point x="280" y="0" type="line"/>
			<point x="288" y="40" type="line"/>
			<point x="169" y="55" type="line"/>
			<point x="151" y="55" type="line"/>
			<point x="24" y="40" type="line"/>
		</contour>
		<contour>
			<point x="101" y="0" type="line"/>
			<point x="189" y="0" type="line"/>
			<point x="205" y="103"/>
			<point x="223" y="207"/>
			<point x="242" y="310" type="curve" smooth="yes"/>
			<point x="310" y="670" type="line"/>
			<point x="222" y="670" type="line"/>
			<point x="206" y="567"/>
			<point x="188" y="463"/>
			<point x="169" y="360" type="curve" smooth="yes"/>
		</contour>
		<contour>
			<point x="122" y="630" type="line"/>
			<point x="243" y="615" type="line"/>
			<point x="262" y="615" type="line"/>
			<point x="386" y="630" type="line"/>
			<point x="394" y="670" type="line"/>
			<point x="130" y="670" type="line"/>
		</contour>
	</outline>
</glyph>
<glyph name="ae" format="2">
	<unicode hex="00E6"/>
	<advance width="665"/>
	<outline>
		<contour>
			<point x="140" y="-13" type="curve" smooth="yes"/>
			<point x="201" y="-13"/>
			<point x="276" y="46"/>
			<point x="340" y="129" type="curve"/>
			<point x="335" y="163" type="line"/>
			<point x="263" y="82"/>
			<point x="219" y="55"/>
			<point x="181" y="55" type="curve" smooth="yes"/>
			<point x="145" y="55"/>
			<point x="121" y="84"/>
			<point x="121" y="145" type="curve" smooth="yes"/>
			<point x="121" y="234"/>
			<point x="159" y="312"/>
			<point x="207" y="362" type="curve" smooth="yes"/>
			<point x="244" y="400"/>
			<point x="286" y="421"/>
			<point x="318" y="421" type="curve" smooth="yes"/>
			<point x="353" y="421"/>
			<point x="384" y="408"/>
			<point x="412" y="379" type="curve"/>
			<point x="453" y="414" type="line"/>
			<point x="429" y="457"/>
			<point x="398" y="487"/>
			<point x="353" y="487" type="curve" smooth="yes"/>
			<point x="225" y="487"/>
			<point x="45" y="278"/>
			<point x="45" y="104" type="curve" smooth="yes"/>
			<point x="45" y="22"/>
			<point x="92" y="-13"/>
		</contour>
		<component base="e" xOffset="260"/>
	</outline>
	<anchor name="aboveLC" x="451" y="506"/>
	<anchor name="belowLC" x="330" y="-22"/>
</glyph>
<glyph name="divide" format="1">
	<unicode hex="00F7"/>
	<advance width="530"/>
	<outline>
		<contour>
			<point x="281" y="72" type="curve" smooth="yes"/>
			<point x="316" y="72"/>
			<point x="345" y="97"/>
			<point x="345" y="134" type="curve" smooth="yes"/>
			<point x="345" y="172"/>
			<point x="316" y="196"/>
			<point x="281" y="196" type="curve" smooth="yes"/>
			<point x="246" y="196"/>
			<point x="217" y="172"/>
			<point x="217" y="134" type="curve" smooth="yes"/>
			<point x="217" y="97"/>
			<point x="246" y="72"/>
		</contour>
		<contour>
			<point x="281" y="464" type="curve" smooth="yes"/>
			<point x="316" y="464"/>
			<point x="345" y="489"/>
			<point x="345" y="526" type="curve" smooth="yes"/>
			<point x="345" y="564"/>
			<point x="316" y="588"/>
			<point x="281" y="588" type="curve" smooth="yes"/>
			<point x="246" y="588"/>
			<point x="217" y="564"/>
			<point x="217" y="526" type="curve" smooth="yes"/>
			<point x="217" y="489"/>
			<point x="246" y="464"/>
		</contour>
		<component base="minus"/>
	</outline>
</glyph>
<glyph name="oslash" format="1">
	<unicode hex="00F8"/>
	<advance width="487"/>
	<outline>
		<contour>
			<point x="522" y="475" type="line"/>
			<point x="495" y="500" type="line"/>
			<point x="-7" y="5" type="line"/>
			<point x="21" y="-20" type="line"/>
		</contour>
		<component base="o"/>
		<contour>
			<point name="aboveLC" x="295" y="506" type="move"/>
		</contour>
	</outline>
</glyph>
<glyph name="aogonek" format="1">
	<unicode hex="0105"/>
	<advance width="521"/>
	<outline>
		<component base="a"/>
		<component base="ogonekcmb" xOffset="414"/>
		<contour>
			<point name="aboveLC" x="339" y="506" type="move"/>
		</contour>
	</outline>
</glyph>
<glyph name="dcaron" format="1">
	<unicode hex="010F"/>
	<advance width="543"/>
	<outline>
		<contour>
			<point x="648" y="749" type="curve" smooth="yes"/>
			<point x="632" y="749"/>
			<point x="621" y="747"/>
			<point x="606" y="741" type="curve"/>
			<point x="563" y="523" type="line"/>
			<point x="593" y="520" type="line"/>
			<point x="626" y="581" type="line" smooth="yes"/>
			<point x="650" y="626"/>
			<point x="681" y="686"/>
			<point x="681" y="719" type="curve" smooth="yes"/>
			<point x="681" y="732"/>
			<point x="677" y="749"/>
		</contour>
		<component base="d"/>
	</outline>
</glyph>
<glyph name="dcroat" format="1">
	<unicode hex="0111"/>
	<advance width="523"/>
	<outline>
		<contour>
			<point x="250" y="544" type="line"/>
			<point x="589" y="544" type="line"/>
			<point x="597" y="584" type="line"/>
			<point x="258" y="584" type="line"/>
		</contour>
		<component base="d"/>
	</outline>
</glyph>
<glyph name="eogonek" format="1">
	<unicode hex="0119"/>
	<advance width="405"/>
	<outline>
		<component base="e"/>
		<component base="ogonekcmb" xOffset="249"/>
		<contour>
			<point name="aboveLC" x="322" y="506" type="move"/>
		</contour>
	</outline>
</glyph>
<glyph name="gcommaaccent" format="1">
	<unicode hex="0123"/>
	<advance width="485"/>
	<outline>
		<contour>
			<point x="359" y="770" type="line"/>
			<point x="295" y="734"/>
			<point x="252" y="704"/>
			<point x="252" y="637" type="curve" smooth="yes"/>
			<point x="252" y="625"/>
			<point x="254" y="613"/>
			<point x="262" y="593" type="curve"/>
			<point x="275" y="581"/>
			<point x="289" y="575"/>
			<point x="303" y="575" type="curve" smooth="yes"/>
			<point x="327" y="575"/>
			<point x="347" y="592"/>
			<point x="347" y="617" type="curve" smooth="yes"/>
			<point x="347" y="646"/>
			<point x="327" y="670"/>
			<point x="293" y="686" type="curve"/>
			<point x="290" y="652" type="line"/>
			<point x="314" y="702"/>
			<point x="332" y="719"/>
			<point x="374" y="747" type="curve"/>
		</contour>
		<component base="g"/>
	</outline>
</glyph>
<glyph name="dotlessi" format="2">
	<unicode hex="0131"/>
	<advance width="305"/>
	<outline>
		<contour>
			<point x="91" y="38" type="curve" smooth="yes"/>
			<point x="91" y="4"/>
			<point x="117" y="-13"/>
			<point x="144" y="-13" type="curve" smooth="yes"/>
			<point x="215" y="-13"/>
			<point x="266" y="49"/>
			<point x="311" y="109" type="curve"/>
			<point x="287" y="128" type="line"/>
			<point x="246" y="80"/>
			<point x="214" y="55"/>
			<point x="190" y="55" type="curve" smooth="yes"/>
			<point x="179" y="55"/>
			<point x="168" y="63"/>
			<point x="168" y="77" type="curve" smooth="yes"/>
			<point x="168" y="89"/>
			<point x="172" y="110"/>
			<point x="177" y="135" type="curve" smooth="yes"/>
			<point x="248" y="477" type="line"/>
			<point x="235" y="487" type="line"/>
			<point x="66" y="436" type="line"/>
			<point x="62" y="407" type="line"/>
			<point x="182" y="400" type="line"/>
			<point x="165" y="414" type="line"/>
			<point x="101" y="110" type="line" smooth="yes"/>
			<point x="92" y="69"/>
			<point x="91" y="52"/>
		</contour>
	</outline>
	<anchor name="aboveLC" x="215" y="506"/>
	<anchor name="belowLC" x="138" y="-22"/>
	<anchor name="ogonek" x="181" y="0"/>
</glyph>
<glyph name="Lcaron" format="1">
	<unicode hex="013D"/>
	<advance width="568"/>
	<outline>
		<contour>
			<point x="571" y="739" type="curve" smooth="yes"/>
			<point x="555" y="739"/>
			<point x="544" y="737"/>
			<point x="529" y="731" type="curve"/>
			<point x="486" y="513" type="line"/>
			<point x="516" y="510" type="line"/>
			<point x="549" y="571" type="line" smooth="yes"/>
			<point x="573" y="616"/>
			<point x="604" y="676"/>
			<point x="604" y="709" type="curve" smooth="yes"/>
			<point x="604" y="722"/>
			<point x="600" y="739"/>
		</contour>
		<component base="L"/>
	</outline>
</glyph>
<glyph name="lcaron" format="1">
	<unicode hex="013E"/>
	<advance width="302"/>
	<outline>
		<contour>
			<point x="407" y="749" type="curve" smooth="yes"/>
			<point x="391" y="749"/>
			<point x="380" y="747"/>
			<point x="365" y="741" type="curve"/>
			<point x="322" y="523" type="line"/>
			<point x="352" y="520" type="line"/>
			<point x="385" y="581" type="line" smooth="yes"/>
			<point x="409" y="626"/>
			<point x="440" y="686"/>
			<point x="440" y="719" type="curve" smooth="yes"/>
			<point x="440" y="732"/>
			<point x="436" y="749"/>
		</contour>
		<component base="l"/>
	</outline>
</glyph>
<glyph name="Lslash" format="1">
	<unicode hex="0141"/>
	<advance width="568"/>
	<outline>
		<contour>
			<point x="435" y="476" type="line"/>
			<point x="202" y="355" type="line"/>
			<point x="191" y="295" type="line"/>
			<point x="425" y="416" type="line"/>
		</contour>
		<contour>
			<point x="203" y="361" type="line"/>
			<point x="48" y="281" type="line"/>
			<point x="38" y="222" type="line"/>
			<point x="192" y="301" type="line"/>
		</contour>
		<component base="L"/>
	</outline>
</glyph>
<glyph name="lslash" format="1">
	<unicode hex="0142"/>
	<advance width="286"/>
	<outline>
		<contour>
			<point x="188" y="414" type="line"/>
			<point x="53" y="351" type="line"/>
			<point x="42" y="297" type="line"/>
			<point x="177" y="360" type="line"/>
		</contour>
		<contour>
			<point x="324" y="473" type="line"/>
			<point x="187" y="408" type="line"/>
			<point x="176" y="354" type="line"/>
			<point x="313" y="418" type="line"/>
		</contour>
		<component base="l"/>
	</outline>
</glyph>
<glyph name="OE" format="1">
	<unicode hex="0152"/>
	<advance width="899"/>
	<outline>
		<contour>
			<point x="444" y="0" type="curve"/>
			<point x="454" y="51" type="line"/>
			<point x="420" y="40"/>
			<point x="383" y="35"/>
			<point x="346" y="35" type="curve" smooth="yes"/>
			<point x="237" y="35"/>
			<point x="159" y="129"/>
			<point x="159" y="270" type="curve" smooth="yes"/>
			<point x="159" y="470"/>
			<point x="287" y="635"/>
			<point x="451" y="635" type="curve" smooth="yes"/>
			<point x="491" y="635"/>
			<point x="533" y="627"/>
			<point x="556" y="616" type="curve"/>
			<point x="567" y="670" type="line"/>
			<point x="532" y="680"/>
			<point x="498" y="685"/>
			<point x="462" y="685" type="curve" smooth="yes"/>
			<point x="227" y="685"/>
			<point x="69" y="477"/>
			<point x="69" y="262" type="curve" smooth="yes"/>
			<point x="69" y="94"/>
			<point x="178" y="-15"/>
			<point x="333" y="-15" type="curve" smooth="yes"/>
			<point x="373" y="-15"/>
			<point x="406" y="-9"/>
		</contour>
		<contour>
			<point x="403" y="0" type="line"/>
			<point x="491" y="0" type="line"/>
			<point x="507" y="103"/>
			<point x="525" y="207"/>
			<point x="544" y="310" type="curve" smooth="yes"/>
			<point x="612" y="670" type="line"/>
			<point x="524" y="670" type="line"/>
			<point x="508" y="567"/>
			<point x="490" y="463"/>
			<point x="471" y="360" type="curve" smooth="yes"/>
		</contour>
		<contour>
			<point x="444" y="0" type="line"/>
			<point x="817" y="0" type="line"/>
			<point x="856" y="178" type="line"/>
			<point x="806" y="178" type="line"/>
			<point x="743" y="0" type="line"/>
			<point x="798" y="50" type="line"/>
			<point x="454" y="50" type="line"/>
		</contour>
		<contour>
			<point x="506" y="319" type="line"/>
			<point x="731" y="319" type="line"/>
			<point x="739" y="365" type="line"/>
			<point x="515" y="365" type="line"/>
		</contour>
		<contour>
			<point x="558" y="620" type="line"/>
			<point x="862" y="620" type="line"/>
			<point x="830" y="670" type="line"/>
			<point x="830" y="492" type="line"/>
			<point x="880" y="492" type="line"/>
			<point x="904" y="670" type="line"/>
			<point x="568" y="670" type="line"/>
		</contour>
		<contour>
			<point x="699" y="224" type="line"/>
			<point x="741" y="224" type="line"/>
			<point x="786" y="461" type="line"/>
			<point x="744" y="461" type="line"/>
			<point x="706" y="355" type="line"/>
			<point x="703" y="335" type="line"/>
		</contour>
		<contour>
			<point name="aboveUC" x="569" y="691" type="move"/>
		</contour>
	</outline>
</glyph>
<glyph name="oe" format="2">
	<unicode hex="0153"/>
	<advance width="742"/>
	<outline>
		<contour>
			<point x="220" y="-13" type="curve" smooth="yes"/>
			<point x="308" y="-13"/>
			<point x="387" y="51"/>
			<point x="432" y="143" type="curve"/>
			<point x="470" y="342" type="line"/>
			<point x="454" y="436"/>
			<point x="394" y="487"/>
			<point x="314" y="487" type="curve" smooth="yes"/>
			<point x="173" y="487"/>
			<point x="54" y="343"/>
			<point x="54" y="163" type="curve" smooth="yes"/>
			<point x="54" y="49"/>
			<point x="128" y="-13"/>
		</contour>
		<contour>
			<point x="231" y="27" type="curve" smooth="yes"/>
			<point x="175" y="27"/>
			<point x="134" y="70"/>
			<point x="134" y="176" type="curve" smooth="yes"/>
			<point x="134" y="325"/>
			<point x="208" y="447"/>
			<point x="303" y="447" type="curve" smooth="yes"/>
			<point x="358" y="447"/>
			<point x="396" y="405"/>
			<point x="396" y="296" type="curve" smooth="yes"/>
			<point x="396" y="162"/>
			<point x="330" y="27"/>
		</contour>
		<component base="e" xOffset="337"/>
	</outline>
	<anchor name="aboveLC" x="469" y="506"/>
</glyph>
<glyph name="tcaron" format="1">
	<unicode hex="0165"/>
	<advance width="329"/>
	<outline>
		<contour>
			<point x="424" y="750" type="curve" smooth="yes"/>
			<point x="408" y="750"/>
			<point x="397" y="748"/>
			<point x="382" y="742" type="curve"/>
			<point x="339" y="524" type="line"/>
			<point x="369" y="521" type="line"/>
			<point x="402" y="582" type="line" smooth="yes"/>
			<point x="426" y="627"/>
			<point x="457" y="687"/>
			<point x="457" y="720" type="curve" smooth="yes"/>
			<point x="457" y="733"/>
			<point x="453" y="750"/>
		</contour>
		<component base="t"/>
	</outline>
</glyph>
<glyph name="Uogonek" format="1">
	<unicode hex="0172"/>
	<advance width="750"/>
	<outline>
		<component base="U"/>
		<component base="ogonekcmb" xOffset="455"/>
		<contour>
			<point name="aboveUC" x="476" y="691" type="move"/>
		</contour>
	</outline>
</glyph>
<glyph name="uogonek" format="1">
	<unicode hex="0173"/>
	<advance width="572"/>
	<outline>
		<component base="u"/>
		<component base="ogonekcmb" xOffset="449"/>
		<contour>
			<point name="aboveLC" x="321" y="506" type="move"/>
		</contour>
	</outline>
</glyph>
<glyph name="florin" format="1">
	<unicode hex="0192"/>
	<advance width="472"/>
	<outline>
		<contour>
			<point x="169" y="345" type="line"/>
			<point x="459" y="345" type="line"/>
			<point x="469" y="395" type="line"/>
			<point x="179" y="395" type="line"/>
		</contour>
		<contour>
			<point x="347" y="349" type="line" smooth="yes"/>
			<point x="373" y="470"/>
			<point x="382" y="530"/>
			<point x="414" y="577" type="curve" smooth="yes"/>
			<point x="429" y="598"/>
			<point x="448" y="616"/>
			<point x="478" y="628" type="curve"/>
			<point x="448" y="628" type="line"/>
			<point x="473" y="595" type="line" smooth="yes"/>
			<point x="492" y="571"/>
			<point x="511" y="563"/>
			<point x="531" y="563" type="curve" smooth="yes"/>
			<point x="561" y="563"/>
			<point x="580" y="581"/>
			<point x="589" y="607" type="curve"/>
			<point x="584" y="637"/>
			<point x="553" y="660"/>
			<point x="504" y="660" type="curve" smooth="yes"/>
			<point x="466" y="660"/>
			<point x="422" y="646"/>
			<point x="382" y="605" type="curve" smooth="yes"/>
			<point x="334" y="555"/>
			<point x="306" y="483"/>
			<point x="277" y="354" type="curve" smooth="yes"/>
			<point x="247" y="217" type="line" smooth="yes"/>
			<point x="220" y="96"/>
			<point x="211" y="30"/>
			<point x="179" y="-17" type="curve" smooth="yes"/>
			<point x="164" y="-38"/>
			<point x="145" y="-56"/>
			<point x="115" y="-68" type="curve"/>
			<point x="146" y="-68" type="line"/>
			<point x="120" y="-35" type="line" smooth="yes"/>
			<point x="101" y="-11"/>
			<point x="82" y="-3"/>
			<point x="61" y="-3" type="curve" smooth="yes"/>
			<point x="31" y="-3"/>
			<point x="12" y="-21"/>
			<point x="3" y="-47" type="curve"/>
			<point x="8" y="-77"/>
			<point x="40" y="-100"/>
			<point x="89" y="-100" type="curve" smooth="yes"/>
			<point x="127" y="-100"/>
			<point x="171" y="-86"/>
			<point x="210" y="-45" type="curve" smooth="yes"/>
			<point x="263" y="9"/>
			<point x="288" y="86"/>
			<point x="321" y="233" type="curve" smooth="yes"/>
		</contour>
	</outline>
</glyph>
<glyph name="gscript" format="2">
	<unicode hex="0261"/>
	<advance width="476"/>
	<outline>
		<contour>
			<point x="103" y="-250" type="curve" smooth="yes"/>
			<point x="168" y="-250"/>
			<point x="231" y="-224"/>
			<point x="284" y="-170" type="curve" smooth="yes"/>
			<point x="336" y="-118"/>
			<point x="362" y="-52"/>
			<point x="393" y="104" type="curve" smooth="yes"/>
			<point x="440" y="342" type="line"/>
			<point x="473" y="488" type="line"/>
			<point x="455" y="497" type="line"/>
			<point x="389" y="441" type="line"/>
			<point x="316" y="72" type="line" smooth="yes"/>
			<point x="292" y="-50"/>
			<point x="271" y="-104"/>
			<point x="240" y="-142" type="curve" smooth="yes"/>
			<point x="205" y="-187"/>
			<point x="150" y="-207"/>
			<point x="103" y="-207" type="curve" smooth="yes"/>
			<point x="76" y="-207"/>
			<point x="43" y="-205"/>
			<point x="10" y="-190" type="curve"/>
			<point x="58" y="-224" type="line"/>
			<point x="52" y="-152" type="line" smooth="yes"/>
			<point x="48" y="-106"/>
			<point x="37" y="-84"/>
			<point x="5" y="-84" type="curve" smooth="yes"/>
			<point x="-14" y="-84"/>
			<point x="-29" y="-93"/>
			<point x="-43" y="-114" type="curve"/>
			<point x="-43" y="-210"/>
			<point x="11" y="-250"/>
		</contour>
		<contour>
			<point x="140" y="-13" type="curve" smooth="yes"/>
			<point x="211" y="-13"/>
			<point x="300" y="67"/>
			<point x="370" y="171" type="curve"/>
			<point x="361" y="193" type="line"/>
			<point x="273" y="88"/>
			<point x="223" y="55"/>
			<point x="181" y="55" type="curve" smooth="yes"/>
			<point x="145" y="55"/>
			<point x="121" y="84"/>
			<point x="121" y="145" type="curve" smooth="yes"/>
			<point x="121" y="234"/>
			<point x="159" y="312"/>
			<point x="207" y="362" type="curve" smooth="yes"/>
			<point x="244" y="400"/>
			<point x="286" y="421"/>
			<point x="318" y="421" type="curve" smooth="yes"/>
			<point x="353" y="421"/>
			<point x="387" y="400"/>
			<point x="412" y="379" type="curve"/>
			<point x="448" y="404" type="line"/>
			<point x="422" y="450"/>
			<point x="396" y="487"/>
			<point x="353" y="487" type="curve" smooth="yes"/>
			<point x="225" y="487"/>
			<point x="45" y="278"/>
			<point x="45" y="104" type="curve" smooth="yes"/>
			<point x="45" y="22"/>
			<point x="92" y="-13"/>
		</contour>
	</outline>
	<anchor name="aboveLC" x="356" y="506"/>
	<anchor name="belowLC" x="97" y="-255"/>
</glyph>
<glyph name="r.sups" format="2">
	<unicode hex="02B3"/>
	<advance width="285"/>
	<outline>
		<contour>
			<point x="220" y="584" type="line"/>
			<point x="248" y="637"/>
			<point x="279" y="681"/>
			<point x="323" y="715" type="curve"/>
			<point x="289" y="717" type="line"/>
			<point x="313" y="690"/>
			<point x="332" y="679"/>
			<point x="348" y="679" type="curve" smooth="yes"/>
			<point x="372" y="679"/>
			<point x="385" y="699"/>
			<point x="386" y="724" type="curve"/>
			<point x="377" y="742"/>
			<point x="360" y="750"/>
			<point x="340" y="750" type="curve" smooth="yes"/>
			<point x="295" y="750"/>
			<point x="250" y="686"/>
			<point x="219" y="617" type="curve"/>
		</contour>
		<contour>
			<point x="130" y="426" type="line"/>
			<point x="137" y="420" type="line"/>
			<point x="190" y="425" type="line"/>
			<point x="199" y="472"/>
			<point x="207" y="518"/>
			<point x="217" y="565" type="curve" smooth="yes"/>
			<point x="231" y="627" type="line"/>
			<point x="232" y="636" type="line"/>
			<point x="250" y="742" type="line"/>
			<point x="240" y="751" type="line"/>
			<point x="123" y="713" type="line"/>
			<point x="120" y="691" type="line"/>
			<point x="204" y="685" type="line"/>
			<point x="188" y="699" type="line"/>
		</contour>
	</outline>
</glyph>
<glyph name="w.sups" format="2">
	<unicode hex="02B7"/>
	<advance width="513"/>
	<outline>
		<contour>
			<point x="201" y="424" type="curve"/>
			<point x="232" y="423" type="line"/>
			<point x="283" y="482"/>
			<point x="328" y="547"/>
			<point x="366" y="620" type="curve"/>
			<point x="370" y="564"/>
			<point x="379" y="440"/>
			<point x="381" y="424" type="curve"/>
			<point x="412" y="423" type="line"/>
			<point x="481" y="493"/>
			<point x="538" y="568"/>
			<point x="570" y="628" type="curve" smooth="yes"/>
			<point x="599" y="678"/>
			<point x="603" y="697"/>
			<point x="603" y="713" type="curve" smooth="yes"/>
			<point x="604" y="728"/>
			<point x="602" y="735"/>
			<point x="599" y="742" type="curve"/>
			<point x="595" y="747"/>
			<point x="587" y="751"/>
			<point x="575" y="751" type="curve" smooth="yes"/>
			<point x="552" y="751"/>
			<point x="531" y="736"/>
			<point x="531" y="700" type="curve" smooth="yes"/>
			<point x="531" y="692"/>
			<point x="531" y="680"/>
			<point x="547" y="613" type="curve"/>
			<point x="555" y="668" type="line"/>
			<point x="551" y="660"/>
			<point x="546" y="653"/>
			<point x="542" y="646" type="curve" smooth="yes"/>
			<point x="503" y="577"/>
			<point x="473" y="536"/>
			<point x="434" y="489" type="curve"/>
			<point x="431" y="542"/>
			<point x="420" y="731"/>
			<point x="418" y="739" type="curve"/>
			<point x="385" y="739" type="line"/>
			<point x="347" y="653"/>
			<point x="302" y="573"/>
			<point x="252" y="498" type="curve"/>
			<point x="249" y="558"/>
			<point x="244" y="663"/>
			<point x="236" y="698" type="curve" smooth="yes"/>
			<point x="228" y="733"/>
			<point x="219" y="750"/>
			<point x="189" y="750" type="curve" smooth="yes"/>
			<point x="157" y="750"/>
			<point x="128" y="724"/>
			<point x="102" y="673" type="curve"/>
			<point x="118" y="660" type="line"/>
			<point x="137" y="684"/>
			<point x="148" y="694"/>
			<point x="160" y="694" type="curve" smooth="yes"/>
			<point x="170" y="694"/>
			<point x="175" y="691"/>
			<point x="180" y="668" type="curve" smooth="yes"/>
			<point x="190" y="624"/>
			<point x="195" y="495"/>
		</contour>
	</outline>
</glyph>
<glyph name="y.sups" format="2">
	<unicode hex="02B8"/>
	<advance width="338"/>
	<outline>
		<contour>
			<point x="28" y="315" type="curve"/>
			<point x="30" y="288"/>
			<point x="48" y="270"/>
			<point x="79" y="270" type="curve" smooth="yes"/>
			<point x="119" y="270"/>
			<point x="159" y="295"/>
			<point x="200" y="338" type="curve" smooth="yes"/>
			<point x="231" y="369"/>
			<point x="249" y="399"/>
			<point x="267" y="426" type="curve" smooth="yes"/>
			<point x="305" y="479"/>
			<point x="332" y="526"/>
			<point x="357" y="567" type="curve" smooth="yes"/>
			<point x="382" y="607"/>
			<point x="396" y="636"/>
			<point x="411" y="663" type="curve" smooth="yes"/>
			<point x="425" y="691"/>
			<point x="430" y="705"/>
			<point x="430" y="724" type="curve" smooth="yes"/>
			<point x="430" y="742"/>
			<point x="419" y="753"/>
			<point x="402" y="753" type="curve" smooth="yes"/>
			<point x="381" y="753"/>
			<point x="369" y="736"/>
			<point x="348" y="660" type="curve" smooth="yes"/>
			<point x="326" y="579"/>
			<point x="302" y="530"/>
			<point x="256" y="449" type="curve"/>
			<point x="240" y="428"/>
			<point x="209" y="387"/>
			<point x="188" y="368" type="curve" smooth="yes"/>
			<point x="159" y="342"/>
			<point x="127" y="317"/>
			<point x="92" y="299" type="curve"/>
			<point x="132" y="310" type="line"/>
			<point x="100" y="338"/>
			<point x="87" y="348"/>
			<point x="68" y="348" type="curve" smooth="yes"/>
			<point x="48" y="348"/>
			<point x="32" y="336"/>
		</contour>
		<contour>
			<point x="262" y="448" type="line"/>
			<point x="260" y="521"/>
			<point x="253" y="595"/>
			<point x="243" y="668" type="curve" smooth="yes"/>
			<point x="233" y="734"/>
			<point x="219" y="750"/>
			<point x="191" y="750" type="curve" smooth="yes"/>
			<point x="162" y="750"/>
			<point x="130" y="727"/>
			<point x="102" y="673" type="curve"/>
			<point x="118" y="660" type="line"/>
			<point x="139" y="687"/>
			<point x="149" y="694"/>
			<point x="160" y="694" type="curve" smooth="yes"/>
			<point x="172" y="694"/>
			<point x="178" y="687"/>
			<point x="189" y="625" type="curve" smooth="yes"/>
			<point x="203" y="547"/>
			<point x="211" y="466"/>
			<point x="216" y="384" type="curve"/>
		</contour>
	</outline>
</glyph>
<glyph name="s.sups" format="2">
	<unicode hex="02E2"/>
	<advance width="259"/>
	<outline>
		<contour>
			<point x="180" y="425" type="line"/>
			<point x="168" y="472" type="line" smooth="yes"/>
			<point x="162" y="496"/>
			<point x="154" y="507"/>
			<point x="133" y="507" type="curve" smooth="yes"/>
			<point x="120" y="507"/>
			<point x="109" y="497"/>
			<point x="105" y="481" type="curve"/>
			<point x="111" y="439"/>
			<point x="139" y="416"/>
			<point x="194" y="416" type="curve" smooth="yes"/>
			<point x="267" y="416"/>
			<point x="314" y="458"/>
			<point x="314" y="515" type="curve" smooth="yes"/>
			<point x="314" y="551"/>
			<point x="300" y="572"/>
			<point x="256" y="603" type="curve" smooth="yes"/>
			<point x="218" y="630"/>
			<point x="203" y="645"/>
			<point x="203" y="673" type="curve" smooth="yes"/>
			<point x="203" y="700"/>
			<point x="221" y="726"/>
			<point x="267" y="726" type="curve" smooth="yes"/>
			<point x="277" y="726"/>
			<point x="287" y="725"/>
			<point x="293" y="723" type="curve"/>
			<point x="268" y="739" type="line"/>
			<point x="281" y="699" type="line" smooth="yes"/>
			<point x="288" y="676"/>
			<point x="302" y="664"/>
			<point x="318" y="664" type="curve" smooth="yes"/>
			<point x="332" y="664"/>
			<point x="343" y="673"/>
			<point x="347" y="689" type="curve"/>
			<point x="336" y="730"/>
			<point x="306" y="750"/>
			<point x="257" y="750" type="curve" smooth="yes"/>
			<point x="193" y="750"/>
			<point x="149" y="706"/>
			<point x="149" y="649" type="curve" smooth="yes"/>
			<point x="149" y="610"/>
			<point x="176" y="585"/>
			<point x="213" y="557" type="curve" smooth="yes"/>
			<point x="250" y="531"/>
			<point x="258" y="515"/>
			<point x="258" y="494" type="curve" smooth="yes"/>
			<point x="258" y="462"/>
			<point x="231" y="440"/>
			<point x="185" y="440" type="curve" smooth="yes"/>
			<point x="175" y="440"/>
			<point x="164" y="441"/>
			<point x="151" y="444" type="curve"/>
		</contour>
	</outline>
</glyph>
<glyph name="x.sups" format="2">
	<unicode hex="02E3"/>
	<advance width="367"/>
	<outline>
		<contour>
			<point x="78" y="466" type="curve"/>
			<point x="81" y="431"/>
			<point x="108" y="416"/>
			<point x="135" y="416" type="curve" smooth="yes"/>
			<point x="155" y="416"/>
			<point x="170" y="424"/>
			<point x="186" y="442" type="curve" smooth="yes"/>
			<point x="215" y="477"/>
			<point x="245" y="520"/>
			<point x="281" y="579" type="curve"/>
			<point x="272" y="601" type="line"/>
			<point x="243" y="567"/>
			<point x="198" y="493"/>
			<point x="166" y="465" type="curve" smooth="yes"/>
			<point x="158" y="457"/>
			<point x="151" y="451"/>
			<point x="143" y="445" type="curve"/>
			<point x="166" y="439" type="line"/>
			<point x="150" y="464" type="line" smooth="yes"/>
			<point x="135" y="488"/>
			<point x="128" y="496"/>
			<point x="111" y="496" type="curve" smooth="yes"/>
			<point x="98" y="496"/>
			<point x="82" y="486"/>
		</contour>
		<contour>
			<point x="285" y="466" type="line" smooth="yes"/>
			<point x="298" y="426"/>
			<point x="313" y="415"/>
			<point x="336" y="415" type="curve" smooth="yes"/>
			<point x="374" y="415"/>
			<point x="415" y="451"/>
			<point x="447" y="500" type="curve"/>
			<point x="429" y="513" type="line"/>
			<point x="405" y="485"/>
			<point x="383" y="468"/>
			<point x="366" y="468" type="curve" smooth="yes"/>
			<point x="348" y="468"/>
			<point x="337" y="474"/>
			<point x="328" y="504" type="curve" smooth="yes"/>
			<point x="270" y="691" type="line" smooth="yes"/>
			<point x="257" y="733"/>
			<point x="243" y="750"/>
			<point x="215" y="750" type="curve" smooth="yes"/>
			<point x="185" y="750"/>
			<point x="153" y="726"/>
			<point x="127" y="674" type="curve"/>
			<point x="143" y="660" type="line"/>
			<point x="163" y="688"/>
			<point x="181" y="695"/>
			<point x="191" y="695" type="curve" smooth="yes"/>
			<point x="205" y="695"/>
			<point x="210" y="687"/>
			<point x="219" y="661" type="curve" smooth="yes"/>
		</contour>
		<contour>
			<point x="284" y="568" type="line"/>
			<point x="309" y="598"/>
			<point x="355" y="671"/>
			<point x="386" y="698" type="curve" smooth="yes"/>
			<point x="395" y="706"/>
			<point x="403" y="714"/>
			<point x="412" y="721" type="curve"/>
			<point x="381" y="722" type="line"/>
			<point x="397" y="699" type="line" smooth="yes"/>
			<point x="410" y="680"/>
			<point x="422" y="673"/>
			<point x="437" y="673" type="curve" smooth="yes"/>
			<point x="454" y="673"/>
			<point x="468" y="689"/>
			<point x="468" y="713" type="curve"/>
			<point x="463" y="738"/>
			<point x="440" y="750"/>
			<point x="421" y="750" type="curve" smooth="yes"/>
			<point x="399" y="750"/>
			<point x="383" y="742"/>
			<point x="363" y="719" type="curve" smooth="yes"/>
			<point x="343" y="694"/>
			<point x="309" y="648"/>
			<point x="274" y="589" type="curve"/>
		</contour>
	</outline>
</glyph>
<glyph name="gravecmb" format="1">
	<unicode hex="0300"/>
	<outline>
		<contour>
			<point x="91" y="549" type="line"/>
			<point x="16" y="717" type="line" smooth="yes"/>
			<point x="4" y="743"/>
			<point x="-12" y="761"/>
			<point x="-34" y="761" type="curve" smooth="yes"/>
			<point x="-54" y="761"/>
			<point x="-72" y="748"/>
			<point x="-72" y="727" type="curve" smooth="yes"/>
			<point x="-72" y="710"/>
			<point x="-67" y="696"/>
			<point x="-51" y="677" type="curve" smooth="yes"/>
			<point x="68" y="534" type="line"/>
		</contour>
		<contour>
			<point name="_aboveLC" x="71" y="506" type="move"/>
		</contour>
	</outline>
</glyph>
<glyph name="acutecmb" format="2">
	<unicode hex="0301"/>
	<outline>
		<contour>
			<point x="64" y="549" type="curve"/>
			<point x="87" y="534" type="line"/>
			<point x="127" y="582"/>
			<point x="166" y="629"/>
			<point x="206" y="677" type="curve" smooth="yes"/>
			<point x="222" y="696"/>
			<point x="227" y="710"/>
			<point x="227" y="725" type="curve" smooth="yes"/>
			<point x="227" y="748"/>
			<point x="210" y="759"/>
			<point x="189" y="759" type="curve" smooth="yes"/>
			<point x="167" y="759"/>
			<point x="151" y="743"/>
			<point x="139" y="717" type="curve" smooth="yes"/>
			<point x="114" y="661"/>
			<point x="89" y="605"/>
		</contour>
	</outline>
	<anchor name="_aboveLC" x="71" y="506"/>
	<anchor name="aboveLC" x="127" y="769"/>
</glyph>
<glyph name="circumflexcmb" format="1">
	<unicode hex="0302"/>
	<outline>
		<contour>
			<point x="208" y="546" type="line"/>
			<point x="235" y="567" type="line"/>
			<point x="135" y="743" type="line"/>
			<point x="103" y="743" type="line"/>
			<point x="-52" y="567" type="line"/>
			<point x="-33" y="546" type="line"/>
			<point x="132" y="690" type="line"/>
			<point x="86" y="690" type="line"/>
		</contour>
		<contour>
			<point name="_aboveLC" x="71" y="506" type="move"/>
		</contour>
		<contour>
			<point name="aboveLC" x="119" y="733" type="move"/>
		</contour>
	</outline>
</glyph>
<glyph name="macroncmb" format="1">
	<unicode hex="0304"/>
	<outline>
		<contour>
			<point x="-58" y="613" type="line"/>
			<point x="202" y="613" type="line"/>
			<point x="214" y="674" type="line"/>
			<point x="-46" y="674" type="line"/>
		</contour>
		<contour>
			<point name="_aboveLC" x="74" y="520" type="move"/>
		</contour>
	</outline>
</glyph>
<glyph name="brevecmb" format="1">
	<unicode hex="0306"/>
	<outline>
		<contour>
			<point x="77" y="575" type="curve" smooth="yes"/>
			<point x="169" y="575"/>
			<point x="231" y="650"/>
			<point x="253" y="723" type="curve"/>
			<point x="220" y="735" type="line"/>
			<point x="194" y="684"/>
			<point x="149" y="644"/>
			<point x="86" y="644" type="curve" smooth="yes"/>
			<point x="27" y="644"/>
			<point x="-5" y="683"/>
			<point x="-11" y="735" type="curve"/>
			<point x="-47" y="723" type="line"/>
			<point x="-56" y="655"/>
			<point x="-16" y="575"/>
		</contour>
		<contour>
			<point name="_aboveLC" x="69" y="500" type="move"/>
		</contour>
	</outline>
</glyph>
<glyph name="dotaccentcmb" format="2">
	<unicode hex="0307"/>
	<outline>
		<contour>
			<point x="106" y="627" type="curve" smooth="yes"/>
			<point x="135" y="627"/>
			<point x="161" y="656"/>
			<point x="161" y="688" type="curve" smooth="yes"/>
			<point x="161" y="720"/>
			<point x="140" y="741"/>
			<point x="110" y="741" type="curve" smooth="yes"/>
			<point x="81" y="741"/>
			<point x="55" y="713"/>
			<point x="55" y="680" type="curve" smooth="yes"/>
			<point x="55" y="648"/>
			<point x="76" y="627"/>
		</contour>
	</outline>
	<anchor name="_aboveLC" x="71" y="506"/>
	<anchor name="aboveLC" x="113" y="706"/>
</glyph>
<glyph name="dieresiscmb" format="1">
	<unicode hex="0308"/>
	<outline>
		<contour>
			<point x="-9" y="605" type="curve" smooth="yes"/>
			<point x="21" y="605"/>
			<point x="46" y="629"/>
			<point x="46" y="663" type="curve" smooth="yes"/>
			<point x="46" y="688"/>
			<point x="27" y="707"/>
			<point x="1" y="707" type="curve" smooth="yes"/>
			<point x="-27" y="707"/>
			<point x="-54" y="684"/>
			<point x="-54" y="650" type="curve" smooth="yes"/>
			<point x="-54" y="622"/>
			<point x="-33" y="605"/>
		</contour>
		<contour>
			<point x="194" y="605" type="curve" smooth="yes"/>
			<point x="224" y="605"/>
			<point x="249" y="629"/>
			<point x="249" y="663" type="curve" smooth="yes"/>
			<point x="249" y="688"/>
			<point x="230" y="707"/>
			<point x="204" y="707" type="curve" smooth="yes"/>
			<point x="177" y="707"/>
			<point x="150" y="684"/>
			<point x="150" y="650" type="curve" smooth="yes"/>
			<point x="150" y="622"/>
			<point x="171" y="605"/>
		</contour>
		<contour>
			<point name="_aboveLC" x="71" y="506" type="move"/>
		</contour>
		<contour>
			<point name="aboveLC" x="108" y="680" type="move"/>
		</contour>
	</outline>
</glyph>
<glyph name="hoicmb" format="2">
	<unicode hex="0309"/>
	<outline>
		<contour>
			<point x="69" y="553" type="line"/>
			<point x="136" y="561"/>
			<point x="171" y="603"/>
			<point x="171" y="653" type="curve" smooth="yes"/>
			<point x="171" y="708"/>
			<point x="132" y="738"/>
			<point x="55" y="745" type="curve"/>
			<point x="40" y="685" type="line"/>
			<point x="98" y="675"/>
			<point x="121" y="664"/>
			<point x="121" y="634" type="curve" smooth="yes"/>
			<point x="121" y="609"/>
			<point x="104" y="590"/>
			<point x="63" y="583" type="curve"/>
		</contour>
	</outline>
	<anchor name="_aboveLC" x="56" y="506"/>
</glyph>
<glyph name="ringcmb" format="1">
	<unicode hex="030A"/>
	<outline>
		<contour>
			<point x="92" y="549" type="curve" smooth="yes"/>
			<point x="147" y="549"/>
			<point x="206" y="589"/>
			<point x="206" y="662" type="curve" smooth="yes"/>
			<point x="206" y="717"/>
			<point x="160" y="751"/>
			<point x="109" y="751" type="curve" smooth="yes"/>
			<point x="56" y="751"/>
			<point x="-4" y="711"/>
			<point x="-4" y="640" type="curve" smooth="yes"/>
			<point x="-4" y="584"/>
			<point x="39" y="549"/>
		</contour>
		<contour>
			<point x="95" y="586" type="curve" smooth="yes"/>
			<point x="56" y="586"/>
			<point x="41" y="615"/>
			<point x="41" y="642" type="curve" smooth="yes"/>
			<point x="41" y="678"/>
			<point x="67" y="715"/>
			<point x="108" y="715" type="curve" smooth="yes"/>
			<point x="144" y="715"/>
			<point x="161" y="687"/>
			<point x="161" y="659" type="curve" smooth="yes"/>
			<point x="161" y="620"/>
			<point x="131" y="586"/>
		</contour>
		<contour>
			<point name="_aboveLC" x="71" y="510" type="move"/>
		</contour>
	</outline>
</glyph>
<glyph name="hungarumlautcmb" format="2">
	<unicode hex="030B"/>
	<outline>
		<contour>
			<point x="-13" y="574" type="line"/>
			<point x="10" y="556" type="line"/>
			<point x="124" y="663" type="line" smooth="yes"/>
			<point x="148" y="685"/>
			<point x="155" y="706"/>
			<point x="155" y="721" type="curve" smooth="yes"/>
			<point x="155" y="740"/>
			<point x="140" y="752"/>
			<point x="121" y="752" type="curve" smooth="yes"/>
			<point x="106" y="752"/>
			<point x="86" y="741"/>
			<point x="68" y="710" type="curve" smooth="yes"/>
		</contour>
		<contour>
			<point x="125" y="574" type="line"/>
			<point x="148" y="556" type="line"/>
			<point x="262" y="663" type="line" smooth="yes"/>
			<point x="286" y="685"/>
			<point x="293" y="706"/>
			<point x="293" y="721" type="curve" smooth="yes"/>
			<point x="293" y="740"/>
			<point x="278" y="752"/>
			<point x="259" y="752" type="curve" smooth="yes"/>
			<point x="244" y="752"/>
			<point x="224" y="741"/>
			<point x="206" y="710" type="curve" smooth="yes"/>
		</contour>
	</outline>
	<anchor name="_aboveLC" x="71" y="506"/>
</glyph>
<glyph name="caroncmb" format="1">
	<unicode hex="030C"/>
	<outline>
		<contour>
			<point x="-7" y="751" type="line"/>
			<point x="-34" y="732" type="line"/>
			<point x="63" y="554" type="line"/>
			<point x="94" y="554" type="line"/>
			<point x="262" y="732" type="line"/>
			<point x="243" y="751" type="line"/>
			<point x="47" y="599" type="line"/>
			<point x="131" y="599" type="line"/>
		</contour>
		<contour>
			<point name="_aboveLC" x="71" y="506" type="move"/>
		</contour>
	</outline>
</glyph>
<glyph name="horncmb" format="2">
	<unicode hex="031B"/>
	<outline>
		<contour>
			<point x="-30" y="378" type="line"/>
			<point x="62" y="386"/>
			<point x="140" y="457"/>
			<point x="140" y="547" type="curve" smooth="yes"/>
			<point x="140" y="561"/>
			<point x="137" y="571"/>
			<point x="132" y="587" type="curve"/>
			<point x="120" y="598"/>
			<point x="108" y="599"/>
			<point x="98" y="599" type="curve" smooth="yes"/>
			<point x="74" y="599"/>
			<point x="55" y="579"/>
			<point x="55" y="556" type="curve" smooth="yes"/>
			<point x="55" y="537"/>
			<point x="70" y="516"/>
			<point x="70" y="488" type="curve" smooth="yes"/>
			<point x="70" y="445"/>
			<point x="36" y="414"/>
			<point x="-30" y="404" type="curve"/>
		</contour>
	</outline>
	<anchor name="_hornLC" x="64" y="478"/>
</glyph>
<glyph name="commabelowcmb" format="1">
	<unicode hex="0326"/>
	<outline>
		<contour>
			<point x="-131" y="-250" type="line"/>
			<point x="-61" y="-227"/>
			<point x="3" y="-187"/>
			<point x="3" y="-117" type="curve" smooth="yes"/>
			<point x="3" y="-104"/>
			<point x="1" y="-92"/>
			<point x="-7" y="-71" type="curve"/>
			<point x="-21" y="-58"/>
			<point x="-36" y="-52"/>
			<point x="-50" y="-52" type="curve" smooth="yes"/>
			<point x="-75" y="-52"/>
			<point x="-96" y="-70"/>
			<point x="-96" y="-96" type="curve" smooth="yes"/>
			<point x="-96" y="-126"/>
			<point x="-67" y="-153"/>
			<point x="-33" y="-161" type="curve"/>
			<point x="-37" y="-132" type="line"/>
			<point x="-61" y="-181"/>
			<point x="-92" y="-203"/>
			<point x="-141" y="-222" type="curve"/>
		</contour>
		<contour>
			<point name="_belowLC" x="-42" y="-22" type="move"/>
		</contour>
	</outline>
</glyph>
<glyph name="cedillacmb" format="1">
	<unicode hex="0327"/>
	<outline>
		<contour>
			<point x="-69" y="-76" type="line"/>
			<point x="-31" y="-82"/>
			<point x="-7" y="-97"/>
			<point x="-7" y="-131" type="curve" smooth="yes"/>
			<point x="-7" y="-172"/>
			<point x="-37" y="-194"/>
			<point x="-83" y="-194" type="curve" smooth="yes"/>
			<point x="-107" y="-194"/>
			<point x="-128" y="-191"/>
			<point x="-146" y="-186" type="curve"/>
			<point x="-157" y="-212" type="line"/>
			<point x="-139" y="-220"/>
			<point x="-111" y="-227"/>
			<point x="-78" y="-227" type="curve" smooth="yes"/>
			<point x="-18" y="-227"/>
			<point x="42" y="-195"/>
			<point x="42" y="-135" type="curve" smooth="yes"/>
			<point x="42" y="-76"/>
			<point x="-4" y="-56"/>
			<point x="-56" y="-50" type="curve"/>
			<point x="-35" y="-71" type="line"/>
			<point x="-20" y="0" type="line"/>
			<point x="-50" y="0" type="line"/>
		</contour>
		<contour>
			<point name="_baseLC" x="-37" y="0" type="move"/>
		</contour>
	</outline>
</glyph>
<glyph name="ogonekcmb" format="2">
	<unicode hex="0328"/>
	<outline>
		<contour>
			<point x="-129" y="-162" type="curve" smooth="yes"/>
			<point x="-129" y="-210"/>
			<point x="-97" y="-240"/>
			<point x="-40" y="-240" type="curve" smooth="yes"/>
			<point x="4" y="-240"/>
			<point x="49" y="-212"/>
			<point x="75" y="-183" type="curve"/>
			<point x="63" y="-166" type="line"/>
			<point x="40" y="-183"/>
			<point x="8" y="-195"/>
			<point x="-17" y="-195" type="curve" smooth="yes"/>
			<point x="-46" y="-195"/>
			<point x="-67" y="-176"/>
			<point x="-67" y="-137" type="curve" smooth="yes"/>
			<point x="-67" y="-79"/>
			<point x="-25" y="-29"/>
			<point x="19" y="13" type="curve"/>
			<point x="-14" y="13" type="line"/>
			<point x="-67" y="-38"/>
			<point x="-129" y="-96"/>
		</contour>
	</outline>
	<anchor name="_ogonek" x="-20" y="0"/>
</glyph>
<glyph name="verticallinebelowcmb" format="2">
	<unicode hex="0329"/>
	<outline>
		<contour>
			<point x="-123" y="-266" type="line"/>
			<point x="-53" y="-266" type="line"/>
			<point x="-23" y="-71" type="line"/>
			<point x="-81" y="-71" type="line"/>
		</contour>
	</outline>
	<anchor name="_belowLC" x="-42" y="-22"/>
</glyph>
<glyph name="Gamma" format="2">
	<unicode hex="0393"/>
	<advance width="530"/>
	<outline>
		<contour>
			<point x="16" y="0" type="line"/>
			<point x="285" y="0" type="line"/>
			<point x="293" y="40" type="line"/>
			<point x="169" y="55" type="line"/>
			<point x="151" y="55" type="line"/>
			<point x="24" y="40" type="line"/>
		</contour>
		<contour>
			<point x="101" y="0" type="line"/>
			<point x="189" y="0" type="line"/>
			<point x="205" y="103"/>
			<point x="223" y="207"/>
			<point x="242" y="310" type="curve" smooth="yes"/>
			<point x="310" y="670" type="line"/>
			<point x="222" y="670" type="line"/>
			<point x="206" y="567"/>
			<point x="188" y="463"/>
			<point x="169" y="360" type="curve" smooth="yes"/>
		</contour>
		<contour>
			<point x="122" y="630" type="line"/>
			<point x="243" y="615" type="line"/>
			<point x="255" y="615" type="line"/>
			<point x="266" y="670" type="line"/>
			<point x="130" y="670" type="line"/>
		</contour>
		<contour>
			<point x="256" y="620" type="line"/>
			<point x="542" y="620" type="line"/>
			<point x="506" y="670" type="line"/>
			<point x="506" y="482" type="line"/>
			<point x="556" y="482" type="line"/>
			<point x="585" y="670" type="line"/>
			<point x="266" y="670" type="line"/>
		</contour>
	</outline>
</glyph>
<glyph name="Theta" format="1">
	<unicode hex="0398"/>
	<advance width="660"/>
	<outline>
		<contour>
			<point x="250" y="313" type="line"/>
			<point x="463" y="313" type="line"/>
			<point x="471" y="359" type="line"/>
			<point x="259" y="359" type="line"/>
		</contour>
		<contour>
			<point x="435" y="248" type="line"/>
			<point x="477" y="248" type="line"/>
			<point x="510" y="425" type="line"/>
			<point x="468" y="425" type="line"/>
			<point x="438" y="349" type="line"/>
			<point x="435" y="329" type="line"/>
		</contour>
		<contour>
			<point x="285" y="425" type="line"/>
			<point x="243" y="425" type="line"/>
			<point x="210" y="248" type="line"/>
			<point x="252" y="248" type="line"/>
			<point x="282" y="324" type="line"/>
			<point x="285" y="344" type="line"/>
		</contour>
		<contour>
			<point x="302" y="-14" type="curve" smooth="yes"/>
			<point x="503" y="-14"/>
			<point x="653" y="179"/>
			<point x="653" y="409" type="curve" smooth="yes"/>
			<point x="653" y="571"/>
			<point x="561" y="684"/>
			<point x="415" y="684" type="curve" smooth="yes"/>
			<point x="219" y="684"/>
			<point x="67" y="491"/>
			<point x="67" y="259" type="curve" smooth="yes"/>
			<point x="67" y="90"/>
			<point x="160" y="-14"/>
		</contour>
		<contour>
			<point x="316" y="36" type="curve" smooth="yes"/>
			<point x="204" y="36"/>
			<point x="154" y="126"/>
			<point x="154" y="258" type="curve" smooth="yes"/>
			<point x="154" y="472"/>
			<point x="264" y="634"/>
			<point x="403" y="634" type="curve" smooth="yes"/>
			<point x="517" y="634"/>
			<point x="566" y="547"/>
			<point x="566" y="410" type="curve" smooth="yes"/>
			<point x="566" y="197"/>
			<point x="456" y="36"/>
		</contour>
	</outline>
</glyph>
<glyph name="Iota" format="1">
	<unicode hex="0399"/>
	<advance width="357"/>
	<outline>
		<component base="I"/>
		<contour>
			<point name="left" x="68" y="506" type="move"/>
		</contour>
		<contour>
			<point name="aboveUC" x="266" y="691" type="move"/>
		</contour>
	</outline>
</glyph>
<glyph name="Xi" format="1">
	<unicode hex="039E"/>
	<advance width="574"/>
	<outline>
		<contour>
			<point x="167" y="302" type="line"/>
			<point x="463" y="302" type="line"/>
			<point x="471" y="366" type="line"/>
			<point x="181" y="366" type="line"/>
		</contour>
		<contour>
			<point x="438" y="235" type="line"/>
			<point x="480" y="235" type="line"/>
			<point x="517" y="428" type="line"/>
			<point x="475" y="428" type="line"/>
			<point x="446" y="348" type="line"/>
			<point x="443" y="328" type="line"/>
		</contour>
		<contour>
			<point x="179" y="428" type="line"/>
			<point x="138" y="428" type="line"/>
			<point x="107" y="235" type="line"/>
			<point x="149" y="235" type="line"/>
			<point x="175" y="315" type="line"/>
			<point x="182" y="335" type="line"/>
		</contour>
		<contour>
			<point x="511" y="0" type="line"/>
			<point x="553" y="188" type="line"/>
			<point x="493" y="188" type="line"/>
			<point x="426" y="0" type="line"/>
			<point x="492" y="75" type="line"/>
			<point x="15" y="75" type="line"/>
			<point x="78" y="0" type="line"/>
			<point x="78" y="188" type="line"/>
			<point x="18" y="188" type="line"/>
			<point x="-7" y="0" type="line"/>
		</contour>
		<contour>
			<point x="578" y="595" type="line"/>
			<point x="549" y="670" type="line"/>
			<point x="552" y="492" type="line"/>
			<point x="601" y="492" type="line"/>
			<point x="625" y="670" type="line"/>
			<point x="115" y="670" type="line"/>
			<point x="78" y="492" type="line"/>
			<point x="128" y="492" type="line"/>
			<point x="190" y="670" type="line"/>
			<point x="156" y="595" type="line"/>
		</contour>
	</outline>
</glyph>
<glyph name="Sigma" format="1">
	<unicode hex="03A3"/>
	<advance width="566"/>
	<outline>
		<contour>
			<point x="504" y="492" type="line"/>
			<point x="561" y="492" type="line"/>
			<point x="588" y="670" type="line"/>
			<point x="162" y="670" type="line"/>
			<point x="154" y="620" type="line"/>
			<point x="545" y="620" type="line"/>
			<point x="504" y="670" type="line"/>
		</contour>
		<contour>
			<point x="513" y="0" type="line"/>
			<point x="553" y="203" type="line"/>
			<point x="494" y="203" type="line"/>
			<point x="434" y="30" type="line"/>
			<point x="489" y="75" type="line"/>
			<point x="77" y="75" type="line"/>
			<point x="87" y="44" type="line"/>
			<point x="390" y="357" type="line"/>
			<point x="192" y="670" type="line"/>
			<point x="127" y="670" type="line"/>
			<point x="120" y="635" type="line"/>
			<point x="325" y="311" type="line"/>
			<point x="325" y="357" type="line"/>
			<point x="39" y="56" type="line"/>
			<point x="29" y="0" type="line"/>
		</contour>
	</outline>
</glyph>
<glyph name="Upsilon" format="1">
	<unicode hex="03A5"/>
	<advance width="553"/>
	<outline>
		<component base="Y"/>
		<contour>
			<point name="left" x="10" y="506" type="move"/>
		</contour>
		<contour>
			<point name="aboveUC" x="386" y="691" type="move"/>
		</contour>
	</outline>
</glyph>
<glyph name="Phi" format="1">
	<unicode hex="03A6"/>
	<advance width="751"/>
	<outline>
		<contour>
			<point x="214" y="0" type="line"/>
			<point x="478" y="0" type="line"/>
			<point x="486" y="40" type="line"/>
			<point x="367" y="55" type="line"/>
			<point x="349" y="55" type="line"/>
			<point x="222" y="40" type="line"/>
		</contour>
		<contour>
			<point x="303" y="0" type="line"/>
			<point x="383" y="0" type="line"/>
			<point x="399" y="103"/>
			<point x="417" y="207"/>
			<point x="436" y="310" type="curve" smooth="yes"/>
			<point x="504" y="670" type="line"/>
			<point x="424" y="670" type="line"/>
			<point x="408" y="567"/>
			<point x="390" y="463"/>
			<point x="371" y="360" type="curve" smooth="yes"/>
		</contour>
		<contour>
			<point x="320" y="630" type="line"/>
			<point x="441" y="615" type="line"/>
			<point x="460" y="615" type="line"/>
			<point x="584" y="630" type="line"/>
			<point x="592" y="670" type="line"/>
			<point x="328" y="670" type="line"/>
		</contour>
		<contour>
			<point x="363" y="108" type="curve"/>
			<point x="379" y="154" type="line"/>
			<point x="228" y="154"/>
			<point x="161" y="212"/>
			<point x="161" y="321" type="curve" smooth="yes"/>
			<point x="161" y="465"/>
			<point x="273" y="526"/>
			<point x="415" y="526" type="curve"/>
			<point x="425" y="572" type="line"/>
			<point x="230" y="572"/>
			<point x="74" y="483"/>
			<point x="74" y="315" type="curve" smooth="yes"/>
			<point x="74" y="177"/>
			<point x="193" y="108"/>
		</contour>
		<contour>
			<point x="454" y="572" type="curve"/>
			<point x="438" y="526" type="line"/>
			<point x="583" y="526"/>
			<point x="656" y="469"/>
			<point x="656" y="359" type="curve" smooth="yes"/>
			<point x="656" y="215"/>
			<point x="544" y="154"/>
			<point x="402" y="154" type="curve"/>
			<point x="392" y="108" type="line"/>
			<point x="587" y="108"/>
			<point x="743" y="197"/>
			<point x="743" y="365" type="curve" smooth="yes"/>
			<point x="743" y="492"/>
			<point x="631" y="572"/>
		</contour>
	</outline>
</glyph>
<glyph name="Omega" format="1">
  <advance width="706"/>
  <unicode hex="03A9"/>
  <outline>
    <contour>
      <point x="112" y="170" type="line"/>
      <point x="56" y="170" type="line"/>
      <point x="53" y="0" type="line"/>
      <point x="292" y="0" type="line"/>
      <point x="313" y="121" type="line"/>
      <point x="238" y="145"/>
      <point x="196" y="221"/>
      <point x="196" y="331" type="curve" smooth="yes"/>
      <point x="196" y="514"/>
      <point x="288" y="635"/>
      <point x="427" y="635" type="curve" smooth="yes"/>
      <point x="524" y="635"/>
      <point x="587" y="558"/>
      <point x="587" y="436" type="curve" smooth="yes"/>
      <point x="587" y="276"/>
      <point x="515" y="152"/>
      <point x="398" y="118" type="curve"/>
      <point x="380" y="0" type="line"/>
      <point x="623" y="0" type="line"/>
      <point x="670" y="170" type="line"/>
      <point x="614" y="170" type="line"/>
      <point x="547" y="22" type="line"/>
      <point x="589" y="62" type="line"/>
      <point x="402" y="62" type="line"/>
      <point x="429" y="20" type="line"/>
      <point x="441" y="89" type="line"/>
      <point x="583" y="141"/>
      <point x="676" y="281"/>
      <point x="676" y="434" type="curve" smooth="yes"/>
      <point x="676" y="583"/>
      <point x="575" y="685"/>
      <point x="426" y="685" type="curve" smooth="yes"/>
      <point x="243" y="685"/>
      <point x="109" y="542"/>
      <point x="109" y="345" type="curve" smooth="yes"/>
      <point x="109" y="230"/>
      <point x="169" y="131"/>
      <point x="262" y="92" type="curve"/>
      <point x="250" y="21" type="line"/>
      <point x="284" y="62" type="line"/>
      <point x="101" y="62" type="line"/>
      <point x="135" y="20" type="line"/>
    </contour>
    <contour>
      <point x="98" y="506" type="move" name="left"/>
    </contour>
  </outline>
</glyph>
<glyph name="alpha" format="1">
	<unicode hex="03B1"/>
	<advance width="559"/>
	<outline>
		<contour>
			<point x="548" y="422" type="curve" smooth="yes"/>
			<point x="589" y="488"/>
			<point x="518" y="499"/>
			<point x="482" y="477" type="curve"/>
			<point x="386" y="287" type="line" smooth="yes"/>
			<point x="290" y="98"/>
			<point x="225" y="27"/>
			<point x="177" y="27" type="curve" smooth="yes"/>
			<point x="127" y="27"/>
			<point x="123" y="109"/>
			<point x="143" y="205" type="curve" smooth="yes"/>
			<point x="169" y="330"/>
			<point x="235" y="421"/>
			<point x="304" y="421" type="curve" smooth="yes"/>
			<point x="348" y="421"/>
			<point x="384" y="383"/>
			<point x="380" y="240" type="curve"/>
			<point x="402" y="290" type="line"/>
			<point x="411" y="442"/>
			<point x="359" y="487"/>
			<point x="294" y="487" type="curve" smooth="yes"/>
			<point x="183" y="487"/>
			<point x="96" y="358"/>
			<point x="69" y="219" type="curve" smooth="yes"/>
			<point x="44" y="89"/>
			<point x="65" y="-14"/>
			<point x="171" y="-14" type="curve" smooth="yes"/>
			<point x="255" y="-14"/>
			<point x="307" y="45"/>
			<point x="397" y="184" type="curve" smooth="yes"/>
			<point x="423" y="224"/>
			<point x="507" y="357"/>
		</contour>
		<contour>
			<point x="382" y="212" type="line"/>
			<point x="370" y="45"/>
			<point x="378" y="-13"/>
			<point x="441" y="-13" type="curve" smooth="yes"/>
			<point x="488" y="-13"/>
			<point x="539" y="57"/>
			<point x="566" y="97" type="curve"/>
			<point x="542" y="116" type="line"/>
			<point x="504" y="73"/>
			<point x="475" y="55"/>
			<point x="457" y="55" type="curve" smooth="yes"/>
			<point x="434" y="55"/>
			<point x="422" y="73"/>
			<point x="414" y="258" type="curve"/>
		</contour>
		<contour>
			<point name="aboveLC" x="352" y="506" type="move"/>
		</contour>
	</outline>
</glyph>
<glyph name="beta" format="1">
	<unicode hex="03B2"/>
	<advance width="549"/>
	<outline>
		<contour>
			<point x="419" y="371"/>
			<point x="533" y="481"/>
			<point x="533" y="603" type="curve" smooth="yes"/>
			<point x="533" y="681"/>
			<point x="478" y="740"/>
			<point x="375" y="740" type="curve" smooth="yes"/>
			<point x="266" y="740"/>
			<point x="183" y="670"/>
			<point x="149" y="492" type="curve" smooth="yes"/>
			<point x="19" y="-180" type="line"/>
			<point x="29" y="-188" type="line"/>
			<point x="112" y="-173" type="line"/>
			<point x="147" y="87" type="line"/>
			<point x="153" y="98" type="line"/>
			<point x="215" y="465" type="line" smooth="yes"/>
			<point x="244" y="638"/>
			<point x="293" y="700"/>
			<point x="368" y="700" type="curve" smooth="yes"/>
			<point x="429" y="700"/>
			<point x="457" y="669"/>
			<point x="457" y="600" type="curve" smooth="yes"/>
			<point x="457" y="492"/>
			<point x="378" y="422"/>
			<point x="250" y="397" type="curve"/>
			<point x="261" y="341" type="line"/>
		</contour>
		<contour>
			<point x="521" y="211" type="curve" smooth="yes"/>
			<point x="521" y="311"/>
			<point x="443" y="377"/>
			<point x="344" y="388" type="curve"/>
			<point x="329" y="360" type="line"/>
			<point x="402" y="337"/>
			<point x="443" y="293"/>
			<point x="443" y="207" type="curve" smooth="yes"/>
			<point x="443" y="112"/>
			<point x="382" y="47"/>
			<point x="293" y="47" type="curve" smooth="yes"/>
			<point x="222" y="47"/>
			<point x="168" y="80"/>
			<point x="142" y="126" type="curve"/>
			<point x="129" y="105" type="line"/>
			<point x="165" y="28"/>
			<point x="225" y="-13"/>
			<point x="299" y="-13" type="curve" smooth="yes"/>
			<point x="421" y="-13"/>
			<point x="521" y="84"/>
		</contour>
	</outline>
</glyph>
<glyph name="gamma" format="1">
	<unicode hex="03B3"/>
	<advance width="460"/>
	<outline>
		<contour>
			<point x="193" y="52" type="line"/>
			<point x="151" y="-39" type="line" smooth="yes"/>
			<point x="125" y="-95"/>
			<point x="112" y="-129"/>
			<point x="112" y="-152" type="curve" smooth="yes"/>
			<point x="112" y="-178"/>
			<point x="129" y="-190"/>
			<point x="150" y="-190" type="curve" smooth="yes"/>
			<point x="163" y="-190"/>
			<point x="177" y="-186"/>
			<point x="189" y="-175" type="curve"/>
			<point x="230" y="41" type="line"/>
		</contour>
		<contour>
			<point x="391" y="416" type="curve" smooth="yes"/>
			<point x="391" y="406"/>
			<point x="393" y="391"/>
			<point x="395" y="378" type="curve"/>
			<point x="407" y="308" type="line"/>
			<point x="415" y="368" type="line"/>
			<point x="409" y="356"/>
			<point x="404" y="344"/>
			<point x="398" y="332" type="curve" smooth="yes"/>
			<point x="345" y="234"/>
			<point x="296" y="148"/>
			<point x="218" y="58" type="curve"/>
			<point x="232" y="58" type="line"/>
			<point x="232" y="182"/>
			<point x="230" y="312"/>
			<point x="215" y="408" type="curve" smooth="yes"/>
			<point x="206" y="463"/>
			<point x="182" y="487"/>
			<point x="143" y="487" type="curve" smooth="yes"/>
			<point x="105" y="487"/>
			<point x="71" y="460"/>
			<point x="35" y="400" type="curve"/>
			<point x="55" y="380" type="line"/>
			<point x="82" y="413"/>
			<point x="98" y="419"/>
			<point x="113" y="419" type="curve" smooth="yes"/>
			<point x="128" y="419"/>
			<point x="138" y="412"/>
			<point x="143" y="371" type="curve" smooth="yes"/>
			<point x="157" y="264"/>
			<point x="164" y="152"/>
			<point x="168" y="-9" type="curve"/>
			<point x="175" y="-7" type="line"/>
			<point x="199" y="-9" type="line"/>
			<point x="301" y="95"/>
			<point x="389" y="221"/>
			<point x="437" y="310" type="curve" smooth="yes"/>
			<point x="473" y="377"/>
			<point x="487" y="413"/>
			<point x="487" y="447" type="curve" smooth="yes"/>
			<point x="487" y="459"/>
			<point x="485" y="468"/>
			<point x="482" y="474" type="curve"/>
			<point x="476" y="479"/>
			<point x="463" y="487"/>
			<point x="444" y="487" type="curve" smooth="yes"/>
			<point x="412" y="487"/>
			<point x="391" y="466"/>
		</contour>
	</outline>
</glyph>
<glyph name="delta" format="1">
	<unicode hex="03B4"/>
	<advance width="480"/>
	<outline>
		<contour>
			<point x="56" y="181" type="curve" smooth="yes"/>
			<point x="56" y="76"/>
			<point x="120" y="-13"/>
			<point x="230" y="-13" type="curve" smooth="yes"/>
			<point x="364" y="-13"/>
			<point x="468" y="105"/>
			<point x="468" y="277" type="curve" smooth="yes"/>
			<point x="468" y="349"/>
			<point x="436" y="409"/>
			<point x="358" y="482" type="curve" smooth="yes"/>
			<point x="269" y="564"/>
			<point x="253" y="591"/>
			<point x="253" y="622" type="curve" smooth="yes"/>
			<point x="253" y="670"/>
			<point x="289" y="704"/>
			<point x="368" y="704" type="curve" smooth="yes"/>
			<point x="397" y="704"/>
			<point x="425" y="698"/>
			<point x="457" y="673" type="curve"/>
			<point x="432" y="712" type="line"/>
			<point x="367" y="732" type="line"/>
			<point x="417" y="636" type="line" smooth="yes"/>
			<point x="436" y="599"/>
			<point x="459" y="584"/>
			<point x="480" y="584" type="curve" smooth="yes"/>
			<point x="504" y="584"/>
			<point x="526" y="599"/>
			<point x="533" y="623" type="curve"/>
			<point x="522" y="687"/>
			<point x="447" y="740"/>
			<point x="356" y="740" type="curve" smooth="yes"/>
			<point x="248" y="740"/>
			<point x="186" y="676"/>
			<point x="186" y="608" type="curve" smooth="yes"/>
			<point x="186" y="551"/>
			<point x="214" y="507"/>
			<point x="302" y="431" type="curve" smooth="yes"/>
			<point x="360" y="380"/>
			<point x="388" y="322"/>
			<point x="388" y="248" type="curve" smooth="yes"/>
			<point x="388" y="123"/>
			<point x="321" y="27"/>
			<point x="234" y="27" type="curve" smooth="yes"/>
			<point x="176" y="27"/>
			<point x="136" y="76"/>
			<point x="136" y="174" type="curve" smooth="yes"/>
			<point x="136" y="341"/>
			<point x="243" y="441"/>
			<point x="336" y="441" type="curve" smooth="yes"/>
			<point x="345" y="441"/>
			<point x="354" y="440"/>
			<point x="363" y="438" type="curve"/>
			<point x="344" y="455" type="line"/>
			<point x="331" y="457"/>
			<point x="318" y="458"/>
			<point x="305" y="458" type="curve" smooth="yes"/>
			<point x="171" y="458"/>
			<point x="56" y="340"/>
		</contour>
	</outline>
</glyph>
<glyph name="epsilon" format="1">
	<unicode hex="03B5"/>
	<advance width="405"/>
	<outline>
		<contour>
			<point x="36" y="107" type="curve" smooth="yes"/>
			<point x="36" y="25"/>
			<point x="98" y="-13"/>
			<point x="199" y="-13" type="curve" smooth="yes"/>
			<point x="279" y="-13"/>
			<point x="351" y="25"/>
			<point x="396" y="76" type="curve"/>
			<point x="380" y="100" type="line"/>
			<point x="323" y="60"/>
			<point x="278" y="49"/>
			<point x="217" y="49" type="curve" smooth="yes"/>
			<point x="152" y="49"/>
			<point x="116" y="76"/>
			<point x="116" y="124" type="curve" smooth="yes"/>
			<point x="116" y="182"/>
			<point x="159" y="224"/>
			<point x="257" y="224" type="curve" smooth="yes"/>
			<point x="318" y="224" type="line"/>
			<point x="331" y="287" type="line"/>
			<point x="299" y="282"/>
			<point x="274" y="281"/>
			<point x="248" y="281" type="curve" smooth="yes"/>
			<point x="194" y="281"/>
			<point x="167" y="310"/>
			<point x="167" y="353" type="curve" smooth="yes"/>
			<point x="167" y="416"/>
			<point x="209" y="451"/>
			<point x="284" y="451" type="curve" smooth="yes"/>
			<point x="304" y="451"/>
			<point x="321" y="449"/>
			<point x="342" y="444" type="curve"/>
			<point x="337" y="461" type="line"/>
			<point x="270" y="462" type="line"/>
			<point x="305" y="418" type="line" smooth="yes"/>
			<point x="327" y="390"/>
			<point x="352" y="381"/>
			<point x="374" y="381" type="curve" smooth="yes"/>
			<point x="399" y="381"/>
			<point x="423" y="396"/>
			<point x="429" y="421" type="curve"/>
			<point x="411" y="461"/>
			<point x="360" y="487"/>
			<point x="283" y="487" type="curve" smooth="yes"/>
			<point x="159" y="487"/>
			<point x="91" y="419"/>
			<point x="91" y="344" type="curve" smooth="yes"/>
			<point x="91" y="283"/>
			<point x="137" y="244"/>
			<point x="204" y="247" type="curve"/>
			<point x="200" y="251" type="line"/>
			<point x="99" y="249"/>
			<point x="36" y="184"/>
		</contour>
		<contour>
			<point name="aboveLC" x="274" y="506" type="move"/>
		</contour>
	</outline>
</glyph>
<glyph name="zeta" format="1">
	<unicode hex="03B6"/>
	<advance width="377"/>
	<outline>
		<contour>
			<point x="467" y="714" type="line"/>
			<point x="141" y="384"/>
			<point x="62" y="266"/>
			<point x="62" y="161" type="curve" smooth="yes"/>
			<point x="62" y="92"/>
			<point x="106" y="40"/>
			<point x="209" y="-11" type="curve" smooth="yes"/>
			<point x="280" y="-46"/>
			<point x="293" y="-60"/>
			<point x="293" y="-97" type="curve" smooth="yes"/>
			<point x="293" y="-120"/>
			<point x="281" y="-151"/>
			<point x="263" y="-178" type="curve"/>
			<point x="286" y="-196" type="line"/>
			<point x="348" y="-124"/>
			<point x="362" y="-98"/>
			<point x="362" y="-57" type="curve" smooth="yes"/>
			<point x="362" y="-12"/>
			<point x="333" y="18"/>
			<point x="255" y="56" type="curve" smooth="yes"/>
			<point x="167" y="100"/>
			<point x="142" y="128"/>
			<point x="142" y="186" type="curve" smooth="yes"/>
			<point x="142" y="278"/>
			<point x="222" y="402"/>
			<point x="497" y="681" type="curve"/>
		</contour>
		<contour>
			<point x="497" y="681" type="line"/>
			<point x="505" y="730" type="line"/>
			<point x="177" y="745" type="line"/>
			<point x="164" y="670" type="line"/>
			<point x="481" y="670" type="line"/>
		</contour>
	</outline>
</glyph>
<glyph name="eta" format="1">
	<unicode hex="03B7"/>
	<advance width="509"/>
	<outline>
		<contour>
			<point x="170" y="487" type="curve" smooth="yes"/>
			<point x="129" y="487"/>
			<point x="97" y="460"/>
			<point x="60" y="400" type="curve"/>
			<point x="80" y="380" type="line"/>
			<point x="106" y="409"/>
			<point x="118" y="419"/>
			<point x="139" y="419" type="curve" smooth="yes"/>
			<point x="163" y="419"/>
			<point x="172" y="400"/>
			<point x="161" y="339" type="curve" smooth="yes"/>
			<point x="145" y="247"/>
			<point x="125" y="162"/>
			<point x="79" y="0" type="curve"/>
			<point x="90" y="-8" type="line"/>
			<point x="159" y="0" type="line"/>
			<point x="230" y="349" type="line"/>
			<point x="244" y="435"/>
			<point x="226" y="487"/>
		</contour>
		<contour>
			<point x="382" y="-171" type="line"/>
			<point x="444" y="153" type="line" smooth="yes"/>
			<point x="471" y="294"/>
			<point x="481" y="344"/>
			<point x="481" y="391" type="curve" smooth="yes"/>
			<point x="481" y="455"/>
			<point x="455" y="487"/>
			<point x="403" y="487" type="curve" smooth="yes"/>
			<point x="352" y="487"/>
			<point x="276" y="443"/>
			<point x="216" y="333" type="curve"/>
			<point x="210" y="290" type="line"/>
			<point x="265" y="386"/>
			<point x="321" y="412"/>
			<point x="367" y="412" type="curve" smooth="yes"/>
			<point x="398" y="412"/>
			<point x="419" y="392"/>
			<point x="419" y="350" type="curve" smooth="yes"/>
			<point x="419" y="301"/>
			<point x="400" y="217"/>
			<point x="342" y="9" type="curve"/>
			<point x="290" y="-180" type="line"/>
			<point x="297" y="-190" type="line"/>
		</contour>
		<contour>
			<point name="aboveLC" x="322" y="506" type="move"/>
		</contour>
	</outline>
</glyph>
<glyph name="theta" format="1">
	<unicode hex="03B8"/>
	<advance width="489"/>
	<outline>
		<contour>
			<point x="362" y="740" type="curve" smooth="yes"/>
			<point x="195" y="740"/>
			<point x="74" y="494"/>
			<point x="74" y="199" type="curve" smooth="yes"/>
			<point x="74" y="62"/>
			<point x="129" y="-13"/>
			<point x="222" y="-13" type="curve" smooth="yes"/>
			<point x="386" y="-13"/>
			<point x="506" y="228"/>
			<point x="506" y="511" type="curve" smooth="yes"/>
			<point x="506" y="662"/>
			<point x="456" y="740"/>
		</contour>
		<contour>
			<point x="231" y="27" type="curve" smooth="yes"/>
			<point x="177" y="27"/>
			<point x="154" y="80"/>
			<point x="154" y="206" type="curve" smooth="yes"/>
			<point x="154" y="469"/>
			<point x="237" y="700"/>
			<point x="353" y="700" type="curve" smooth="yes"/>
			<point x="406" y="700"/>
			<point x="426" y="651"/>
			<point x="426" y="519" type="curve" smooth="yes"/>
			<point x="426" y="259"/>
			<point x="345" y="27"/>
		</contour>
		<contour>
			<point x="111" y="339" type="line"/>
			<point x="462" y="339" type="line"/>
			<point x="461" y="395" type="line"/>
			<point x="111" y="395" type="line"/>
		</contour>
	</outline>
</glyph>
<glyph name="iota" format="1">
	<unicode hex="03B9"/>
	<advance width="273"/>
	<outline>
		<contour>
			<point x="82" y="64" type="curve" smooth="yes"/>
			<point x="82" y="15"/>
			<point x="107" y="-13"/>
			<point x="148" y="-13" type="curve" smooth="yes"/>
			<point x="185" y="-13"/>
			<point x="223" y="12"/>
			<point x="261" y="60" type="curve"/>
			<point x="245" y="83" type="line"/>
			<point x="223" y="65"/>
			<point x="202" y="54"/>
			<point x="183" y="54" type="curve" smooth="yes"/>
			<point x="162" y="54"/>
			<point x="153" y="65"/>
			<point x="153" y="93" type="curve" smooth="yes"/>
			<point x="153" y="133"/>
			<point x="174" y="207"/>
			<point x="218" y="355" type="curve" smooth="yes"/>
			<point x="254" y="477" type="line"/>
			<point x="246" y="487" type="line"/>
			<point x="159" y="469" type="line"/>
			<point x="112" y="242" type="line" smooth="yes"/>
			<point x="85" y="112"/>
			<point x="82" y="85"/>
		</contour>
		<contour>
			<point name="aboveLC" x="211" y="506" type="move"/>
		</contour>
	</outline>
</glyph>
<glyph name="kappa" format="1">
	<unicode hex="03BA"/>
	<advance width="454"/>
	<outline>
		<contour>
			<point x="102" y="243" type="line" smooth="yes"/>
			<point x="89" y="174"/>
			<point x="70" y="101"/>
			<point x="40" y="0" type="curve"/>
			<point x="51" y="-8" type="line"/>
			<point x="120" y="0" type="line"/>
			<point x="149" y="161"/>
			<point x="165" y="233"/>
			<point x="199" y="355" type="curve" smooth="yes"/>
			<point x="233" y="477" type="line"/>
			<point x="225" y="487" type="line"/>
			<point x="144" y="469" type="line"/>
		</contour>
		<contour>
			<point x="268" y="58" type="line" smooth="yes"/>
			<point x="284" y="10"/>
			<point x="308" y="-13"/>
			<point x="343" y="-13" type="curve" smooth="yes"/>
			<point x="378" y="-13"/>
			<point x="416" y="13"/>
			<point x="452" y="62" type="curve"/>
			<point x="432" y="85" type="line"/>
			<point x="411" y="66"/>
			<point x="390" y="54"/>
			<point x="374" y="54" type="curve" smooth="yes"/>
			<point x="351" y="54"/>
			<point x="341" y="64"/>
			<point x="327" y="103" type="curve" smooth="yes"/>
			<point x="309" y="151" type="line" smooth="yes"/>
			<point x="289" y="204"/>
			<point x="256" y="233"/>
			<point x="203" y="243" type="curve" smooth="yes"/>
			<point x="174" y="249" type="line"/>
			<point x="171" y="236" type="line"/>
			<point x="399" y="366" type="line" smooth="yes"/>
			<point x="462" y="402"/>
			<point x="478" y="417"/>
			<point x="478" y="442" type="curve" smooth="yes"/>
			<point x="478" y="463"/>
			<point x="460" y="481"/>
			<point x="437" y="482" type="curve"/>
			<point x="150" y="244" type="line"/>
			<point x="153" y="228" type="line"/>
			<point x="173" y="222" type="line" smooth="yes"/>
			<point x="210" y="211"/>
			<point x="226" y="188"/>
			<point x="250" y="114" type="curve" smooth="yes"/>
		</contour>
	</outline>
</glyph>
<glyph name="lambda" format="1">
	<unicode hex="03BB"/>
	<advance width="501"/>
	<outline>
		<contour>
			<point x="26" y="0" type="line"/>
			<point x="101" y="0" type="line"/>
			<point x="204" y="187"/>
			<point x="281" y="315"/>
			<point x="331" y="391" type="curve"/>
			<point x="333" y="502" type="line"/>
			<point x="239" y="360"/>
			<point x="137" y="200"/>
			<point x="19" y="11" type="curve"/>
		</contour>
		<contour>
			<point x="334" y="89" type="line" smooth="yes"/>
			<point x="336" y="11"/>
			<point x="358" y="-13"/>
			<point x="396" y="-13" type="curve" smooth="yes"/>
			<point x="436" y="-13"/>
			<point x="475" y="13"/>
			<point x="514" y="62" type="curve"/>
			<point x="498" y="85" type="line"/>
			<point x="474" y="65"/>
			<point x="454" y="54"/>
			<point x="436" y="54" type="curve" smooth="yes"/>
			<point x="409" y="54"/>
			<point x="390" y="76"/>
			<point x="387" y="132" type="curve" smooth="yes"/>
			<point x="362" y="573" type="line" smooth="yes"/>
			<point x="355" y="701"/>
			<point x="311" y="740"/>
			<point x="256" y="740" type="curve" smooth="yes"/>
			<point x="209" y="740"/>
			<point x="164" y="722"/>
			<point x="110" y="677" type="curve"/>
			<point x="122" y="630" type="line"/>
			<point x="153" y="648"/>
			<point x="192" y="665"/>
			<point x="230" y="665" type="curve" smooth="yes"/>
			<point x="280" y="665"/>
			<point x="314" y="646"/>
			<point x="318" y="551" type="curve" smooth="yes"/>
			<point x="324" y="418" type="line"/>
		</contour>
	</outline>
</glyph>
<glyph name="mu" format="1">
	<unicode hex="03BC"/>
	<advance width="549"/>
	<outline>
		<contour>
			<point x="-9" y="-180" type="line"/>
			<point x="1" y="-190" type="line"/>
			<point x="84" y="-172" type="line"/>
			<point x="110" y="84" type="line"/>
			<point x="127" y="104" type="line"/>
			<point x="145" y="191"/>
			<point x="172" y="280"/>
			<point x="223" y="477" type="curve"/>
			<point x="215" y="487" type="line"/>
			<point x="129" y="469" type="line"/>
			<point x="69" y="101" type="line"/>
		</contour>
		<contour>
			<point x="206" y="-13" type="curve" smooth="yes"/>
			<point x="274" y="-13"/>
			<point x="339" y="39"/>
			<point x="398" y="165" type="curve"/>
			<point x="384" y="184" type="line"/>
			<point x="327" y="85"/>
			<point x="284" y="62"/>
			<point x="230" y="62" type="curve" smooth="yes"/>
			<point x="191" y="62"/>
			<point x="152" y="79"/>
			<point x="135" y="153" type="curve"/>
			<point x="102" y="95" type="line"/>
			<point x="109" y="23"/>
			<point x="159" y="-13"/>
		</contour>
		<contour>
			<point x="416" y="-13" type="curve" smooth="yes"/>
			<point x="455" y="-13"/>
			<point x="488" y="10"/>
			<point x="509" y="39" type="curve"/>
			<point x="506" y="64" type="line"/>
			<point x="492" y="59"/>
			<point x="475" y="55"/>
			<point x="462" y="55" type="curve" smooth="yes"/>
			<point x="429" y="55"/>
			<point x="422" y="72"/>
			<point x="433" y="135" type="curve" smooth="yes"/>
			<point x="445" y="205"/>
			<point x="469" y="278"/>
			<point x="526" y="477" type="curve"/>
			<point x="518" y="487" type="line"/>
			<point x="432" y="469" type="line"/>
			<point x="366" y="114"/>
			<point x="361" y="71"/>
			<point x="361" y="44" type="curve" smooth="yes"/>
			<point x="362" y="9"/>
			<point x="377" y="-13"/>
		</contour>
	</outline>
</glyph>
<glyph name="nu" format="1">
	<unicode hex="03BD"/>
	<advance width="460"/>
	<outline>
		<contour>
			<point x="168" y="-2" type="curve"/>
			<point x="175" y="-7" type="line"/>
			<point x="203" y="-4" type="line"/>
			<point x="304" y="99"/>
			<point x="390" y="222"/>
			<point x="437" y="310" type="curve" smooth="yes"/>
			<point x="473" y="377"/>
			<point x="487" y="413"/>
			<point x="487" y="447" type="curve" smooth="yes"/>
			<point x="487" y="459"/>
			<point x="485" y="468"/>
			<point x="482" y="474" type="curve"/>
			<point x="476" y="479"/>
			<point x="463" y="487"/>
			<point x="444" y="487" type="curve" smooth="yes"/>
			<point x="412" y="487"/>
			<point x="391" y="466"/>
			<point x="391" y="416" type="curve" smooth="yes"/>
			<point x="391" y="406"/>
			<point x="393" y="391"/>
			<point x="395" y="378" type="curve"/>
			<point x="407" y="308" type="line"/>
			<point x="415" y="368" type="line"/>
			<point x="409" y="356"/>
			<point x="404" y="344"/>
			<point x="398" y="332" type="curve" smooth="yes"/>
			<point x="346" y="236"/>
			<point x="299" y="154"/>
			<point x="223" y="66" type="curve"/>
			<point x="234" y="65" type="line"/>
			<point x="234" y="186"/>
			<point x="230" y="314"/>
			<point x="215" y="408" type="curve" smooth="yes"/>
			<point x="206" y="463"/>
			<point x="182" y="487"/>
			<point x="143" y="487" type="curve" smooth="yes"/>
			<point x="105" y="487"/>
			<point x="71" y="460"/>
			<point x="35" y="400" type="curve"/>
			<point x="55" y="380" type="line"/>
			<point x="82" y="413"/>
			<point x="98" y="419"/>
			<point x="113" y="419" type="curve" smooth="yes"/>
			<point x="128" y="419"/>
			<point x="138" y="412"/>
			<point x="143" y="371" type="curve" smooth="yes"/>
			<point x="157" y="266"/>
			<point x="164" y="156"/>
		</contour>
	</outline>
</glyph>
<glyph name="xi" format="1">
	<unicode hex="03BE"/>
	<advance width="422"/>
	<outline>
		<contour>
			<point x="433" y="692"/>
			<point x="375" y="682"/>
			<point x="288" y="676" type="curve"/>
			<point x="214" y="688" type="line"/>
			<point x="299" y="663" type="line"/>
			<point x="273" y="707" type="line" smooth="yes"/>
			<point x="255" y="738"/>
			<point x="231" y="754"/>
			<point x="205" y="751" type="curve" smooth="yes"/>
			<point x="186" y="748"/>
			<point x="169" y="738"/>
			<point x="161" y="710" type="curve"/>
			<point x="176" y="651"/>
			<point x="251" y="616"/>
			<point x="443" y="654" type="curve"/>
			<point x="414" y="649" type="line"/>
			<point x="226" y="639"/>
			<point x="143" y="555"/>
			<point x="143" y="475" type="curve" smooth="yes"/>
			<point x="143" y="405"/>
			<point x="199" y="354"/>
			<point x="282" y="359" type="curve"/>
			<point x="278" y="363" type="line"/>
			<point x="135" y="344"/>
			<point x="62" y="247"/>
			<point x="62" y="160" type="curve" smooth="yes"/>
			<point x="62" y="77"/>
			<point x="102" y="26"/>
			<point x="231" y="-15" type="curve" smooth="yes"/>
			<point x="307" y="-39"/>
			<point x="329" y="-56"/>
			<point x="329" y="-93" type="curve" smooth="yes"/>
			<point x="329" y="-119"/>
			<point x="321" y="-135"/>
			<point x="288" y="-178" type="curve"/>
			<point x="312" y="-195" type="line"/>
			<point x="375" y="-136"/>
			<point x="397" y="-99"/>
			<point x="397" y="-57" type="curve" smooth="yes"/>
			<point x="397" y="-6"/>
			<point x="366" y="19"/>
			<point x="263" y="53" type="curve" smooth="yes"/>
			<point x="171" y="83"/>
			<point x="142" y="119"/>
			<point x="142" y="173" type="curve" smooth="yes"/>
			<point x="142" y="262"/>
			<point x="214" y="328"/>
			<point x="337" y="328" type="curve" smooth="yes"/>
			<point x="409" y="328" type="line"/>
			<point x="424" y="402" type="line"/>
			<point x="390" y="397"/>
			<point x="361" y="396"/>
			<point x="316" y="396" type="curve" smooth="yes"/>
			<point x="243" y="396"/>
			<point x="219" y="439"/>
			<point x="219" y="489" type="curve" smooth="yes"/>
			<point x="219" y="574"/>
			<point x="300" y="625"/>
			<point x="489" y="638" type="curve"/>
			<point x="504" y="709" type="line"/>
		</contour>
	</outline>
</glyph>
<glyph name="omicron" format="2">
	<unicode hex="03BF"/>
	<advance width="480"/>
	<outline>
		<contour>
			<point x="217" y="-13" type="curve" smooth="yes"/>
			<point x="355" y="-13"/>
			<point x="470" y="138"/>
			<point x="470" y="312" type="curve" smooth="yes"/>
			<point x="470" y="425"/>
			<point x="403" y="487"/>
			<point x="311" y="487" type="curve" smooth="yes"/>
			<point x="172" y="487"/>
			<point x="54" y="343"/>
			<point x="54" y="163" type="curve" smooth="yes"/>
			<point x="54" y="49"/>
			<point x="127" y="-13"/>
		</contour>
		<contour>
			<point x="228" y="27" type="curve" smooth="yes"/>
			<point x="174" y="27"/>
			<point x="134" y="70"/>
			<point x="134" y="176" type="curve" smooth="yes"/>
			<point x="134" y="325"/>
			<point x="207" y="447"/>
			<point x="300" y="447" type="curve" smooth="yes"/>
			<point x="353" y="447"/>
			<point x="390" y="405"/>
			<point x="390" y="296" type="curve" smooth="yes"/>
			<point x="390" y="162"/>
			<point x="325" y="27"/>
		</contour>
	</outline>
	<anchor name="aboveLC" x="317" y="506"/>
</glyph>
<glyph name="pi" format="1">
	<unicode hex="03C0"/>
	<advance width="577"/>
	<outline>
		<contour>
			<point x="80" y="390" type="line"/>
			<point x="235" y="413" type="line"/>
			<point x="456" y="413" type="line"/>
			<point x="600" y="408" type="line"/>
			<point x="610" y="477" type="line"/>
			<point x="269" y="477" type="line" smooth="yes"/>
			<point x="172" y="477"/>
			<point x="136" y="463"/>
			<point x="80" y="425" type="curve"/>
		</contour>
		<contour>
			<point x="78" y="-13" type="curve" smooth="yes"/>
			<point x="128" y="-13"/>
			<point x="169" y="22"/>
			<point x="192" y="105" type="curve" smooth="yes"/>
			<point x="212" y="178"/>
			<point x="223" y="223"/>
			<point x="270" y="445" type="curve"/>
			<point x="227" y="445" type="line"/>
			<point x="201" y="314"/>
			<point x="169" y="183"/>
			<point x="129" y="54" type="curve"/>
			<point x="157" y="70" type="line"/>
			<point x="168" y="94" type="line"/>
			<point x="130" y="93"/>
			<point x="91" y="87"/>
			<point x="59" y="81" type="curve"/>
			<point x="44" y="71"/>
			<point x="25" y="54"/>
			<point x="25" y="29" type="curve" smooth="yes"/>
			<point x="25" y="0"/>
			<point x="46" y="-13"/>
		</contour>
		<contour>
			<point x="351" y="61" type="curve" smooth="yes"/>
			<point x="351" y="15"/>
			<point x="378" y="-13"/>
			<point x="422" y="-13" type="curve" smooth="yes"/>
			<point x="461" y="-13"/>
			<point x="501" y="11"/>
			<point x="540" y="60" type="curve"/>
			<point x="524" y="83" type="line"/>
			<point x="502" y="65"/>
			<point x="481" y="54"/>
			<point x="462" y="54" type="curve" smooth="yes"/>
			<point x="441" y="54"/>
			<point x="432" y="67"/>
			<point x="432" y="97" type="curve" smooth="yes"/>
			<point x="432" y="130"/>
			<point x="435" y="153"/>
			<point x="487" y="445" type="curve"/>
			<point x="438" y="445" type="line"/>
			<point x="358" y="158"/>
			<point x="351" y="94"/>
		</contour>
	</outline>
</glyph>
<glyph name="rho" format="1">
	<unicode hex="03C1"/>
	<advance width="485"/>
	<outline>
		<contour>
			<point x="241" y="-13" type="curve" smooth="yes"/>
			<point x="368" y="-13"/>
			<point x="473" y="131"/>
			<point x="473" y="302" type="curve" smooth="yes"/>
			<point x="473" y="423"/>
			<point x="403" y="487"/>
			<point x="312" y="487" type="curve" smooth="yes"/>
			<point x="198" y="487"/>
			<point x="125" y="399"/>
			<point x="96" y="259" type="curve" smooth="yes"/>
			<point x="10" y="-160" type="line"/>
			<point x="19" y="-178"/>
			<point x="35" y="-190"/>
			<point x="51" y="-190" type="curve" smooth="yes"/>
			<point x="84" y="-190"/>
			<point x="100" y="-166"/>
			<point x="106" y="-103" type="curve" smooth="yes"/>
			<point x="123" y="79" type="line"/>
			<point x="129" y="79" type="line"/>
			<point x="173" y="288" type="line" smooth="yes"/>
			<point x="195" y="393"/>
			<point x="240" y="447"/>
			<point x="304" y="447" type="curve" smooth="yes"/>
			<point x="360" y="447"/>
			<point x="393" y="399"/>
			<point x="393" y="299" type="curve" smooth="yes"/>
			<point x="393" y="151"/>
			<point x="336" y="42"/>
			<point x="236" y="42" type="curve" smooth="yes"/>
			<point x="174" y="42"/>
			<point x="140" y="73"/>
			<point x="115" y="122" type="curve"/>
			<point x="105" y="105" type="line"/>
			<point x="125" y="31"/>
			<point x="178" y="-13"/>
		</contour>
	</outline>
</glyph>
<glyph name="sigma.end" format="1">
	<unicode hex="03C2"/>
	<advance width="393"/>
	<outline>
		<contour>
			<point x="281" y="-120"/>
			<point x="268" y="-150"/>
			<point x="249" y="-181" type="curve"/>
			<point x="278" y="-200" type="line"/>
			<point x="337" y="-129"/>
			<point x="350" y="-98"/>
			<point x="350" y="-57" type="curve" smooth="yes"/>
			<point x="350" y="-13"/>
			<point x="321" y="14"/>
			<point x="243" y="56" type="curve" smooth="yes"/>
			<point x="162" y="100"/>
			<point x="125" y="131"/>
			<point x="125" y="218" type="curve" smooth="yes"/>
			<point x="125" y="337"/>
			<point x="198" y="436"/>
			<point x="312" y="457" type="curve"/>
			<point x="258" y="472" type="line"/>
			<point x="315" y="419" type="line" smooth="yes"/>
			<point x="336" y="400"/>
			<point x="359" y="385"/>
			<point x="379" y="385" type="curve" smooth="yes"/>
			<point x="413" y="385"/>
			<point x="437" y="406"/>
			<point x="438" y="438" type="curve"/>
			<point x="425" y="468"/>
			<point x="364" y="487"/>
			<point x="310" y="487" type="curve" smooth="yes"/>
			<point x="166" y="487"/>
			<point x="49" y="350"/>
			<point x="49" y="199" type="curve" smooth="yes"/>
			<point x="49" y="101"/>
			<point x="98" y="39"/>
			<point x="197" y="-11" type="curve" smooth="yes"/>
			<point x="268" y="-47"/>
			<point x="281" y="-60"/>
			<point x="281" y="-97" type="curve" smooth="yes"/>
		</contour>
	</outline>
</glyph>
<glyph name="sigma" format="1">
	<unicode hex="03C3"/>
	<advance width="513"/>
	<outline>
		<contour>
			<point x="282" y="426" type="line"/>
			<point x="340" y="426"/>
			<point x="380" y="360"/>
			<point x="380" y="253" type="curve" smooth="yes"/>
			<point x="380" y="140"/>
			<point x="317" y="27"/>
			<point x="223" y="27" type="curve" smooth="yes"/>
			<point x="171" y="27"/>
			<point x="133" y="70"/>
			<point x="133" y="176" type="curve" smooth="yes"/>
			<point x="133" y="314"/>
			<point x="209" y="427"/>
			<point x="335" y="427" type="curve"/>
			<point x="350" y="423" type="line"/>
			<point x="550" y="408" type="line"/>
			<point x="560" y="477" type="line"/>
			<point x="350" y="477" type="line" smooth="yes"/>
			<point x="170" y="477"/>
			<point x="53" y="337"/>
			<point x="53" y="163" type="curve" smooth="yes"/>
			<point x="53" y="49"/>
			<point x="124" y="-13"/>
			<point x="212" y="-13" type="curve" smooth="yes"/>
			<point x="347" y="-13"/>
			<point x="460" y="122"/>
			<point x="460" y="260" type="curve" smooth="yes"/>
			<point x="460" y="358"/>
			<point x="393" y="437"/>
			<point x="298" y="437" type="curve"/>
		</contour>
	</outline>
</glyph>
<glyph name="tau" format="1">
	<unicode hex="03C4"/>
	<advance width="441"/>
	<outline>
		<contour>
			<point x="80" y="390" type="line"/>
			<point x="268" y="413" type="line"/>
			<point x="294" y="413" type="line"/>
			<point x="478" y="408" type="line"/>
			<point x="488" y="477" type="line"/>
			<point x="269" y="477" type="line" smooth="yes"/>
			<point x="172" y="477"/>
			<point x="136" y="463"/>
			<point x="80" y="425" type="curve"/>
		</contour>
		<contour>
			<point x="181" y="61" type="curve" smooth="yes"/>
			<point x="181" y="15"/>
			<point x="208" y="-13"/>
			<point x="252" y="-13" type="curve" smooth="yes"/>
			<point x="291" y="-13"/>
			<point x="331" y="11"/>
			<point x="370" y="60" type="curve"/>
			<point x="354" y="83" type="line"/>
			<point x="332" y="65"/>
			<point x="311" y="54"/>
			<point x="292" y="54" type="curve" smooth="yes"/>
			<point x="271" y="54"/>
			<point x="262" y="67"/>
			<point x="262" y="97" type="curve" smooth="yes"/>
			<point x="262" y="130"/>
			<point x="264" y="162"/>
			<point x="315" y="445" type="curve"/>
			<point x="265" y="436" type="line"/>
			<point x="188" y="157"/>
			<point x="181" y="93"/>
		</contour>
	</outline>
</glyph>
<glyph name="upsilon" format="1">
	<unicode hex="03C5"/>
	<advance width="513"/>
	<outline>
		<contour>
			<point x="132" y="130" type="curve" smooth="yes"/>
			<point x="132" y="46"/>
			<point x="186" y="-13"/>
			<point x="285" y="-13" type="curve" smooth="yes"/>
			<point x="430" y="-13"/>
			<point x="482" y="129"/>
			<point x="494" y="253" type="curve" smooth="yes"/>
			<point x="504" y="357"/>
			<point x="461" y="456"/>
			<point x="424" y="479" type="curve"/>
			<point x="420" y="481"/>
			<point x="412" y="483"/>
			<point x="404" y="483" type="curve" smooth="yes"/>
			<point x="374" y="483"/>
			<point x="358" y="464"/>
			<point x="355" y="438" type="curve" smooth="yes"/>
			<point x="349" y="398"/>
			<point x="385" y="356"/>
			<point x="457" y="310" type="curve"/>
			<point x="454" y="360" type="line"/>
			<point x="431" y="370" type="line"/>
			<point x="440" y="345"/>
			<point x="464" y="302"/>
			<point x="460" y="254" type="curve" smooth="yes"/>
			<point x="450" y="136"/>
			<point x="403" y="37"/>
			<point x="295" y="37" type="curve" smooth="yes"/>
			<point x="232" y="37"/>
			<point x="199" y="76"/>
			<point x="199" y="136" type="curve" smooth="yes"/>
			<point x="199" y="205"/>
			<point x="238" y="342"/>
			<point x="238" y="407" type="curve" smooth="yes"/>
			<point x="238" y="461"/>
			<point x="214" y="487"/>
			<point x="176" y="487" type="curve" smooth="yes"/>
			<point x="136" y="487"/>
			<point x="103" y="462"/>
			<point x="63" y="400" type="curve"/>
			<point x="82" y="380" type="line"/>
			<point x="110" y="411"/>
			<point x="122" y="419"/>
			<point x="142" y="419" type="curve" smooth="yes"/>
			<point x="162" y="419"/>
			<point x="168" y="405"/>
			<point x="168" y="381" type="curve" smooth="yes"/>
			<point x="168" y="329"/>
			<point x="132" y="207"/>
		</contour>
		<contour>
			<point name="aboveLC" x="313" y="506" type="move"/>
		</contour>
	</outline>
</glyph>
<glyph name="phi" format="1">
	<unicode hex="03C6"/>
	<advance width="662"/>
	<outline>
		<contour>
			<point x="305" y="-13" type="line"/>
			<point x="526" y="-8"/>
			<point x="633" y="122"/>
			<point x="648" y="268" type="curve" smooth="yes"/>
			<point x="662" y="401"/>
			<point x="591" y="486"/>
			<point x="494" y="486" type="curve"/>
			<point x="391" y="486"/>
			<point x="350" y="403"/>
			<point x="331" y="329" type="curve"/>
			<point x="222" y="-193" type="line"/>
			<point x="232" y="-200" type="line"/>
			<point x="313" y="-182" type="line"/>
			<point x="386" y="303" type="line"/>
			<point x="400" y="410"/>
			<point x="441" y="446"/>
			<point x="486" y="446" type="curve" smooth="yes"/>
			<point x="548" y="446"/>
			<point x="579" y="382"/>
			<point x="565" y="263" type="curve" smooth="yes"/>
			<point x="552" y="157"/>
			<point x="501" y="27"/>
			<point x="311" y="26" type="curve"/>
		</contour>
		<contour>
			<point x="314" y="26" type="line"/>
			<point x="216" y="34"/>
			<point x="141" y="78"/>
			<point x="141" y="208" type="curve"/>
			<point x="141" y="336"/>
			<point x="217" y="434"/>
			<point x="287" y="462" type="curve"/>
			<point x="269" y="485" type="line"/>
			<point x="144" y="450"/>
			<point x="61" y="325"/>
			<point x="61" y="213" type="curve"/>
			<point x="61" y="81"/>
			<point x="153" y="-5"/>
			<point x="306" y="-13" type="curve"/>
		</contour>
	</outline>
</glyph>
<glyph name="chi" format="1">
	<unicode hex="03C7"/>
	<advance width="539"/>
	<outline>
		<contour>
			<point x="258" y="180" type="line"/>
			<point x="-3" y="-180" type="line"/>
			<point x="7" y="-188" type="line"/>
			<point x="80" y="-183" type="line"/>
			<point x="277" y="113" type="line"/>
		</contour>
		<contour>
			<point x="279" y="109" type="line"/>
			<point x="552" y="470" type="line"/>
			<point x="542" y="478" type="line"/>
			<point x="469" y="473" type="line"/>
			<point x="262" y="174" type="line"/>
		</contour>
		<contour>
			<point x="302" y="-95" type="line" smooth="yes"/>
			<point x="318" y="-162"/>
			<point x="336" y="-188"/>
			<point x="385" y="-188" type="curve" smooth="yes"/>
			<point x="416" y="-188"/>
			<point x="448" y="-170"/>
			<point x="467" y="-145" type="curve"/>
			<point x="461" y="-115" type="line"/>
			<point x="439" y="-123"/>
			<point x="428" y="-126"/>
			<point x="415" y="-126" type="curve" smooth="yes"/>
			<point x="380" y="-126"/>
			<point x="367" y="-108"/>
			<point x="350" y="-54" type="curve" smooth="yes"/>
			<point x="285" y="149" type="line"/>
			<point x="280" y="162" type="line"/>
			<point x="237" y="386" type="line" smooth="yes"/>
			<point x="223" y="459"/>
			<point x="203" y="487"/>
			<point x="153" y="487" type="curve" smooth="yes"/>
			<point x="122" y="487"/>
			<point x="90" y="469"/>
			<point x="71" y="444" type="curve"/>
			<point x="77" y="414" type="line"/>
			<point x="99" y="422"/>
			<point x="111" y="425"/>
			<point x="124" y="425" type="curve" smooth="yes"/>
			<point x="160" y="425"/>
			<point x="175" y="399"/>
			<point x="188" y="351" type="curve" smooth="yes"/>
			<point x="245" y="141" type="line"/>
			<point x="247" y="137" type="line"/>
		</contour>
	</outline>
</glyph>
<glyph name="psi" format="1">
	<unicode hex="03C8"/>
	<advance width="641"/>
	<outline>
		<contour>
			<point x="346" y="-13" type="line"/>
			<point x="551" y="-10"/>
			<point x="602" y="130"/>
			<point x="614" y="253" type="curve" smooth="yes"/>
			<point x="624" y="357"/>
			<point x="581" y="456"/>
			<point x="544" y="479" type="curve"/>
			<point x="540" y="481"/>
			<point x="532" y="483"/>
			<point x="524" y="483" type="curve" smooth="yes"/>
			<point x="494" y="483"/>
			<point x="478" y="464"/>
			<point x="475" y="438" type="curve" smooth="yes"/>
			<point x="469" y="398"/>
			<point x="505" y="356"/>
			<point x="577" y="310" type="curve"/>
			<point x="574" y="360" type="line"/>
			<point x="551" y="370" type="line"/>
			<point x="560" y="345"/>
			<point x="584" y="302"/>
			<point x="580" y="254" type="curve" smooth="yes"/>
			<point x="570" y="136"/>
			<point x="513" y="37"/>
			<point x="357" y="37" type="curve"/>
			<point x="377" y="37"/>
			<point x="397" y="37"/>
			<point x="337" y="37" type="curve"/>
		</contour>
		<contour>
			<point x="456" y="622" type="line"/>
			<point x="448" y="632" type="line"/>
			<point x="409" y="622" type="line"/>
			<point x="255" y="-193" type="line"/>
			<point x="265" y="-200" type="line"/>
			<point x="346" y="-182" type="line"/>
		</contour>
		<contour>
			<point x="315" y="37" type="move"/>
			<point x="242" y="37"/>
			<point x="189" y="76"/>
			<point x="189" y="136" type="curve" smooth="yes"/>
			<point x="189" y="205"/>
			<point x="228" y="342"/>
			<point x="228" y="407" type="curve" smooth="yes"/>
			<point x="228" y="461"/>
			<point x="204" y="487"/>
			<point x="166" y="487" type="curve" smooth="yes"/>
			<point x="126" y="487"/>
			<point x="93" y="462"/>
			<point x="53" y="400" type="curve"/>
			<point x="72" y="380" type="line"/>
			<point x="100" y="411"/>
			<point x="112" y="419"/>
			<point x="132" y="419" type="curve" smooth="yes"/>
			<point x="152" y="419"/>
			<point x="158" y="405"/>
			<point x="158" y="381" type="curve" smooth="yes"/>
			<point x="158" y="329"/>
			<point x="122" y="207"/>
			<point x="122" y="130" type="curve" smooth="yes"/>
			<point x="122" y="46"/>
			<point x="196" y="-13"/>
			<point x="305" y="-13" type="curve"/>
		</contour>
	</outline>
</glyph>
<glyph name="omega" format="1">
	<unicode hex="03C9"/>
	<advance width="676"/>
	<outline>
		<contour>
			<point x="362" y="200" type="line"/>
			<point x="362" y="83"/>
			<point x="287" y="-13"/>
			<point x="198" y="-13" type="curve" smooth="yes"/>
			<point x="113" y="-13"/>
			<point x="51" y="55"/>
			<point x="51" y="156" type="curve" smooth="yes"/>
			<point x="51" y="298"/>
			<point x="135" y="424"/>
			<point x="273" y="487" type="curve"/>
			<point x="292" y="456" type="line"/>
			<point x="181" y="388"/>
			<point x="131" y="302"/>
			<point x="131" y="169" type="curve" smooth="yes"/>
			<point x="131" y="83"/>
			<point x="164" y="33"/>
			<point x="214" y="33" type="curve" smooth="yes"/>
			<point x="264" y="33"/>
			<point x="304" y="85"/>
			<point x="311" y="159" type="curve" smooth="yes"/>
			<point x="327" y="324" type="line"/>
			<point x="408" y="342" type="line"/>
			<point x="416" y="332" type="line"/>
			<point x="383" y="177" type="line" smooth="yes"/>
			<point x="364" y="90"/>
			<point x="391" y="33"/>
			<point x="455" y="33" type="curve" smooth="yes"/>
			<point x="534" y="33"/>
			<point x="589" y="120"/>
			<point x="589" y="233" type="curve" smooth="yes"/>
			<point x="589" y="322"/>
			<point x="567" y="364"/>
			<point x="504" y="411" type="curve" smooth="yes"/>
			<point x="483" y="427"/>
			<point x="476" y="436"/>
			<point x="476" y="450" type="curve" smooth="yes"/>
			<point x="476" y="471"/>
			<point x="492" y="487"/>
			<point x="514" y="487" type="curve" smooth="yes"/>
			<point x="531" y="487"/>
			<point x="553" y="476"/>
			<point x="572" y="458" type="curve" smooth="yes"/>
			<point x="622" y="412"/>
			<point x="654" y="338"/>
			<point x="654" y="261" type="curve" smooth="yes"/>
			<point x="654" y="112"/>
			<point x="565" y="-13"/>
			<point x="452" y="-13" type="curve" smooth="yes"/>
			<point x="373" y="-13"/>
			<point x="325" y="49"/>
			<point x="335" y="152" type="curve"/>
		</contour>
		<contour>
			<point name="aboveLC" x="390" y="506" type="move"/>
		</contour>
	</outline>
</glyph>
<glyph name="kai" format="1">
  <advance width="453.8214931765"/>
  <unicode hex="03D7"/>
  <outline>
    <contour>
      <point x="156" y="-217" type="curve" smooth="yes"/>
      <point x="326" y="-217"/>
      <point x="396" y="-95"/>
      <point x="452" y="62" type="curve"/>
      <point x="392" y="53" type="line"/>
      <point x="346" y="-77"/>
      <point x="262" y="-158"/>
      <point x="156" y="-158" type="curve" smooth="yes"/>
      <point x="98" y="-158"/>
      <point x="34" y="-139"/>
      <point x="1" y="-109" type="curve"/>
      <point x="-19" y="-133" type="line"/>
      <point x="11" y="-180"/>
      <point x="81" y="-217"/>
    </contour>
    <component base="kappa"/>
  </outline>
</glyph>
<glyph name="stigma" format="2">
	<unicode hex="03DB"/>
	<advance width="393"/>
	<outline>
		<contour>
			<point x="202" y="-11" type="curve" smooth="yes"/>
			<point x="273" y="-47"/>
			<point x="286" y="-60"/>
			<point x="286" y="-97" type="curve" smooth="yes"/>
			<point x="286" y="-119"/>
			<point x="275" y="-150"/>
			<point x="256" y="-178" type="curve"/>
			<point x="279" y="-196" type="line"/>
			<point x="341" y="-124"/>
			<point x="355" y="-98"/>
			<point x="355" y="-57" type="curve" smooth="yes"/>
			<point x="355" y="-14"/>
			<point x="327" y="15"/>
			<point x="248" y="56" type="curve" smooth="yes"/>
			<point x="134" y="115"/>
			<point x="109" y="143"/>
			<point x="109" y="213" type="curve" smooth="yes"/>
			<point x="109" y="315"/>
			<point x="175" y="376"/>
			<point x="302" y="392" type="curve" smooth="yes"/>
			<point x="367" y="400" type="line" smooth="yes"/>
			<point x="431" y="408"/>
			<point x="454" y="432"/>
			<point x="479" y="519" type="curve" smooth="yes"/>
			<point x="496" y="578" type="line"/>
			<point x="456" y="578" type="line"/>
			<point x="431" y="525" type="line" smooth="yes"/>
			<point x="416" y="494"/>
			<point x="398" y="482"/>
			<point x="356" y="476" type="curve" smooth="yes"/>
			<point x="292" y="466" type="line" smooth="yes"/>
			<point x="142" y="443"/>
			<point x="54" y="339"/>
			<point x="54" y="184" type="curve" smooth="yes"/>
			<point x="54" y="95"/>
			<point x="94" y="43"/>
		</contour>
	</outline>
</glyph>
<glyph name="digamma" format="1">
	<unicode hex="03DD"/>
	<advance width="440"/>
	<outline>
		<contour>
			<point x="12" y="-181" type="line"/>
			<point x="22" y="-190" type="line"/>
			<point x="105" y="-173" type="line"/>
			<point x="154" y="132" type="line"/>
			<point x="170" y="208"/>
			<point x="190" y="287"/>
			<point x="231" y="459" type="curve"/>
			<point x="188" y="428" type="line"/>
			<point x="459" y="422" type="line"/>
			<point x="472" y="480" type="line"/>
			<point x="150" y="468" type="line"/>
			<point x="80" y="76" type="line"/>
		</contour>
		<contour>
			<point x="136" y="163" type="line"/>
			<point x="388" y="153" type="line"/>
			<point x="400" y="211" type="line"/>
			<point x="145" y="205" type="line"/>
		</contour>
	</outline>
</glyph>
<glyph name="koppa" format="1">
	<unicode hex="03DF"/>
	<advance width="480"/>
	<outline>
		<contour>
			<point x="187" y="9" type="line"/>
			<point x="126" y="-180" type="line"/>
			<point x="133" y="-190" type="line"/>
			<point x="218" y="-171" type="line"/>
			<point x="241" y="12" type="line"/>
		</contour>
		<component base="omicron"/>
	</outline>
</glyph>
<glyph name="Dje" format="2">
	<unicode hex="0402"/>
	<advance width="674"/>
	<outline>
		<contour>
			<point x="382" y="-88" type="line"/>
			<point x="582" y="-75"/>
			<point x="667" y="58"/>
			<point x="667" y="170" type="curve" smooth="yes"/>
			<point x="667" y="294"/>
			<point x="599" y="389"/>
			<point x="439" y="389" type="curve" smooth="yes"/>
			<point x="391" y="389"/>
			<point x="360" y="385"/>
			<point x="313" y="379" type="curve"/>
			<point x="303" y="329" type="line"/>
			<point x="333" y="336"/>
			<point x="364" y="339"/>
			<point x="404" y="339" type="curve" smooth="yes"/>
			<point x="527" y="339"/>
			<point x="576" y="271"/>
			<point x="576" y="174" type="curve" smooth="yes"/>
			<point x="576" y="52"/>
			<point x="516" y="-25"/>
			<point x="376" y="-49" type="curve"/>
		</contour>
		<component base="T"/>
	</outline>
</glyph>
<glyph name="Ieukran" format="2">
	<unicode hex="0404"/>
	<advance width="593"/>
	<outline>
		<contour>
			<point x="138" y="319" type="line"/>
			<point x="373" y="319" type="line"/>
			<point x="381" y="365" type="line"/>
			<point x="147" y="365" type="line"/>
		</contour>
		<contour>
			<point x="341" y="224" type="line"/>
			<point x="383" y="224" type="line"/>
			<point x="428" y="461" type="line"/>
			<point x="386" y="461" type="line"/>
			<point x="348" y="355" type="line"/>
			<point x="345" y="335" type="line"/>
		</contour>
		<component base="C"/>
	</outline>
</glyph>
<glyph name="Tshe" format="2">
	<unicode hex="040B"/>
	<advance width="723"/>
	<outline>
		<contour>
			<point x="526" y="0" type="line"/>
			<point x="613" y="0" type="line"/>
			<point x="652" y="224" type="line" smooth="yes"/>
			<point x="674" y="349"/>
			<point x="600" y="393"/>
			<point x="484" y="393" type="curve" smooth="yes"/>
			<point x="431" y="393"/>
			<point x="369" y="388"/>
			<point x="322" y="378" type="curve"/>
			<point x="314" y="335" type="line"/>
			<point x="362" y="341"/>
			<point x="410" y="344"/>
			<point x="457" y="344" type="curve" smooth="yes"/>
			<point x="557" y="344"/>
			<point x="581" y="290"/>
			<point x="566" y="210" type="curve" smooth="yes"/>
		</contour>
		<contour>
			<point x="557" y="0" type="line"/>
			<point x="696" y="0" type="line"/>
			<point x="704" y="40" type="line"/>
			<point x="585" y="55" type="line"/>
			<point x="567" y="55" type="line"/>
		</contour>
		<component base="T"/>
	</outline>
</glyph>
